<svg xmlns="http://www.w3.org/2000/svg" width="1080" height="1080" viewBox="0 0 1080 1080" version="1.1">
	<path d="M 110.177 14.668 C 110.355 15.585, 113.052 17.947, 116.171 19.918 C 127.243 26.912, 136.502 33.761, 154.265 48.099 C 158.722 51.697, 161.988 57.630, 162.032 62.210 C 162.049 64.020, 162.942 72.250, 164.016 80.500 C 165.090 88.750, 166.669 102.475, 167.524 111 C 169.276 128.460, 172.980 159.833, 176.023 183 C 177.878 197.118, 180.307 219.868, 184.456 262 C 186.606 283.824, 188.348 298.219, 192.566 329 C 193.358 334.775, 194.669 347.375, 195.481 357 C 196.293 366.625, 197.407 377.875, 197.956 382 C 198.506 386.125, 199.871 397.375, 200.989 407 C 202.107 416.625, 203.795 430.575, 204.739 438 C 205.986 447.804, 206.462 459.029, 206.478 479 L 206.500 506.500 202.203 506.410 C 196.637 506.294, 193.730 504.072, 187.500 495.175 C 179.190 483.307, 177.367 485.790, 181.926 502.765 C 183.660 509.219, 185.657 517.078, 186.365 520.229 C 187.073 523.380, 188.406 526.791, 189.326 527.808 C 190.247 528.825, 191 530.621, 191 531.799 C 191 532.977, 192.167 536.492, 193.593 539.610 C 195.554 543.896, 196.031 546.159, 195.549 548.890 C 194.284 556.054, 191.819 577.661, 191.430 585 C 191.211 589.125, 190.761 595.538, 190.431 599.250 C 189.744 606.959, 190.613 607.703, 195.185 603.323 C 198.361 600.280, 199.485 600.595, 198.134 604.148 C 196.830 607.577, 177.500 628.507, 173.406 630.923 C 171.533 632.028, 170 633.439, 170 634.058 C 170 634.676, 172.414 638.090, 175.364 641.645 C 182.886 650.707, 186.075 657.635, 186.474 665.780 C 186.717 670.736, 187.248 672.708, 188.607 673.702 C 190.336 674.966, 190.339 675.156, 188.668 677.985 C 186.580 681.520, 185.814 695.364, 187.574 697.770 C 188.546 699.100, 189.350 698.718, 193.352 695.030 C 199.558 689.310, 199.648 692.253, 193.487 699.463 C 185.045 709.345, 177.082 712.547, 171.199 708.427 C 168.810 706.753, 161.474 696.164, 150.812 679 C 143.767 667.657, 123.342 626.846, 120.380 618.191 C 118.451 612.557, 116.752 610.417, 115.044 611.473 C 111.597 613.603, 118.273 642.402, 131.509 682.500 C 143.471 718.738, 159.556 751.074, 173.648 767.212 C 186.130 781.507, 192.519 790.602, 198.043 801.936 C 204.551 815.288, 204.601 815.406, 206.542 822 C 207.432 825.025, 208.575 828.534, 209.080 829.797 C 209.586 831.060, 210 833.053, 210 834.226 C 210 838.091, 212.317 843, 214.142 843 C 215.099 843, 216.160 843.450, 216.500 844 C 216.840 844.550, 217.991 845, 219.059 845 C 220.127 845, 221 845.450, 221 846 C 221 846.550, 219.705 847, 218.122 847 C 213.906 847, 212.791 848.943, 213.582 854.909 C 213.954 857.709, 214.632 860, 215.089 860 C 215.546 860, 216.459 858.200, 217.118 856 C 218.442 851.583, 219.531 850.947, 220.507 854.022 C 221.485 857.103, 220.180 861.451, 216.933 865.933 C 214.090 869.858, 214 870.339, 214 881.584 C 214 891.773, 214.250 893.502, 216.055 895.797 C 218.072 898.362, 218.075 898.437, 216.200 899.954 C 215.149 900.804, 213.990 902.351, 213.622 903.391 C 212.854 905.566, 214.840 916.783, 216.135 917.583 C 216.611 917.877, 217 918.991, 217 920.059 C 217 921.127, 217.343 922, 217.763 922 C 218.182 922, 218.970 922.890, 219.513 923.979 C 220.056 925.067, 222.870 929.976, 225.768 934.888 L 231.035 943.819 240.268 948.355 C 253.538 954.875, 257.944 959.568, 259.481 968.820 C 260.233 973.344, 262.103 974.989, 264.361 973.115 C 265.923 971.819, 266.781 972.690, 272.177 981.054 C 276.931 988.423, 285.515 998.670, 288.087 1000.047 C 289.827 1000.978, 290.233 1000.827, 290.691 999.075 C 291.419 996.291, 292.250 996.461, 294.220 999.795 C 295.319 1001.656, 295.564 1003.077, 294.951 1004.045 C 293.270 1006.702, 293.937 1007.783, 302.750 1016.692 C 312.516 1026.565, 320.959 1033.565, 334.935 1043.376 C 344.071 1049.791, 347.208 1051.091, 348.500 1049 C 349.706 1047.049, 351.872 1048.039, 352.184 1050.685 C 352.427 1052.752, 353.581 1053.907, 357.193 1055.703 C 368.950 1061.550, 396 1068.293, 396 1065.379 C 396 1064.379, 386.672 1058, 385.211 1058 C 383.955 1058, 369.381 1046.966, 364.491 1042.314 C 362.287 1040.216, 359.226 1036.813, 357.691 1034.750 C 356.155 1032.688, 354.255 1031, 353.469 1031 C 352.684 1031, 351.177 1029.306, 350.120 1027.236 C 349.064 1025.166, 345.238 1020.169, 341.618 1016.132 C 334.043 1007.684, 333.498 1006.187, 331.812 989.186 C 331.137 982.381, 330.068 976.108, 329.437 975.245 C 327.877 973.111, 325.217 974.305, 323.907 977.724 L 322.845 980.500 321.422 977.135 C 320.640 975.285, 320 973.210, 320 972.525 C 320 971.840, 318.813 969.529, 317.361 967.391 C 315.910 965.252, 314.271 962.152, 313.720 960.501 C 311.674 954.379, 307 951.642, 307 956.566 C 307 957.977, 307.492 960.051, 308.094 961.176 C 309.036 962.936, 308.688 963.633, 305.594 966.183 C 302.962 968.353, 302 969.929, 302 972.073 C 302 974.348, 301.548 975, 299.969 975 C 296.981 975, 296.419 972.248, 298.873 969.635 C 301.267 967.087, 301.572 964.972, 299.800 963.200 C 298.867 962.267, 298.867 961.733, 299.800 960.800 C 301.425 959.175, 301.255 953.070, 299.500 950 C 298.714 948.625, 298.055 947.217, 298.035 946.871 C 297.954 945.428, 304.046 944.091, 312 943.805 L 320.500 943.500 321.241 950.500 C 322.893 966.110, 323.516 969.299, 325.114 970.304 C 326.002 970.862, 327.481 971.029, 328.401 970.676 C 329.760 970.155, 329.967 969.142, 329.503 965.267 C 329.190 962.645, 328.836 956.027, 328.717 950.559 L 328.500 940.618 331.843 939.916 C 333.681 939.530, 335.659 938.741, 336.238 938.162 C 336.818 937.582, 338.567 937.363, 340.126 937.675 C 341.685 937.987, 347.807 937.291, 353.730 936.129 C 359.654 934.966, 369.450 933.075, 375.500 931.926 C 399.789 927.313, 400.862 926.942, 401.675 922.873 C 402.398 919.258, 404 920.151, 404 924.169 C 404 927.834, 399.614 936.307, 393.485 944.480 C 387.210 952.848, 387.512 956.355, 394.263 953.534 C 396.175 952.736, 399.788 950.518, 402.292 948.607 C 404.796 946.695, 408.342 944.361, 410.173 943.420 C 415.372 940.746, 424.795 933.337, 433 925.472 C 441.532 917.293, 443.986 916.106, 447.543 918.436 C 450.715 920.514, 462.268 932.089, 478.342 949.292 L 491.184 963.036 490.504 976.768 C 489.814 990.689, 491.227 1002.556, 494.330 1008.889 C 496.166 1012.637, 497.308 1011.582, 498.677 1004.869 C 499.374 1001.452, 500.382 998.218, 500.916 997.684 C 501.545 997.055, 501.688 997.479, 501.320 998.886 C 500.455 1002.192, 503.686 1009.469, 508.547 1015.164 C 510.946 1017.974, 513.822 1022.217, 514.939 1024.593 C 516.056 1026.969, 517.989 1029.457, 519.235 1030.122 C 522.801 1032.025, 535 1043.272, 535 1044.657 C 535 1045.343, 532.550 1047.839, 529.556 1050.203 C 526.562 1052.566, 524.087 1055.287, 524.056 1056.250 C 523.976 1058.744, 524.612 1058.526, 532.104 1053.500 C 535.793 1051.025, 539.641 1049.002, 540.655 1049.004 C 541.670 1049.007, 544.525 1050.379, 547 1052.054 C 549.475 1053.730, 552.737 1055.764, 554.250 1056.576 C 556.820 1057.955, 557 1057.922, 557 1056.074 C 557 1054.856, 555.276 1052.910, 552.515 1051.010 C 545.065 1045.885, 545.023 1044.934, 551.959 1038.377 C 555.260 1035.255, 559.347 1031.859, 561.041 1030.829 C 562.735 1029.799, 564.757 1027.504, 565.535 1025.728 C 566.314 1023.953, 568.535 1020.475, 570.471 1018 C 578.262 1008.042, 579.455 1005.838, 579.478 1001.360 C 579.490 998.965, 579.766 997.005, 580.092 997.003 C 581.012 996.998, 583 1004.383, 583 1007.807 C 583 1009.498, 583.399 1011.129, 583.887 1011.430 C 585.482 1012.416, 586.958 1009.442, 589.112 1000.902 C 590.988 993.466, 591.158 990.804, 590.593 977.747 L 589.954 962.995 599.855 952.747 C 605.300 947.111, 611.666 940.250, 614 937.500 C 619.109 931.481, 630.424 920.424, 633.608 918.338 C 636.978 916.129, 639.171 917.261, 648.839 926.199 C 657.790 934.475, 670.438 944, 672.475 944 C 673.114 944, 675.351 945.525, 677.446 947.389 C 679.541 949.253, 683.477 951.818, 686.194 953.091 C 690.294 955.011, 691.279 955.167, 691.996 954.006 C 693.041 952.316, 692.177 950.599, 685.963 942.009 C 683.373 938.429, 680.271 933.554, 679.069 931.176 C 676.700 926.488, 676.619 920.944, 678.909 920.191 C 679.864 919.877, 680.122 920.240, 679.709 921.315 C 678.572 924.278, 682.286 927.189, 689.066 928.647 C 712.062 933.594, 732.655 937.259, 738.537 937.453 C 741.308 937.544, 744.194 938.002, 744.950 938.469 C 745.707 938.937, 747.715 939.605, 749.413 939.954 L 752.500 940.588 752.496 949.044 C 752.493 953.695, 752.268 960.425, 751.996 964 C 751.509 970.380, 751.546 970.500, 753.970 970.500 C 756.984 970.500, 758.964 967.061, 758.985 961.791 C 758.993 959.751, 759.501 954.717, 760.112 950.604 L 761.224 943.125 769.336 943.534 C 777.902 943.966, 783.378 945.548, 782.693 947.393 C 779.703 955.452, 779.599 956.098, 780.782 959.233 C 781.576 961.338, 781.647 962.753, 780.992 963.408 C 779.342 965.058, 779.875 967.863, 782.061 969.032 C 784.833 970.516, 784.291 974.388, 781.250 974.820 C 779.336 975.091, 779 974.681, 779 972.070 C 779 969.059, 776.088 965, 773.928 965 C 773.210 965, 773.087 963.153, 773.555 959.402 C 774.196 954.275, 774.097 953.834, 772.377 954.152 C 771.280 954.355, 769.461 956.637, 768 959.641 C 766.625 962.468, 765.001 965.393, 764.391 966.141 C 763.780 966.888, 762.503 969.750, 761.552 972.500 C 760.601 975.250, 759.413 978.281, 758.911 979.236 C 758.410 980.191, 757.922 982.666, 757.827 984.736 C 757.716 987.164, 757.450 986.228, 757.077 982.102 C 756.670 977.583, 755.994 975.388, 754.778 974.625 C 752.361 973.110, 751.140 974.661, 750.523 980.032 C 747.409 1007.117, 747.214 1007.847, 741.455 1013.987 C 735.249 1020.602, 732.482 1024.110, 730.652 1027.679 C 729.755 1029.428, 728.118 1031.145, 727.013 1031.496 C 725.908 1031.847, 723.700 1034.029, 722.105 1036.347 C 719.120 1040.687, 707.564 1050.761, 700.500 1055.184 C 698.300 1056.561, 693.913 1059.203, 690.750 1061.055 C 687.588 1062.907, 685 1064.843, 685 1065.356 C 685 1067.333, 698.786 1065.003, 709.684 1061.184 C 725.047 1055.800, 728.426 1053.942, 728.816 1050.659 C 729.166 1047.725, 730.072 1047.403, 732.939 1049.194 C 735.459 1050.768, 737.258 1049.902, 749.043 1041.445 C 761.717 1032.351, 767.843 1027.241, 778.250 1017.082 C 786.662 1008.871, 788.751 1005.200, 785.984 1003.490 C 785.341 1003.093, 785.597 1001.798, 786.681 999.963 C 788.463 996.947, 791.652 994.859, 790.704 997.329 C 790.419 998.073, 790.574 999.310, 791.049 1000.079 C 791.732 1001.184, 792.677 1000.747, 795.563 997.988 C 799.362 994.358, 807.862 983.348, 812.335 976.261 C 813.760 974.005, 815.734 971.902, 816.723 971.588 C 817.712 971.274, 819.288 969.326, 820.227 967.259 C 822.007 963.337, 826.136 955.864, 827 955 C 827.449 954.551, 829.417 951.107, 832.426 945.500 C 833.017 944.400, 833.748 943.275, 834.052 943 C 834.356 942.725, 835.399 940.700, 836.370 938.500 C 839.087 932.343, 840.450 929.547, 840.998 929 C 841.474 928.526, 844.125 923.859, 846.394 919.500 C 847.645 917.096, 859.155 898.919, 860.324 897.500 C 860.777 896.950, 864.290 891.647, 868.130 885.715 C 875.242 874.731, 876.379 870.565, 871.948 871.724 C 869.726 872.305, 863.497 866.437, 861.913 862.272 C 860.735 859.172, 860.729 852, 861.905 852 C 862.403 852, 863.415 853.909, 864.155 856.241 C 865.772 861.341, 868.260 862.241, 869.837 858.296 C 871.091 855.162, 877.067 832.872, 877.692 829 C 877.913 827.625, 878.500 824.925, 878.995 823 C 879.490 821.075, 880.678 816.350, 881.635 812.500 C 884.627 800.468, 896.955 779.131, 908.976 765.177 C 928.682 742.305, 952.785 683.528, 964.946 628.692 C 968.072 614.597, 967.965 610.309, 964.522 611.630 C 963.362 612.075, 959 621.521, 959 623.587 C 959 623.869, 953.602 634.869, 947.005 648.031 C 934.575 672.831, 919.491 697.942, 912.430 705.591 C 908.921 709.393, 907.808 710, 904.352 710 C 899.363 710, 893.193 706.071, 887.250 699.108 C 880.889 691.656, 881.779 688.979, 888.412 695.612 C 891.390 698.590, 892.285 699.009, 893.506 697.995 C 895.732 696.148, 895.001 680.764, 892.559 678.065 C 890.847 676.173, 890.859 675.994, 892.889 673.414 C 894.467 671.407, 895 669.314, 895.001 665.115 C 895.002 657.950, 898.767 649.745, 905.837 641.500 C 908.667 638.200, 910.986 634.796, 910.991 633.935 C 910.996 633.075, 909.482 631.646, 907.626 630.762 C 904.332 629.191, 885.510 608.807, 883.067 604.164 C 881.244 600.701, 882.634 600.275, 885.815 603.323 C 890.371 607.688, 891.245 606.952, 890.646 599.250 C 890.358 595.538, 889.893 588.675, 889.614 584 C 888.681 568.359, 887.763 560.433, 885.832 551.374 C 884.833 546.685, 884.965 545.757, 887.370 540.503 C 888.816 537.343, 890 533.611, 890 532.208 C 890 530.805, 890.686 528.900, 891.523 527.974 C 892.361 527.048, 893.906 523.188, 894.957 519.395 C 902.628 491.699, 903.330 487.597, 900.297 488.181 C 899.361 488.362, 897.131 490.532, 895.342 493.005 C 887.262 504.171, 883.662 507, 877.532 507 L 875 507 875 478.588 C 875 459.872, 875.489 446.307, 876.432 438.838 C 877.220 432.602, 878.380 422.775, 879.010 417 C 879.639 411.225, 881.039 399.525, 882.120 391 C 883.201 382.475, 884.956 366.050, 886.020 354.500 C 887.084 342.950, 888.621 328.550, 889.435 322.500 C 892.990 296.086, 895.013 279.407, 896.530 264 C 897.424 254.925, 898.548 243.675, 899.028 239 C 899.508 234.325, 900.391 225.550, 900.991 219.500 C 902.155 207.765, 904.302 189.283, 905.928 177 C 908.965 154.048, 911.006 137.212, 911.988 127 C 912.596 120.675, 914.014 107.625, 915.140 98 C 916.266 88.375, 917.744 75.325, 918.424 69 C 919.807 56.157, 921.297 52.396, 926.634 48.288 C 928.625 46.754, 934.974 41.777, 940.743 37.228 C 946.511 32.678, 955.682 25.991, 961.123 22.369 C 971.355 15.557, 972.595 14.486, 971.222 13.637 C 969.979 12.869, 948.688 18.469, 937.680 22.460 C 926.187 26.627, 923.764 27.812, 914.803 33.642 C 911.120 36.039, 907.783 38, 907.387 38 C 905.969 38, 892.452 46.885, 890.168 49.319 C 888.850 50.723, 887.596 53.595, 887.283 55.926 C 886.577 61.190, 885.397 61.929, 884.587 57.615 C 883.895 53.924, 884.983 50.237, 888.025 45.965 C 891.946 40.459, 889.459 37.749, 884.924 42.586 C 883.591 44.009, 879.731 47.151, 876.346 49.568 C 867.120 56.158, 860.802 63.775, 858.016 71.668 C 856.485 76.004, 854.040 80.198, 851.076 83.572 C 840.425 95.699, 821.798 121.109, 818.029 128.656 C 816.848 131.020, 815.450 133.222, 814.922 133.548 C 813.579 134.378, 809.212 143.194, 806.296 150.965 C 804.946 154.559, 803.218 158.850, 802.455 160.500 C 800.541 164.639, 792 191.349, 792 193.194 C 792 194.019, 791.213 195.625, 790.250 196.763 C 789.288 197.901, 787.622 199.882, 786.549 201.166 C 785.476 202.450, 781.876 206.443, 778.549 210.040 C 775.222 213.637, 769.755 219.599, 766.399 223.290 C 763.044 226.980, 759.834 230, 759.266 230 C 756.504 230, 756.297 219.435, 758.897 211.084 C 760.139 207.094, 760.439 204.771, 759.766 204.355 C 759.201 204.006, 755.779 207.046, 752.161 211.110 C 748.543 215.175, 743.227 220.906, 740.347 223.847 C 735.407 228.891, 734.894 229.160, 731.305 228.584 C 729.212 228.248, 726.150 228.354, 724.500 228.819 C 722.433 229.402, 720.411 229.209, 718 228.197 C 715.773 227.263, 710.109 226.612, 702.430 226.408 C 695.791 226.232, 689.124 225.618, 687.615 225.044 C 686.105 224.470, 682.312 223.985, 679.185 223.967 C 676.058 223.949, 670.350 223.499, 666.500 222.967 C 658.047 221.798, 622.661 218.771, 618.611 218.870 C 617.022 218.909, 614.948 219.642, 614.002 220.498 C 612.432 221.919, 612.155 221.867, 610.850 219.901 C 609.146 217.335, 598.555 215.604, 574.500 213.962 C 566.250 213.398, 558.600 212.516, 557.500 212.001 C 556.400 211.486, 553.700 211.109, 551.500 211.165 C 546.358 211.294, 534.642 211.294, 529.500 211.165 C 527.300 211.109, 524.600 211.486, 523.500 212.001 C 522.400 212.516, 514.750 213.398, 506.500 213.962 C 482.445 215.604, 471.854 217.335, 470.150 219.901 C 468.857 221.848, 468.557 221.909, 467.034 220.531 C 466.108 219.693, 464.259 218.964, 462.925 218.913 C 459.342 218.774, 421.706 221.792, 418.904 222.443 C 417.582 222.750, 411.249 223.402, 404.831 223.891 C 398.414 224.381, 392.691 225.073, 392.115 225.429 C 391.539 225.785, 385.495 226.217, 378.684 226.390 C 369.941 226.611, 365.372 227.167, 363.142 228.279 C 360.752 229.471, 359.193 229.623, 356.741 228.903 C 354.959 228.380, 351.818 228.226, 349.762 228.562 C 346.115 229.157, 345.817 228.957, 337.475 220.336 C 332.773 215.476, 327.930 210.045, 326.713 208.266 C 322.190 201.655, 319.439 202.973, 322.079 210.485 C 324.382 217.038, 324.530 223.933, 322.511 230.591 C 321.692 233.291, 321.017 236.568, 321.011 237.872 C 320.994 241.566, 318.196 238.649, 317.439 234.150 C 317.102 232.142, 316.574 229.600, 316.266 228.501 C 315.959 227.402, 310.170 221.102, 303.402 214.501 C 291.088 202.492, 289 199.498, 289 193.852 C 289 187.286, 272.505 142.382, 267.565 135.500 C 266.381 133.850, 263.560 129.350, 261.297 125.500 C 256.250 116.915, 236.546 90.315, 228.369 81.048 C 226.647 79.097, 224.484 75.250, 223.563 72.500 C 220.504 63.364, 215.785 57.708, 203.309 48.226 C 198.804 44.801, 194.840 41.550, 194.500 41 C 193.502 39.385, 191 39.854, 191 41.656 C 191 42.566, 192.172 44.848, 193.605 46.726 C 196.303 50.264, 197.754 56.594, 196.571 59.674 C 195.992 61.184, 195.755 61.227, 194.962 59.972 C 194.450 59.162, 194.024 57.278, 194.015 55.785 C 193.993 51.820, 189.381 47.190, 179.856 41.570 C 175.260 38.859, 167.675 34.294, 163 31.427 C 154.004 25.909, 138.041 19.910, 120.622 15.500 C 108.896 12.532, 109.776 12.603, 110.177 14.668 M 170.405 70.250 C 170.694 72.588, 171.200 77.650, 171.528 81.500 C 171.857 85.350, 172.749 93.450, 173.511 99.500 C 174.274 105.550, 175.362 115, 175.930 120.500 C 176.498 126, 177.659 136.350, 178.510 143.500 C 181.199 166.104, 182.268 176.336, 182.529 182 C 182.669 185.025, 183.275 190.875, 183.876 195 C 185.161 203.815, 189.254 238.152, 191.565 259.498 C 192.458 267.747, 193.333 274.729, 193.509 275.014 C 193.821 275.520, 196.470 300.551, 197.475 312.500 C 197.986 318.566, 200.204 322, 203.611 322 C 205.759 322, 205.618 138.402, 203.468 135.559 C 201.602 133.091, 201.585 131, 203.432 131 C 204.219 131, 205.813 129.666, 206.974 128.036 L 209.084 125.073 203.619 113.786 C 200.613 107.579, 194.294 96.997, 189.577 90.272 C 184.554 83.111, 181 77.044, 181 75.631 C 181 73.895, 180.303 73.042, 178.519 72.594 C 177.155 72.252, 175.046 70.628, 173.831 68.986 C 170.791 64.874, 169.784 65.245, 170.405 70.250 M 906.652 69.572 C 905.085 71.457, 902.947 73, 901.902 73 C 900.496 73, 899.998 73.717, 899.992 75.750 C 899.986 77.575, 897.051 82.706, 891.269 91 C 886.475 97.875, 880.020 108.634, 876.924 114.909 C 872.085 124.716, 871.434 126.690, 872.293 128.965 C 873.117 131.147, 873.792 131.537, 876.146 131.192 C 879.983 130.629, 879.926 132.965, 875.984 137.871 L 872.968 141.624 873.465 199.062 C 873.739 230.653, 874.309 271.119, 874.731 288.987 C 875.405 317.474, 875.695 321.512, 877.087 321.779 C 877.960 321.947, 879.673 321.276, 880.892 320.288 C 882.899 318.663, 883.288 316.691, 884.988 299.496 C 886.021 289.048, 887.539 275.325, 888.360 269 C 889.182 262.675, 890.600 250.975, 891.511 243 C 892.422 235.025, 893.781 223.550, 894.531 217.500 C 895.282 211.450, 896.204 202.900, 896.581 198.500 C 896.958 194.100, 897.653 189.748, 898.126 188.829 C 898.599 187.911, 899.223 181.836, 899.514 175.329 C 899.804 168.823, 900.467 160.800, 900.985 157.500 C 901.504 154.200, 902.627 145.200, 903.479 137.500 C 904.332 129.800, 905.718 117.425, 906.559 110 C 907.399 102.575, 908.509 92.225, 909.024 87 C 909.539 81.775, 910.217 74.912, 910.530 71.750 C 910.843 68.588, 910.739 66.032, 910.300 66.072 C 909.860 66.112, 908.218 67.687, 906.652 69.572 M 209 76 C 209 76.733, 209.300 77.033, 209.667 76.667 C 210.033 76.300, 210.033 75.700, 209.667 75.333 C 209.300 74.967, 209 75.267, 209 76 M 871 76 C 871 76.733, 871.300 77.033, 871.667 76.667 C 872.033 76.300, 872.033 75.700, 871.667 75.333 C 871.300 74.967, 871 75.267, 871 76 M 189.500 81 C 189.840 81.550, 190.316 82, 190.559 82 C 190.802 82, 191 81.550, 191 81 C 191 80.450, 190.523 80, 189.941 80 C 189.359 80, 189.160 80.450, 189.500 81 M 890 81.059 C 890 81.641, 890.450 81.840, 891 81.500 C 891.550 81.160, 892 80.684, 892 80.441 C 892 80.198, 891.550 80, 891 80 C 890.450 80, 890 80.477, 890 81.059 M 221.500 122 C 221.131 122.596, 222.343 123, 224.500 123 C 226.657 123, 227.869 122.596, 227.500 122 C 227.160 121.450, 225.810 121, 224.500 121 C 223.190 121, 221.840 121.450, 221.500 122 M 835 122 C 835 122.733, 835.300 123.033, 835.667 122.667 C 836.033 122.300, 836.033 121.700, 835.667 121.333 C 835.300 120.967, 835 121.267, 835 122 M 853.500 122 C 853.131 122.596, 854.343 123, 856.500 123 C 858.657 123, 859.869 122.596, 859.500 122 C 859.160 121.450, 857.810 121, 856.500 121 C 855.190 121, 853.840 121.450, 853.500 122 M 227.150 127.950 C 227.580 129.239, 228.951 129.471, 229.075 128.275 C 229.116 127.876, 228.610 127.370, 227.950 127.150 C 227.290 126.930, 226.930 127.290, 227.150 127.950 M 852 127.500 C 852 127.775, 852.225 128, 852.500 128 C 852.775 128, 853 127.775, 853 127.500 C 853 127.225, 852.775 127, 852.500 127 C 852.225 127, 852 127.225, 852 127.500 M 517.559 222.774 C 516.884 223.449, 508.720 224.237, 479.500 226.448 C 467.950 227.322, 454.675 228.470, 450 229 C 445.325 229.530, 435.425 230.400, 428 230.932 C 409.044 232.293, 395.117 234.136, 394.156 235.413 C 393.707 236.011, 392.121 241.900, 390.633 248.500 C 389.144 255.100, 386.364 267.025, 384.454 275 C 382.544 282.975, 380.986 290.045, 380.991 290.711 C 381.007 292.834, 399.635 310.949, 403.434 312.537 C 405.443 313.376, 407.333 314.705, 407.634 315.489 C 408.006 316.457, 409.077 316.735, 410.980 316.354 C 414.318 315.686, 422.606 317.991, 429.419 321.480 C 432.993 323.311, 435.912 324, 440.088 324 C 451.405 324, 451.982 325.229, 448.021 340.916 C 446.360 347.498, 445 353.712, 445 354.726 C 445 356.844, 455.263 367.403, 456.308 366.359 C 456.688 365.978, 457 359.767, 457 352.556 C 457 342.330, 457.341 338.958, 458.551 337.231 C 460.727 334.124, 470.865 324.634, 472.851 323.845 C 473.758 323.484, 475.333 322.188, 476.351 320.965 C 478.249 318.685, 478.253 318.717, 475.237 312.866 C 474.744 311.909, 477.952 309, 479.500 309 C 482.477 309, 484 312.069, 484 318.071 L 484 324 509.750 324.035 C 528.050 324.061, 536.119 324.422, 537.639 325.285 C 540.456 326.885, 548.332 334.208, 550.381 337.133 C 552.769 340.543, 552.811 385.046, 550.429 387.429 C 548.132 389.725, 515.880 389.765, 513.978 387.474 C 513.184 386.516, 512.528 381.488, 512.219 373.974 L 511.725 362 504.470 362 C 498.776 362, 497.083 362.341, 496.607 363.582 C 495.740 365.842, 495.884 402.269, 496.765 403.654 C 497.169 404.289, 500.514 406.015, 504.199 407.490 C 511.694 410.491, 513.478 412.063, 512.712 414.995 C 512.105 417.315, 513.970 417.660, 516.975 415.784 C 518.974 414.535, 519.658 414.705, 536.305 420.578 C 541.066 422.258, 541.172 422.249, 548.083 419.537 C 551.918 418.033, 555.731 416.126, 556.556 415.301 C 557.846 414.011, 558.044 407.720, 557.968 370.325 C 557.903 338.228, 558.190 326.476, 559.063 325.425 C 560.864 323.254, 591.653 323.368, 594.777 325.557 L 597 327.113 597 319.580 C 597 312.654, 597.201 311.914, 599.492 310.413 C 603.541 307.760, 607.843 311.160, 605.153 314.886 C 602.916 317.984, 602.761 319.105, 604.403 320.306 C 606.871 322.110, 607.789 346.573, 605.553 350.898 C 603.392 355.075, 603.555 355.758, 607.250 358.011 C 613.014 361.525, 613 361.561, 613 343.360 C 613 328.686, 613.207 326.564, 614.750 325.392 C 616.025 324.424, 620.703 324.054, 632 324.028 C 645.235 323.998, 647.940 323.724, 650.509 322.157 C 655.368 319.194, 666.087 315.854, 669.730 316.168 C 671.583 316.328, 673.414 315.957, 673.799 315.345 C 674.185 314.733, 676.638 313.230, 679.250 312.006 C 681.862 310.781, 684 309.360, 684 308.847 C 684 308.334, 687.600 304.434, 692 300.179 C 700.784 291.685, 701.078 290.882, 698.515 282.409 C 697.698 279.709, 695.885 272.100, 694.486 265.500 C 692.169 254.570, 691.334 251.045, 688.075 238.442 L 687.026 234.384 676.763 233.127 C 671.118 232.436, 660.425 231.441, 653 230.917 C 645.575 230.393, 635.675 229.530, 631 229 C 626.325 228.470, 613.050 227.322, 601.500 226.448 C 589.950 225.574, 576.675 224.410, 572 223.861 C 562.490 222.745, 518.467 221.866, 517.559 222.774 M 365.500 237.030 C 362.200 237.452, 359.183 237.604, 358.796 237.368 C 358.409 237.132, 356.905 237.237, 355.455 237.601 C 352.520 238.337, 352.502 237.673, 355.787 250 C 357.738 257.322, 357.634 263.779, 355.476 269.250 C 354.942 270.606, 355.298 271, 357.058 271 C 358.477 271, 361.703 273.279, 365.650 277.068 C 371.606 282.788, 374 283.756, 374 280.445 C 374 279.180, 375.423 272.846, 381.514 247 C 382.356 243.425, 383.313 239.488, 383.639 238.250 C 384.212 236.081, 384.004 236.005, 377.867 236.131 C 374.365 236.203, 368.800 236.608, 365.500 237.030 M 698.245 239.105 C 699.496 247.640, 707.457 281.790, 708.421 282.754 C 708.717 283.050, 712.456 279.967, 716.730 275.902 L 724.500 268.511 724.177 261.506 C 723.945 256.471, 724.434 252.671, 725.914 248 C 728.441 240.028, 728.506 238.045, 726.250 237.844 C 723.542 237.602, 720.376 237.361, 708.624 236.504 L 697.747 235.710 698.245 239.105 M 254.136 327.336 C 253.288 328.358, 253.055 350.372, 253.244 411.609 L 253.500 494.500 271.250 494.773 L 289 495.046 289.011 478.773 C 289.022 462.852, 289.640 454.991, 290.881 455.008 C 291.221 455.013, 296 464.013, 301.500 475.008 L 311.500 495 328.697 495 L 345.894 495 333.968 471.750 C 327.409 458.962, 317.874 440.250, 312.778 430.167 L 303.513 411.834 318.507 382.253 C 326.753 365.983, 336.087 347.744, 339.250 341.721 C 342.413 335.699, 345 329.698, 345 328.386 L 345 326 328.750 326.029 L 312.500 326.059 302 347.024 C 292.962 365.071, 290.604 369.096, 289.862 367.750 C 289.786 367.613, 289.449 358.275, 289.112 347 L 288.500 326.500 271.892 326.226 C 258.719 326.010, 255.047 326.239, 254.136 327.336 M 358.361 329.250 C 359.205 333.651, 360.516 339.223, 362.538 347 C 363.468 350.575, 364.591 355.075, 365.035 357 C 365.479 358.925, 367.033 365, 368.490 370.500 C 369.947 376, 373.108 388.600, 375.515 398.500 C 377.922 408.400, 381.265 421.900, 382.943 428.500 C 385.976 440.428, 385.995 440.663, 385.997 467.750 L 386 495 403 495 L 420 495 420 468.656 L 420 442.312 426.025 417.906 C 432.256 392.663, 437.463 372.083, 439.158 366 C 440.175 362.351, 440.820 359.825, 443.500 349 C 446.777 335.765, 447.077 334.412, 447.665 330.225 L 448.266 325.950 431.427 326.225 L 414.588 326.500 412.799 336 C 410.953 345.797, 410.092 350.138, 407.441 363 C 406.591 367.125, 405.661 371.850, 405.374 373.500 C 404.448 378.818, 404.125 379.348, 402.586 378.071 C 401.821 377.436, 400.959 375.023, 400.670 372.708 C 400.381 370.394, 399.698 366.475, 399.151 364 C 398.605 361.525, 397.489 356.125, 396.673 352 C 395.857 347.875, 394.483 340.960, 393.620 336.634 C 392.758 332.307, 391.535 328.145, 390.903 327.384 C 390.013 326.311, 386.158 326, 373.747 326 L 357.738 326 358.361 329.250 M 466.250 332.405 L 460 338.564 460.004 412.032 L 460.007 485.500 465.885 490.250 L 471.762 495 504.801 495 L 537.839 495 543.419 489.900 L 549 484.799 549 460.875 L 549 436.952 532.250 437.226 L 515.500 437.500 515 450.500 L 514.500 463.500 505.149 463.789 C 499.114 463.975, 495.302 463.666, 494.399 462.916 C 493.235 461.950, 493 453.408, 493 411.949 C 493 368.004, 493.185 361.958, 494.571 360.571 C 495.747 359.396, 498.204 359.004, 504.321 359.015 C 508.820 359.024, 513.048 359.379, 513.719 359.805 C 514.549 360.332, 515.027 364.710, 515.219 373.540 L 515.500 386.500 532 386.500 L 548.500 386.500 548.767 362.469 L 549.035 338.439 542.088 332.219 L 535.142 326 503.821 326.123 L 472.500 326.245 466.250 332.405 M 560 410.476 L 560 495 576.987 495 L 593.973 495 594.237 461.250 L 594.500 427.500 603.984 427.209 C 612.038 426.963, 613.658 427.180, 614.734 428.651 C 615.694 429.963, 616 438.201, 616 462.691 L 616 495 633 495 L 650 495 650 413.625 C 650 368.869, 649.719 330.844, 649.375 329.125 L 648.750 326 632.125 325.999 L 615.500 325.999 615.812 358.950 C 616.025 381.512, 615.777 392.547, 615.026 393.951 C 614.048 395.779, 612.977 396, 605.087 396 C 598.930 396, 595.908 395.594, 595.136 394.664 C 594.385 393.759, 593.942 382.538, 593.764 359.914 L 593.500 326.500 576.750 326.226 L 560 325.952 560 410.476 M 660.818 326.735 C 660.643 327.156, 660.618 365.188, 660.761 411.250 L 661.023 495 691.537 495 L 722.052 495 721.776 479.750 L 721.500 464.500 708.500 464 L 695.500 463.500 695.228 444.780 L 694.956 426.060 707.728 425.780 L 720.500 425.500 720.500 411 L 720.500 396.500 708 396 L 695.500 395.500 695.500 377.500 L 695.500 359.500 708.775 359.221 L 722.049 358.942 721.775 342.721 L 721.500 326.500 691.318 326.235 C 674.718 326.090, 660.993 326.315, 660.818 326.735 M 733 410.500 L 733 495 750.487 495 L 767.973 495 768.237 461.750 L 768.500 428.500 777.349 428.210 C 783.013 428.024, 786.702 428.338, 787.599 429.082 C 788.748 430.035, 789 436.078, 789 462.622 L 789 495 806.500 495 L 824 495 824 458.986 L 824 422.972 818.750 417.989 L 813.500 413.006 818.750 408.101 L 824 403.196 824 371.483 L 824 339.770 816.750 332.913 L 809.500 326.056 771.250 326.028 L 733 326 733 410.500 M 201.250 328.667 C 199.490 329.371, 199.671 335.665, 201.989 354.414 C 203.083 363.261, 204.133 372.525, 204.323 375 C 204.513 377.475, 204.630 368.062, 204.584 354.083 C 204.531 338.042, 204.131 328.574, 203.500 328.416 C 202.950 328.279, 201.938 328.392, 201.250 328.667 M 876.250 328.662 C 875.291 329.049, 875 335.819, 875 357.750 C 875 373.471, 875.194 386.139, 875.431 385.902 C 875.848 385.485, 879.403 354.892, 880.940 338.500 C 881.560 331.881, 881.425 330.284, 880.154 329.250 C 878.519 327.919, 878.207 327.873, 876.250 328.662 M 597.336 347 C 597.336 351.125, 597.513 352.813, 597.728 350.750 C 597.944 348.688, 597.944 345.313, 597.728 343.250 C 597.513 341.188, 597.336 342.875, 597.336 347 M 768.445 359.282 C 768.175 359.987, 768.076 368.875, 768.227 379.032 L 768.500 397.500 778.500 397.500 L 788.500 397.500 788.773 378.573 C 788.981 364.100, 788.746 359.456, 787.773 358.838 C 785.578 357.445, 769.004 357.826, 768.445 359.282 M 606.529 376.614 C 605.621 383.878, 607.085 385.717, 610.570 381.694 C 611.906 380.151, 613 378.299, 613 377.579 C 613 376.029, 609.211 371, 608.043 371 C 607.596 371, 606.915 373.526, 606.529 376.614 M 875 405 C 875 405.733, 875.300 406.033, 875.667 405.667 C 876.033 405.300, 876.033 404.700, 875.667 404.333 C 875.300 403.967, 875 404.267, 875 405 M 501 415 C 501 416.111, 501.667 417, 502.500 417 C 503.333 417, 504 416.111, 504 415 C 504 413.889, 503.333 413, 502.500 413 C 501.667 413, 501 413.889, 501 415 M 516.725 431.609 C 515.195 433.138, 516.125 433.934, 519.250 433.768 C 521.038 433.674, 528.258 433.687, 535.295 433.798 C 547.490 433.991, 548.209 434.118, 550.598 436.507 C 552.621 438.530, 553.481 438.813, 555.053 437.972 C 556.174 437.372, 557 435.884, 557 434.465 L 557 432 539.250 431.986 C 529.487 431.979, 520.589 431.728, 519.475 431.428 C 518.361 431.129, 517.123 431.210, 516.725 431.609 M 264.130 512.750 L 255.075 520.500 255.038 577.059 L 255 633.619 260.701 638.559 C 263.837 641.277, 267.949 644.737, 269.839 646.250 L 273.275 649 303.438 649 C 325.564 649, 333.920 649.320, 334.800 650.200 C 336.506 651.906, 336.506 700.094, 334.800 701.800 C 333.984 702.616, 329.224 703, 319.907 703 C 308.343 703, 306.120 702.754, 305.607 701.418 C 305.273 700.548, 305 693.357, 305 685.437 C 305 671.335, 304.954 671.027, 302.750 670.487 C 301.512 670.183, 290.375 670.062, 278 670.218 L 255.500 670.500 255.236 701.681 L 254.972 732.862 264.104 740.931 L 273.237 749 320.602 749 L 367.967 749 376.983 740.906 L 386 732.813 386 676.341 C 386 644.603, 385.604 619.131, 385.096 618.184 C 384.599 617.258, 380.543 613.575, 376.084 610 L 367.976 603.500 336.738 603 L 305.500 602.500 305.500 577 L 305.500 551.500 319.923 551.221 C 330.792 551.012, 334.547 551.258, 335.158 552.221 C 335.604 552.925, 335.976 560.145, 335.985 568.267 L 336 583.035 360.750 582.767 L 385.500 582.500 385.765 552.188 C 385.910 535.516, 385.685 521.306, 385.265 520.610 C 384.844 519.913, 380.816 516.117, 376.313 512.172 L 368.125 505 320.655 505 L 273.186 505 264.130 512.750 M 401.461 506.250 C 401.200 506.938, 401.101 561.725, 401.243 628 L 401.500 748.500 426 748.500 L 450.500 748.500 450.760 700.091 C 450.944 665.802, 451.350 651.283, 452.154 650.314 C 453.037 649.251, 456.422 649.008, 467.395 649.223 L 481.500 649.500 482 699 L 482.500 748.500 507 748.500 L 531.500 748.500 531.754 626.733 L 532.008 504.965 507.254 505.233 L 482.500 505.500 482 554 L 481.500 602.500 466.500 602.500 L 451.500 602.500 451.240 553.750 L 450.981 505 426.459 505 C 407.762 505, 401.824 505.297, 401.461 506.250 M 556.074 512.750 L 547.126 520.500 547.063 626.693 L 547 732.887 556.119 740.943 L 565.237 749 612.573 749 L 659.910 749 668.883 741.250 L 677.856 733.500 677.928 626.950 L 678 520.399 669.041 512.700 L 660.083 505 612.552 505 L 565.022 505 556.074 512.750 M 693.667 505.667 C 693.300 506.033, 693 560.700, 693 627.148 L 693 747.962 695.250 748.513 C 696.487 748.817, 707.625 748.938, 720 748.782 L 742.500 748.500 742.760 702.590 C 742.941 670.721, 743.361 656.270, 744.133 655.340 C 745.017 654.275, 751.525 653.993, 775.872 653.964 L 806.500 653.929 815.240 646.214 L 823.980 638.500 823.980 579.500 L 823.980 520.500 815.240 512.786 L 806.500 505.071 750.417 505.036 C 719.571 505.016, 694.033 505.300, 693.667 505.667 M 598.682 550.250 C 597.103 551.410, 597 556.848, 597.240 626 L 597.500 700.500 612.500 700.500 L 627.500 700.500 627.756 626.110 C 627.943 571.986, 627.705 551.350, 626.884 550.360 C 625.350 548.512, 601.174 548.418, 598.682 550.250 M 744.750 550.080 C 743.152 551.011, 743 553.428, 743 577.850 C 743 597.322, 743.326 604.926, 744.200 605.800 C 745.463 607.063, 769.364 607.565, 772.418 606.393 C 773.807 605.860, 774 602.467, 774 578.593 C 774 558.776, 773.674 551.074, 772.800 550.200 C 771.297 548.697, 747.301 548.594, 744.750 550.080 M 247.033 702.384 C 247.015 702.870, 247.517 704.993, 248.148 707.101 C 249.297 710.935, 251 711.502, 251 708.052 C 251 706.246, 247.098 700.670, 247.033 702.384 M 826.167 714.723 C 824.455 716.566, 824.130 717.530, 824.947 718.347 C 825.763 719.163, 826.707 718.666, 828.494 716.479 C 829.833 714.841, 830.944 713.163, 830.964 712.750 C 831.038 711.217, 828.426 712.291, 826.167 714.723 M 164.195 728.085 C 164.448 728.845, 166.646 729.857, 169.078 730.333 C 171.510 730.809, 174.073 731.668, 174.774 732.242 C 177.078 734.128, 177.044 732.390, 174.735 730.221 C 171.993 727.645, 163.473 725.918, 164.195 728.085 M 910.374 727.689 C 908.177 728.121, 902.895 733, 904.626 733 C 905.162 733, 906.028 732.590, 906.550 732.088 C 907.072 731.587, 909.490 730.792, 911.922 730.322 C 914.354 729.852, 916.529 728.912, 916.755 728.234 C 917.164 727.007, 914.858 726.810, 910.374 727.689 M 190 733.622 C 190 734.951, 190.271 735.020, 191.500 734 C 192.325 733.315, 193 732.585, 193 732.378 C 193 732.170, 192.325 732, 191.500 732 C 190.675 732, 190 732.730, 190 733.622 M 889 732.941 C 889 733.459, 889.450 734.160, 890 734.500 C 890.550 734.840, 891 734.416, 891 733.559 C 891 732.702, 890.550 732, 890 732 C 889.450 732, 889 732.423, 889 732.941 M 206 738.378 C 206 740.398, 208.498 742.130, 210.373 741.410 C 212.544 740.577, 212.427 739.299, 210.066 738.035 C 207.418 736.618, 206 736.737, 206 738.378 M 870.695 738.111 C 869.268 738.941, 869.137 739.460, 870.067 740.581 C 871.625 742.458, 873.639 742.383, 874.393 740.418 C 875.744 736.897, 874.314 736.005, 870.695 738.111 M 188.333 756.667 C 188.700 757.033, 189.300 757.033, 189.667 756.667 C 190.033 756.300, 189.733 756, 189 756 C 188.267 756, 187.967 756.300, 188.333 756.667 M 835 757.426 C 835 759.456, 836.557 762.569, 839.288 766 L 841.278 768.500 840.627 765.776 C 839.773 762.206, 835 755.124, 835 757.426 M 892.333 756.667 C 892.700 757.033, 893.300 757.033, 893.667 756.667 C 894.033 756.300, 893.733 756, 893 756 C 892.267 756, 891.967 756.300, 892.333 756.667 M 243.082 760.368 C 241.937 762.220, 241.014 764.358, 241.032 765.118 C 241.081 767.275, 246 761.163, 246 758.944 C 246 756.237, 245.477 756.492, 243.082 760.368 M 255 769.900 L 250.500 770.500 250.832 777 C 251.015 780.575, 251.517 786.193, 251.949 789.484 C 252.413 793.026, 252.332 796.619, 251.750 798.288 C 250.964 800.541, 251.100 801.353, 252.426 802.322 C 253.484 803.096, 254.442 806.064, 255.070 810.518 C 256.539 820.930, 259.836 836.825, 260.964 838.933 C 262.166 841.179, 266.610 844.879, 270.948 847.246 C 275.156 849.542, 274.793 852.605, 270.352 852.265 C 266.870 851.999, 264.520 854.043, 263.470 858.250 C 263.092 859.763, 263.010 861, 263.288 861 C 263.565 861, 267.241 859.362, 271.457 857.360 C 279.552 853.516, 281.467 853.672, 280.835 858.127 C 280.594 859.823, 278.756 861.467, 274.277 863.992 C 270.854 865.921, 268.047 868.175, 268.040 869 C 268.011 872.302, 273.812 889.479, 275.266 890.396 C 276.315 891.058, 281.158 890.776, 290.160 889.529 C 297.497 888.513, 305.975 887.416, 309 887.091 L 314.500 886.500 314.351 879.500 C 314.269 875.650, 313.713 868.900, 313.115 864.500 C 312.518 860.100, 311.763 854.317, 311.438 851.648 C 310.721 845.765, 310.701 845.766, 296.795 852.319 C 287.238 856.823, 287.055 856.865, 284.827 855.061 C 283.031 853.607, 282.807 852.937, 283.740 851.813 C 285.146 850.119, 292.843 846.167, 295.566 845.741 C 298.583 845.269, 306.555 841.149, 308.404 839.107 C 310.165 837.161, 310.140 836.470, 307.068 802 C 306.390 794.397, 306.499 792.185, 307.611 790.921 C 309.557 788.710, 309.341 786.694, 307 785.232 C 305.900 784.545, 305 782.918, 305 781.617 C 305 780.315, 304.711 777.804, 304.357 776.036 C 303.789 773.193, 303.413 772.888, 301.107 773.396 C 284.926 776.960, 272.518 776.297, 266.896 771.566 C 263.796 768.957, 262.957 768.840, 255 769.900 M 814.147 771.530 C 808.474 776.304, 796.149 776.972, 779.859 773.389 C 777.283 772.823, 777.201 772.958, 776.509 778.923 C 775.986 783.431, 775.300 785.304, 773.900 786.054 C 771.623 787.272, 771.491 788.634, 773.459 790.602 C 775.039 792.182, 775.041 792.141, 772.470 820.993 C 770.961 837.923, 771.346 840.033, 776.223 841.562 C 777.476 841.954, 779.565 843.107, 780.868 844.124 C 782.170 845.141, 783.634 845.726, 784.121 845.425 C 785.450 844.604, 798 851.074, 798 852.581 C 798 853.299, 797.063 854.543, 795.917 855.346 C 794.008 856.683, 792.882 856.357, 782.445 851.453 C 776.181 848.510, 770.819 846.484, 770.530 846.952 C 770.241 847.420, 769.569 851.784, 769.036 856.651 C 768.504 861.518, 767.552 869.667, 766.921 874.761 C 766.073 881.604, 766.066 884.375, 766.895 885.373 C 767.511 886.116, 770.600 886.993, 773.758 887.322 C 776.916 887.652, 784 888.599, 789.500 889.429 C 795 890.258, 801.168 890.951, 803.206 890.968 L 806.913 891 809.449 882.971 C 810.844 878.555, 812.269 873.171, 812.615 871.006 C 813.197 867.368, 813.026 866.973, 810.372 865.820 C 803.524 862.842, 800 860.001, 800 857.456 C 800 853.567, 802.180 853.562, 809.869 857.434 C 813.763 859.395, 817.235 861, 817.583 861 C 818.655 861, 816.937 855.603, 815.281 853.765 C 814.320 852.698, 812.536 852.121, 810.648 852.265 C 805.787 852.637, 806.076 849.734, 811.201 846.713 C 817.663 842.903, 821.199 838.688, 822.048 833.785 C 825.982 811.047, 827.424 804.273, 828.620 802.913 C 829.531 801.877, 829.797 800.234, 829.386 798.181 C 829.040 796.452, 829.319 789.821, 830.006 783.445 C 830.719 776.821, 830.879 771.509, 830.377 771.049 C 829.895 770.605, 826.741 769.947, 823.370 769.585 C 817.733 768.981, 816.990 769.138, 814.147 771.530 M 311.495 772.008 C 311.153 772.562, 313.376 775.640, 316.436 778.848 C 319.496 782.056, 322 785.428, 322 786.340 C 322 787.284, 322.792 788, 323.836 788 C 324.846 788, 327.259 789.688, 329.200 791.750 C 331.140 793.813, 336.164 798.806, 340.364 802.846 C 345.724 808.003, 348 810.908, 348 812.596 C 348 817.162, 344.135 815.469, 335.796 807.250 C 322.577 794.221, 318.749 790.130, 317.576 787.776 C 315.956 784.528, 313.378 784.359, 312.602 787.450 C 312.250 788.852, 311.520 790, 310.981 790 C 309.310 790, 309.899 792.469, 312 794.268 C 313.473 795.529, 314.005 797.234, 314.019 800.740 C 314.030 803.358, 314.691 810, 315.488 815.500 C 316.285 821, 316.951 827.130, 316.968 829.123 L 317 832.746 321.425 832.559 C 324.892 832.413, 326.461 831.730, 328.675 829.401 C 330.229 827.767, 334.988 824.922, 339.250 823.080 C 344.670 820.737, 347 819.206, 347 817.987 C 347 815.137, 349.797 813.392, 352.081 814.819 C 355.885 817.194, 354.121 813.470, 349.250 808.842 C 345.047 804.848, 340.177 799.741, 318.642 776.750 C 312.983 770.707, 312.498 770.386, 311.495 772.008 M 764.571 786.571 C 763.707 787.436, 763 788.529, 763 789.002 C 763 790.637, 737.542 815, 735.834 815 C 734.890 815, 733.840 814.550, 733.500 814 C 733.160 813.450, 732.373 813, 731.750 813 C 731.127 813, 731.341 813.563, 732.225 814.250 C 733.108 814.938, 733.986 816.400, 734.175 817.500 C 734.413 818.884, 737.095 820.747, 742.887 823.549 C 747.490 825.775, 752.125 828.671, 753.188 829.984 C 754.614 831.744, 756.235 832.419, 759.359 832.550 L 763.596 832.729 765.304 819.114 C 766.243 811.626, 767.009 803.358, 767.006 800.740 C 767.002 797.213, 767.518 795.537, 769 794.268 C 771.050 792.513, 771.702 790, 770.108 790 C 769.618 790, 768.934 788.875, 768.589 787.500 C 767.864 784.611, 766.782 784.361, 764.571 786.571 M 757.333 787.667 C 757.700 788.033, 758.300 788.033, 758.667 787.667 C 759.033 787.300, 758.733 787, 758 787 C 757.267 787, 756.967 787.300, 757.333 787.667 M 246.500 809 C 246.840 809.550, 247.316 810, 247.559 810 C 247.802 810, 248 809.550, 248 809 C 248 808.450, 247.523 808, 246.941 808 C 246.359 808, 246.160 808.450, 246.500 809 M 833 809.059 C 833 809.641, 833.450 809.840, 834 809.500 C 834.550 809.160, 835 808.684, 835 808.441 C 835 808.198, 834.550 808, 834 808 C 833.450 808, 833 808.477, 833 809.059 M 360.333 822.667 C 360.700 823.033, 361.300 823.033, 361.667 822.667 C 362.033 822.300, 361.733 822, 361 822 C 360.267 822, 359.967 822.300, 360.333 822.667 M 342.500 829.343 C 338.100 831.654, 330.729 835.518, 326.121 837.929 L 317.742 842.312 318.449 848.906 C 318.838 852.533, 319.684 859.519, 320.328 864.431 L 321.500 873.362 332.815 875.273 C 339.038 876.324, 345.113 876.933, 346.315 876.626 C 347.517 876.319, 350.766 874.359, 353.536 872.271 C 360.378 867.111, 371.243 861.538, 378.500 859.467 C 381.800 858.526, 384.662 857.611, 384.859 857.435 C 385.057 857.259, 384.229 855.727, 383.021 854.030 C 381.199 851.471, 380.996 850.449, 381.834 848.048 C 382.840 845.161, 382.831 845.153, 379.368 845.715 C 376.044 846.255, 375.422 845.815, 365.096 835.640 C 358.684 829.321, 353.527 825.029, 352.399 825.071 C 351.355 825.110, 346.900 827.032, 342.500 829.343 M 716.843 835.503 C 707.939 844.272, 705.676 846, 703.093 846 C 700.355 846, 700 846.329, 700 848.865 C 700 850.441, 699.066 852.917, 697.925 854.368 C 695.539 857.402, 694.571 856.693, 706.962 860.992 C 711.333 862.509, 718.873 866.475, 724.909 870.434 L 735.318 877.260 747.455 875.447 L 759.592 873.635 761.311 860.567 C 763.947 840.530, 765.554 843.481, 746.610 833.572 C 737.595 828.858, 729.608 825.001, 728.860 825.003 C 728.112 825.005, 722.704 829.730, 716.843 835.503 M 365 827.500 C 365 827.775, 365.225 828, 365.500 828 C 365.775 828, 366 827.775, 366 827.500 C 366 827.225, 365.775 827, 365.500 827 C 365.225 827, 365 827.225, 365 827.500 M 863.237 844.351 C 858.932 845.762, 859.571 847.132, 864.711 847.516 C 867.684 847.737, 869.016 847.400, 869.430 846.322 C 870.686 843.048, 868.923 842.487, 863.237 844.351 M 837 858.500 C 837 858.775, 837.225 859, 837.500 859 C 837.775 859, 838 858.775, 838 858.500 C 838 858.225, 837.775 858, 837.500 858 C 837.225 858, 837 858.225, 837 858.500 M 389.158 865.527 C 386.897 868.400, 385.619 873.317, 386.163 877.041 C 386.578 879.877, 389 880.916, 389 878.258 C 389 875.853, 392.908 872.119, 396.403 871.184 L 399.067 870.472 395.165 866.661 L 391.263 862.851 389.158 865.527 M 685.510 866.990 C 683.935 868.634, 682.838 870.110, 683.073 870.269 C 683.308 870.429, 685.198 871.331, 687.274 872.275 C 690.103 873.561, 691.200 874.752, 691.657 877.034 C 691.992 878.708, 692.768 879.913, 693.383 879.712 C 696.711 878.621, 693.661 864, 690.104 864 C 689.153 864, 687.085 865.345, 685.510 866.990 M 859 865.500 C 859 865.775, 859.225 866, 859.500 866 C 859.775 866, 860 865.775, 860 865.500 C 860 865.225, 859.775 865, 859.500 865 C 859.225 865, 859 865.225, 859 865.500 M 261 871.559 C 261 872.416, 261.450 872.840, 262 872.500 C 262.550 872.160, 263 871.459, 263 870.941 C 263 870.423, 262.550 870, 262 870 C 261.450 870, 261 870.702, 261 871.559 M 818.606 871.416 C 818.941 872.287, 819.653 873, 820.190 873 C 821.505 873, 820.682 870.727, 819.187 870.229 C 818.456 869.985, 818.233 870.443, 818.606 871.416 M 322.618 881.810 C 321.815 883.109, 322.812 885.714, 324.336 886.299 C 325.923 886.908, 336 884.802, 336 883.862 C 336 882.639, 334.779 882.235, 328.871 881.500 C 325.389 881.067, 323.004 881.185, 322.618 881.810 M 751.500 881.491 C 750.950 881.675, 749.263 882.098, 747.750 882.432 C 743.569 883.354, 744.439 884.489, 750.250 885.691 C 756.160 886.913, 759 886.028, 759 882.965 C 759 881.399, 758.341 881.016, 755.750 881.079 C 753.962 881.122, 752.050 881.308, 751.500 881.491 M 241.250 884.731 C 239.593 885.309, 239.649 889.464, 241.332 890.861 C 242.315 891.676, 243.134 891.623, 244.455 890.657 C 247.476 888.448, 244.797 883.494, 241.250 884.731 M 836.200 886.200 C 834.469 887.931, 834.723 889.781, 836.847 890.918 C 839.152 892.152, 841 890.542, 841 887.300 C 841 884.757, 838.269 884.131, 836.200 886.200 M 349 891.500 C 348.015 892.686, 348.012 893.309, 348.983 894.479 C 350.596 896.423, 354 894.717, 354 891.965 C 354 889.593, 350.828 889.298, 349 891.500 M 727.306 891.645 C 726.729 893.148, 729.204 896, 731.084 896 C 732.188 896, 732.996 893.154, 732.362 891.500 C 731.589 889.488, 728.096 889.587, 727.306 891.645 M 219.333 905.667 C 219.700 906.033, 220.300 906.033, 220.667 905.667 C 221.033 905.300, 220.733 905, 220 905 C 219.267 905, 218.967 905.300, 219.333 905.667 M 313.500 914 C 313.160 914.550, 313.584 915, 314.441 915 C 315.298 915, 316 914.550, 316 914 C 316 913.450, 315.577 913, 315.059 913 C 314.541 913, 313.840 913.450, 313.500 914 M 766 914 C 766 914.550, 766.477 915, 767.059 915 C 767.641 915, 767.840 914.550, 767.500 914 C 767.160 913.450, 766.684 913, 766.441 913 C 766.198 913, 766 913.450, 766 914 M 377 915.500 C 377 915.775, 377.225 916, 377.500 916 C 377.775 916, 378 915.775, 378 915.500 C 378 915.225, 377.775 915, 377.500 915 C 377.225 915, 377 915.225, 377 915.500 M 703 915.500 C 703 915.775, 703.225 916, 703.500 916 C 703.775 916, 704 915.775, 704 915.500 C 704 915.225, 703.775 915, 703.500 915 C 703.225 915, 703 915.225, 703 915.500 M 413.500 917 C 413.160 917.550, 413.610 918, 414.500 918 C 415.390 918, 415.840 917.550, 415.500 917 C 415.160 916.450, 414.710 916, 414.500 916 C 414.290 916, 413.840 916.450, 413.500 917 M 665.500 917 C 665.160 917.550, 665.584 918, 666.441 918 C 667.298 918, 668 917.550, 668 917 C 668 916.450, 667.577 916, 667.059 916 C 666.541 916, 665.840 916.450, 665.500 917 M 478 938.500 C 478 938.775, 478.225 939, 478.500 939 C 478.775 939, 479 938.775, 479 938.500 C 479 938.225, 478.775 938, 478.500 938 C 478.225 938, 478 938.225, 478 938.500 M 483 943 C 483 943.733, 483.300 944.033, 483.667 943.667 C 484.033 943.300, 484.033 942.700, 483.667 942.333 C 483.300 941.967, 483 942.267, 483 943 M 485 945.500 C 485 945.775, 485.225 946, 485.500 946 C 485.775 946, 486 945.775, 486 945.500 C 486 945.225, 485.775 945, 485.500 945 C 485.225 945, 485 945.225, 485 945.500 M 236.015 952.028 C 236.612 953.143, 237.550 953.778, 238.099 953.439 C 238.743 953.041, 238.681 952.321, 237.926 951.411 C 236.155 949.277, 234.780 949.721, 236.015 952.028 M 280 981 C 280 981.733, 280.300 982.033, 280.667 981.667 C 281.033 981.300, 281.033 980.700, 280.667 980.333 C 280.300 979.967, 280 980.267, 280 981 M 800 981 C 800 981.733, 800.300 982.033, 800.667 981.667 C 801.033 981.300, 801.033 980.700, 800.667 980.333 C 800.300 979.967, 800 980.267, 800 981 M 769 985.703 C 769 988.278, 771.699 990.701, 773.056 989.344 C 773.683 988.717, 773.138 987.539, 771.513 986.012 C 769.079 983.726, 769 983.716, 769 985.703 M 309.200 986.200 C 307.844 987.556, 307.586 990, 308.800 990 C 310.046 990, 312 987.741, 312 986.300 C 312 984.674, 310.770 984.630, 309.200 986.200 M 552 1011.559 C 552 1012.416, 552.450 1012.840, 553 1012.500 C 553.550 1012.160, 554 1011.459, 554 1010.941 C 554 1010.423, 553.550 1010, 553 1010 C 552.450 1010, 552 1010.702, 552 1011.559 M 527.500 1012 C 527.840 1012.550, 528.316 1013, 528.559 1013 C 528.802 1013, 529 1012.550, 529 1012 C 529 1011.450, 528.523 1011, 527.941 1011 C 527.359 1011, 527.160 1011.450, 527.500 1012 M 308 1014 C 308 1014.550, 308.675 1015, 309.500 1015 C 310.325 1015, 311 1014.550, 311 1014 C 311 1013.450, 310.325 1013, 309.500 1013 C 308.675 1013, 308 1013.450, 308 1014 M 770 1014 C 770 1014.550, 770.675 1015, 771.500 1015 C 772.325 1015, 773 1014.550, 773 1014 C 773 1013.450, 772.325 1013, 771.500 1013 C 770.675 1013, 770 1013.450, 770 1014 M 544 1018.035 C 543.175 1018.588, 540.285 1018.941, 537.578 1018.820 C 533.936 1018.657, 532.387 1019.025, 531.624 1020.235 C 530.471 1022.061, 531.267 1024.011, 536.775 1032.855 C 540.074 1038.153, 540.132 1038.191, 542.175 1036.355 C 544.283 1034.462, 550 1023.592, 550 1021.478 C 550 1020.397, 546.878 1016.981, 545.921 1017.015 C 545.690 1017.024, 544.825 1017.483, 544 1018.035" stroke="none" fill="#000000" fill-rule="evenodd"/>
</svg>