<svg xmlns="http://www.w3.org/2000/svg" width="499" height="499" viewBox="0 0 499 499" version="1.1">
	<path d="M 170 2.555 C 165.875 3.862, 161.752 5.847, 160.838 6.967 C 159.924 8.088, 158.530 8.757, 157.740 8.454 C 156.082 7.818, 142.409 17.747, 136.635 23.781 C 134.413 26.103, 133.073 28.310, 133.483 28.973 C 133.875 29.607, 133.397 31.008, 132.422 32.087 C 131.192 33.446, 130.429 33.695, 129.937 32.898 C 129.492 32.178, 127.503 33.944, 124.614 37.624 C 122.077 40.856, 120.001 43.837, 120.001 44.250 C 120 44.663, 119.325 45, 118.500 45 C 117.675 45, 117 45.364, 117 45.809 C 117 46.254, 116.422 47.408, 115.716 48.374 C 114.549 49.970, 114.117 49.691, 110.977 45.315 C 109.077 42.667, 105.658 38.209, 103.379 35.409 C 101.100 32.608, 98.907 29.233, 98.505 27.909 C 97.657 25.110, 94.116 21.103, 88.611 16.713 C 85.460 14.200, 84.938 14.015, 85.861 15.740 C 87.267 18.367, 87.356 23, 86 23 C 85.450 23, 85 22.290, 85 21.423 C 85 18.805, 79.972 14.620, 71 9.771 C 63.259 5.588, 49.262 0.404, 48.302 1.365 C 48.085 1.582, 50.741 3.802, 54.204 6.299 C 57.667 8.796, 62.686 12.789, 65.358 15.170 L 70.216 19.501 72.586 40.501 C 73.889 52.050, 75.852 68.700, 76.948 77.500 C 82.572 122.668, 82.857 132.966, 78.529 134.627 C 77.710 134.941, 73.452 133.129, 69.067 130.599 C 60.622 125.728, 60 125.475, 60 126.905 C 60 127.403, 63.600 129.920, 68 132.500 C 72.399 135.079, 76.199 137.512, 76.443 137.907 C 76.687 138.302, 75.996 139.947, 74.909 141.562 C 65.636 155.338, 55.779 179.107, 50.082 201.428 C 47.475 211.647, 47.040 217.673, 49.324 211.939 C 51.876 205.532, 62.809 184.665, 67.250 177.725 C 72.319 169.802, 74.293 168, 77.901 168 C 80.587 168, 87 174.489, 87 177.208 C 87 179.340, 86.990 179.339, 84.500 177 L 82 174.651 82 178.626 C 82 180.812, 82.540 183.140, 83.200 183.800 C 84.133 184.733, 84.133 185.267, 83.200 186.200 C 81.749 187.651, 81.599 192, 83 192 C 83.550 192, 83.309 192.787, 82.463 193.750 C 81.618 194.713, 79.362 197.649, 77.450 200.276 C 74.703 204.050, 74.283 205.171, 75.448 205.619 C 77.240 206.306, 88 218.761, 88 220.147 C 88 220.693, 87.067 220.839, 85.915 220.473 C 84.111 219.900, 83.855 220.195, 84.021 222.656 C 84.126 224.220, 84.164 226.816, 84.106 228.424 L 84 231.349 81.500 229 C 80.125 227.708, 79.008 227.067, 79.017 227.576 C 79.051 229.382, 82.757 242.797, 83.592 244.137 C 85.238 246.777, 85.025 249.488, 82.546 257.455 C 81.169 261.880, 79.777 267.075, 79.451 269 L 78.860 272.500 81.217 269.750 C 82.514 268.238, 83.958 267, 84.426 267 C 84.893 267, 84.977 269.925, 84.610 273.500 C 83.952 279.920, 84.458 281.142, 86.800 278.800 C 87.733 277.867, 88 277.970, 88 279.267 C 88 280.924, 80.584 290.048, 76.759 293.096 C 74.781 294.672, 74.802 294.761, 78.378 299.959 C 80.682 303.308, 82 306.384, 82 308.412 C 82 310.165, 82.551 312.151, 83.225 312.825 C 84.192 313.792, 84.192 314.464, 83.225 316.011 C 81.935 318.077, 81.524 324, 82.671 324 C 83.040 324, 84.165 323.255, 85.171 322.345 C 86.884 320.795, 87 320.815, 87 322.649 C 87 324.641, 81.730 330.290, 79 331.224 C 75.804 332.318, 72.799 329.758, 67.330 321.281 C 64.213 316.452, 58.589 306.206, 54.832 298.512 C 47.619 283.745, 46.799 283.431, 49.968 296.652 C 55.693 320.529, 67.723 348.240, 76.987 358.892 C 82.934 365.729, 82.812 364.384, 79.990 391.937 C 78.896 402.628, 78.045 412.753, 78.100 414.437 L 78.201 417.500 79.010 414 C 79.454 412.075, 80.813 401.725, 82.030 391 C 83.246 380.275, 84.449 371.276, 84.702 371.002 C 85.489 370.152, 87.907 374.136, 89.999 379.728 C 91.821 384.595, 92 387.520, 92 412.338 C 92 431.351, 91.656 439.944, 90.864 440.736 C 90.017 441.583, 90.144 442.286, 91.364 443.507 C 92.264 444.407, 93 445.347, 93 445.596 C 93 446.415, 86.129 459.427, 83.943 462.750 C 82.766 464.538, 82.298 466, 82.902 466 C 83.506 466, 84 466.480, 84 467.067 C 84 467.674, 83.150 467.865, 82.033 467.511 C 80.545 467.038, 79.921 467.448, 79.468 469.193 C 78.853 471.557, 74.289 475.623, 73.328 474.661 C 73.034 474.367, 74.165 461.835, 75.841 446.813 C 77.518 431.791, 78.521 419.129, 78.070 418.675 C 77.082 417.681, 76.691 420.225, 73.483 448.500 C 72.110 460.600, 70.705 472.652, 70.361 475.282 C 69.796 479.591, 69.128 480.588, 63.617 485.357 C 60.253 488.268, 55.363 492.154, 52.752 493.993 C 50.140 495.832, 48.204 497.537, 48.449 497.782 C 49.515 498.848, 64.183 493.446, 71.500 489.292 C 80.796 484.014, 84 481.346, 84 478.885 C 84 477.913, 84.453 476.838, 85.007 476.496 C 86.636 475.489, 87.417 479.056, 86.247 482.156 L 85.167 485.017 87.930 483.050 C 91.833 480.271, 97.666 473.627, 98.494 471.018 C 99.243 468.659, 113.659 449.726, 115.133 449.164 C 115.619 448.979, 116.293 450.217, 116.633 451.914 C 116.972 453.611, 117.838 455, 118.557 455 C 119.276 455, 120.867 456.462, 122.093 458.250 C 125.738 463.564, 129.148 466.880, 130.455 466.379 C 132.062 465.762, 134.371 468.591, 133.696 470.350 C 132.522 473.409, 154.322 491.552, 158.750 491.201 C 160.064 491.097, 161 491.586, 161 492.377 C 161 493.122, 163.621 494.688, 166.826 495.856 C 173.080 498.137, 179 499.552, 179 498.767 C 179 498.502, 176.404 496.682, 173.231 494.723 C 167.855 491.405, 163.087 486.674, 154.605 476.240 C 151.881 472.889, 151.006 470.755, 150.509 466.240 C 149.548 457.510, 149.540 457.480, 148.486 457.786 C 147.944 457.944, 147.654 459.683, 147.841 461.652 C 148.070 464.052, 147.823 465.009, 147.091 464.556 C 146.491 464.185, 145.999 462.896, 145.997 461.691 C 145.993 458.685, 140.177 446.835, 140.077 449.628 C 140.035 450.798, 139.325 452.315, 138.500 453 C 137.675 453.685, 137 454.865, 137 455.622 C 137 456.380, 136.419 457, 135.708 457 C 134.128 457, 133.936 442.915, 135.500 441.765 C 136.050 441.361, 138.585 441.024, 141.134 441.015 L 145.767 441 146.463 447.500 C 146.846 451.075, 147.619 454, 148.181 454 C 148.845 454, 148.961 451.586, 148.511 447.107 L 147.819 440.215 151.659 438.963 C 153.772 438.274, 155.831 437.213, 156.235 436.605 C 156.739 435.847, 156.974 435.906, 156.985 436.795 C 157.001 438.179, 157.737 438.108, 172 435.346 C 182.473 433.318, 183 433.107, 183 430.933 C 183 428.424, 184.686 428.435, 185.484 430.950 C 186.114 432.933, 184.321 437.240, 180.757 442.308 C 178.032 446.182, 179.262 446.800, 183.406 443.639 C 185.309 442.188, 187.263 441, 187.748 441 C 188.232 441, 191.887 438.257, 195.869 434.905 C 201.510 430.157, 203.615 428.938, 205.398 429.385 C 206.656 429.701, 211.919 434.547, 217.093 440.154 L 226.500 450.350 226.550 458.925 C 226.578 463.641, 226.969 468.587, 227.420 469.917 C 228.233 472.311, 228.255 472.301, 229.809 468.917 L 231.377 465.500 231.768 468.390 C 232.288 472.226, 237.951 480.325, 243.576 485.276 C 246.070 487.471, 247.902 489.812, 247.647 490.478 C 247.337 491.286, 247.981 491.535, 249.591 491.227 C 250.916 490.974, 252 490.257, 252 489.633 C 252 489.010, 253.596 487.227, 255.547 485.670 C 257.497 484.114, 261.110 480.069, 263.574 476.683 C 267.328 471.523, 267.948 470.040, 267.397 467.532 C 266.808 464.848, 266.908 464.679, 268.370 465.892 C 269.266 466.636, 270 468.090, 270 469.122 C 270 470.155, 270.398 471, 270.883 471 C 272.302 471, 272.972 467.060, 272.986 458.632 L 273 450.765 280.250 442.680 C 293.935 427.418, 295.385 426.707, 301 432.500 C 302.866 434.425, 305.991 437.047, 307.946 438.327 C 309.901 439.606, 313.421 441.923, 315.768 443.475 C 318.116 445.027, 320.265 446.068, 320.545 445.789 C 320.824 445.509, 319.466 442.922, 317.527 440.040 C 314.122 434.981, 313.045 430.708, 314.886 429.570 C 315.374 429.269, 315.997 429.882, 316.272 430.933 C 316.845 433.124, 320.356 434.277, 333.405 436.558 C 340.697 437.833, 342.461 437.879, 343.140 436.808 C 343.774 435.809, 343.973 435.795, 343.985 436.750 C 343.993 437.437, 344.337 437.927, 344.750 437.839 C 345.163 437.750, 346.738 438.189, 348.250 438.814 C 350.884 439.903, 351 440.249, 351 447.034 C 351 451.502, 351.369 453.890, 352 453.500 C 352.550 453.160, 353 451.615, 353 450.066 C 353 448.517, 353.281 445.844, 353.625 444.125 C 354.198 441.259, 354.577 441, 358.191 441 C 363.499 441, 366.314 442.544, 365.110 444.795 C 364.126 446.633, 364.290 452.624, 365.354 453.687 C 366.563 454.897, 366.005 457, 364.475 457 C 363.637 457, 362.523 455.875, 362 454.500 C 361.477 453.125, 360.558 452, 359.957 452 C 359.320 452, 359.130 451.167, 359.500 450 C 359.849 448.900, 359.891 448, 359.593 448 C 358.687 448, 355.768 454.179, 353.925 460 L 352.182 465.500 352.091 461.250 C 351.950 454.654, 350.314 456.241, 349.514 463.750 C 348.698 471.405, 348.429 472.050, 343.526 478.104 C 337.778 485.202, 330.854 491.814, 325.601 495.222 C 322.906 496.970, 321.217 498.572, 321.848 498.783 C 323.713 499.404, 336.084 494.916, 338.122 492.878 C 339.155 491.845, 340.836 491, 341.857 491 C 343.998 491, 355.514 482.716, 361.750 476.690 C 364.087 474.432, 366 471.642, 366 470.492 C 366 467.930, 367.792 465.983, 369.535 466.652 C 370.270 466.934, 372.263 465.138, 374.163 462.483 C 375.998 459.918, 378.737 456.443, 380.250 454.761 C 381.762 453.079, 383 451.320, 383 450.852 C 383 448.779, 385.712 450.326, 388 453.705 C 389.375 455.735, 392.443 459.789, 394.818 462.714 C 397.193 465.639, 400.343 470.318, 401.818 473.112 C 403.438 476.179, 406.354 479.557, 409.180 481.639 L 413.859 485.087 412.766 482.191 C 412.165 480.598, 412.025 478.441, 412.457 477.397 C 413.149 475.722, 413.399 475.872, 414.594 478.679 C 416.144 482.318, 419.757 485.228, 429 490.283 C 435.321 493.739, 449.634 498.700, 450.573 497.760 C 450.830 497.503, 449.249 496.107, 447.060 494.658 C 444.871 493.210, 439.974 489.352, 436.179 486.085 C 428.204 479.222, 429.197 482.592, 425.555 450 C 422.239 420.320, 421.856 417.744, 420.906 418.694 C 420.462 419.138, 421.455 431.810, 423.111 446.855 C 424.768 461.900, 425.902 474.431, 425.630 474.703 C 424.824 475.509, 420.220 471.679, 419.099 469.270 C 418.439 467.853, 417.503 467.254, 416.530 467.627 C 415.689 467.950, 415 467.753, 415 467.190 C 415 466.627, 415.425 466.017, 415.945 465.833 C 416.465 465.650, 414.902 462.350, 412.471 458.500 C 407.886 451.238, 406.328 446.896, 407.582 444.867 C 407.984 444.217, 408.210 432.512, 408.085 418.856 C 407.858 394.074, 408.740 384.821, 412.195 375.750 C 413.145 373.257, 415.020 371.913, 414.986 373.750 C 414.957 375.346, 419.149 412.628, 419.610 414.868 C 419.878 416.170, 420.357 416.976, 420.674 416.659 C 420.992 416.341, 420.201 405.247, 418.918 392.005 C 416.279 364.780, 416.123 365.879, 423.869 357.147 C 429.610 350.676, 438.253 333.078, 443.341 317.500 C 448.451 301.853, 452.282 287.346, 451.737 285.710 C 451.539 285.117, 448.599 290.378, 445.204 297.401 C 438.595 311.072, 430.473 325.085, 427.034 328.750 C 423.771 332.226, 419.429 331.734, 415.368 327.429 C 413.516 325.465, 412.024 322.877, 412.052 321.679 L 412.105 319.500 413.674 321.750 C 414.538 322.988, 415.639 324, 416.122 324 C 417.385 324, 417.207 316.607, 415.913 315.313 C 415.130 314.530, 415.130 314.038, 415.913 313.554 C 417.387 312.643, 417.288 308.711, 415.750 307.053 C 414.730 305.953, 414.821 305.819, 416.250 306.321 C 417.373 306.717, 418 306.439, 418 305.545 C 418 304.780, 419.569 302.098, 421.487 299.585 L 424.974 295.017 420.619 291.003 C 415.557 286.337, 410.405 279.262, 411.368 278.299 C 411.734 277.933, 412.566 278.166, 413.217 278.817 C 415.489 281.089, 415.965 279.955, 415.344 273.750 L 414.719 267.500 417.360 269.924 C 418.889 271.329, 420 271.814, 420 271.078 C 420 269.722, 417.659 261.097, 415.498 254.489 C 414.221 250.583, 414.474 245.520, 416.048 243.500 C 417.295 241.899, 420.876 227, 420.013 227 C 419.582 227, 418.493 228.125, 417.592 229.500 C 415.072 233.346, 414.400 232.533, 414.702 226 C 414.979 219.990, 414.442 218.958, 412.200 221.200 C 411.267 222.133, 411 222.042, 411 220.790 C 411 218.887, 417.709 210.161, 421.410 207.250 C 422.834 206.129, 424 204.985, 424 204.707 C 424 203.781, 416.820 193.512, 415.651 192.765 C 414.812 192.230, 414.839 192.026, 415.750 192.015 C 417.345 191.996, 417.381 187.781, 415.800 186.200 C 414.867 185.267, 414.867 184.733, 415.800 183.800 C 416.460 183.140, 417 180.812, 417 178.626 L 417 174.651 414.500 177 C 412.010 179.339, 412 179.340, 412 177.208 C 412 174.489, 418.413 168, 421.099 168 C 422.217 168, 423.956 168.441, 424.964 168.981 C 427.705 170.448, 437.007 185.750, 444.429 201 C 448.124 208.594, 450.999 213.479, 450.999 212.167 C 451.001 206.631, 446.783 193.732, 443.115 188.057 C 441.001 184.786, 436.870 177.361, 433.934 171.555 C 429.708 163.199, 428.159 161, 426.498 161 C 424.502 161, 422 159.316, 422 157.973 C 422 157.628, 423.320 157.540, 424.933 157.777 L 427.866 158.207 424.847 150.854 C 423.187 146.809, 420.728 140.482, 419.383 136.794 L 416.938 130.087 419.007 109.794 C 420.145 98.632, 422.159 80.725, 423.482 70 C 424.805 59.275, 426.660 43.750, 427.604 35.500 C 428.548 27.250, 429.930 19.600, 430.676 18.500 C 432.029 16.504, 435.404 13.755, 446.232 5.828 C 449.385 3.520, 451.810 1.477, 451.621 1.288 C 450.500 0.167, 433.066 7.006, 425.211 11.648 C 417.546 16.179, 415.820 17.650, 415.336 20.069 C 415.014 21.681, 414.342 23, 413.844 23 C 412.013 23, 411.702 19.585, 413.282 16.832 C 414.176 15.274, 414.639 14, 414.311 14 C 412.361 14, 403.087 23.486, 401.440 27.165 C 400.373 29.549, 396.463 35.295, 392.750 39.932 C 389.038 44.570, 386 48.733, 386 49.182 C 386 51.170, 382.976 49.752, 382.411 47.500 C 382.066 46.125, 381.217 45, 380.524 45 C 379.832 45, 378.023 43.087, 376.505 40.750 C 372.755 34.977, 369.890 31.950, 368.811 32.617 C 367.376 33.504, 364.904 30.877, 365.477 29.074 C 366.527 25.766, 344.491 7.392, 340.857 8.545 C 339.754 8.895, 338.730 8.364, 338.046 7.085 C 336.984 5.101, 322.088 -0.453, 321 0.730 C 320.725 1.029, 321.072 1.478, 321.771 1.727 C 324.203 2.595, 334.517 10.956, 337.179 14.217 C 338.652 16.023, 341.650 19.619, 343.840 22.208 C 347.808 26.899, 348.309 28.233, 349.497 37.250 C 349.841 39.862, 350.595 42, 351.173 42 C 351.831 42, 351.978 40.695, 351.566 38.500 C 351.196 36.529, 351.318 35, 351.843 35 C 352.357 35, 353.090 36.666, 353.472 38.702 C 354.393 43.611, 359 52.395, 359 49.242 C 359 48.009, 359.461 47, 360.025 47 C 360.588 47, 361.477 45.875, 362 44.500 C 362.523 43.125, 363.385 42, 363.916 42 C 365.410 42, 366.208 43.861, 365.309 45.250 C 364.864 45.938, 364.500 48.969, 364.500 51.987 L 364.500 57.474 359.564 58.181 C 353.649 59.028, 353 58.719, 353 55.066 C 353 51.076, 351.885 46, 351.009 46 C 350.601 46, 350.492 49.150, 350.768 53 C 351.223 59.360, 351.096 60.003, 349.384 60.032 C 348.348 60.049, 346.640 60.715, 345.588 61.510 C 344.537 62.306, 342.685 62.708, 341.472 62.404 C 339.267 61.850, 322.490 64.528, 318.250 66.111 C 317.012 66.573, 316 67.637, 316 68.475 C 316 70.467, 314.383 70.440, 313.614 68.437 C 312.992 66.815, 314.833 62.541, 318.243 57.692 C 320.749 54.130, 319.871 53.188, 316.281 55.590 C 314.752 56.613, 312.267 58.137, 310.761 58.975 C 309.255 59.814, 305.314 62.892, 302.004 65.815 C 297.816 69.514, 295.432 70.955, 294.165 70.552 C 292.373 69.983, 288.481 66.181, 277.891 54.648 L 272.517 48.796 272.501 39.648 C 272.482 28.795, 271.454 26.154, 269.183 31.124 L 267.640 34.500 267.070 31 C 266.372 26.715, 261.307 19.246, 255.420 13.819 C 253.003 11.591, 251.236 9.427, 251.494 9.009 C 251.752 8.592, 250.847 8.250, 249.482 8.250 C 248.117 8.250, 247 8.816, 247 9.509 C 247 10.201, 245.110 12.474, 242.801 14.561 C 236.876 19.914, 231.689 27.778, 231.788 31.258 C 231.856 33.650, 231.627 33.936, 230.435 32.946 C 229.646 32.291, 229 30.820, 229 29.678 C 229 28.016, 228.750 27.850, 227.750 28.849 C 226.945 29.654, 226.460 33.453, 226.386 39.510 L 226.273 48.921 216.550 59.420 C 211.203 65.195, 205.966 70.193, 204.913 70.528 C 203.544 70.962, 201.359 69.734, 197.249 66.219 C 190.568 60.505, 180.147 53.520, 179.407 54.260 C 179.127 54.540, 180.271 56.934, 181.949 59.580 C 184.905 64.242, 186.039 70, 184 70 C 183.450 70, 183 69.352, 183 68.559 C 183 67.766, 182.547 66.838, 181.994 66.496 C 179.972 65.246, 157.059 61.322, 156.775 62.176 C 156.613 62.661, 154.539 62.257, 152.165 61.278 L 147.849 59.500 148.207 52.750 C 148.561 46.074, 147.798 43.894, 146.630 48.250 C 146.299 49.487, 146.021 52.161, 146.014 54.191 C 146.006 56.221, 145.634 58.108, 145.186 58.385 C 144.739 58.661, 142.152 58.569, 139.436 58.181 L 134.500 57.474 134.500 51.987 C 134.500 48.969, 134.136 45.938, 133.691 45.250 C 132.790 43.858, 133.591 42, 135.090 42 C 135.625 42, 136.350 42.788, 136.702 43.750 C 137.053 44.712, 138.082 46.470, 138.989 47.655 L 140.638 49.809 141.995 47.655 C 142.742 46.470, 144.149 43.025, 145.123 40 C 146.874 34.557, 146.893 34.539, 146.946 38.250 C 147.029 44.045, 148.779 42.680, 149.510 36.250 C 150.420 28.250, 150.671 27.590, 154.643 22.773 C 165.117 10.071, 166.968 8.360, 177.917 1.270 C 178.146 1.121, 178.146 0.816, 177.917 0.590 C 177.688 0.365, 174.125 1.249, 170 2.555 M 248.238 13.261 C 246.039 16.018, 244.189 20.688, 244.864 21.780 C 245.934 23.512, 253.428 22.595, 253.810 20.685 C 254.140 19.038, 251.621 13.502, 250.120 12.574 C 249.629 12.271, 248.782 12.580, 248.238 13.261 M 139 24 C 139 24.550, 139.477 25, 140.059 25 C 140.641 25, 140.840 24.550, 140.500 24 C 140.160 23.450, 139.684 23, 139.441 23 C 139.198 23, 139 23.450, 139 24 M 358.500 24 C 358.160 24.550, 358.359 25, 358.941 25 C 359.523 25, 360 24.550, 360 24 C 360 23.450, 359.802 23, 359.559 23 C 359.316 23, 358.840 23.450, 358.500 24 M 73.448 28.250 C 74.180 33.698, 77.872 66.910, 78.980 78 C 80.598 94.203, 84.095 123.507, 84.579 124.917 C 85.529 127.685, 87.133 124.297, 89.071 115.430 C 91.229 105.554, 91.667 92.389, 89.857 91.786 C 89.009 91.503, 89.025 90.821, 89.919 89.151 C 90.739 87.620, 91.060 81.957, 90.923 71.470 C 90.779 60.496, 91.074 55.615, 91.946 54.564 C 92.941 53.366, 92.571 51.899, 89.986 46.794 C 88.234 43.332, 85.270 38.361, 83.400 35.748 C 81.530 33.134, 80 30.525, 80 29.950 C 80 28.794, 74.974 24.082, 73.689 24.032 C 73.243 24.014, 73.134 25.913, 73.448 28.250 M 422.750 26.369 C 421.238 27.583, 420 28.864, 420 29.217 C 420 29.570, 418.262 32.478, 416.137 35.679 C 414.013 38.881, 410.889 44.249, 409.194 47.609 C 406.378 53.194, 406.241 53.900, 407.601 55.841 C 408.710 57.424, 408.823 58.463, 408.045 59.917 C 407.414 61.096, 407 70.185, 407 82.871 C 407 101.765, 407.247 104.893, 409.461 114.037 C 411.632 123.002, 413.571 127.762, 414.625 126.709 C 415.023 126.310, 419.944 87.023, 420.600 79 C 420.847 75.975, 422.192 63.478, 423.589 51.228 C 424.986 38.979, 425.987 27.878, 425.814 26.560 L 425.500 24.164 422.750 26.369 M 242.500 26 C 242.160 26.550, 242.332 27, 242.882 27 C 243.432 27, 244.160 26.550, 244.500 26 C 244.840 25.450, 244.668 25, 244.118 25 C 243.568 25, 242.840 25.450, 242.500 26 M 255 25.500 C 255 25.775, 255.225 26, 255.500 26 C 255.775 26, 256 25.775, 256 25.500 C 256 25.225, 255.775 25, 255.500 25 C 255.225 25, 255 25.225, 255 25.500 M 92 30.059 C 92 30.641, 92.450 30.840, 93 30.500 C 93.550 30.160, 94 29.684, 94 29.441 C 94 29.198, 93.550 29, 93 29 C 92.450 29, 92 29.477, 92 30.059 M 406 30 C 406 30.550, 406.450 31, 407 31 C 407.550 31, 408 30.550, 408 30 C 408 29.450, 407.550 29, 407 29 C 406.450 29, 406 29.450, 406 30 M 82 32 C 82 32.550, 82.450 33, 83 33 C 83.550 33, 84 32.550, 84 32 C 84 31.450, 83.550 31, 83 31 C 82.450 31, 82 31.450, 82 32 M 415 32 C 415 32.550, 415.450 33, 416 33 C 416.550 33, 417 32.550, 417 32 C 417 31.450, 416.550 31, 416 31 C 415.450 31, 415 31.450, 415 32 M 138.629 35.791 C 137.904 36.964, 140.756 39.578, 141.715 38.619 C 142.081 38.252, 141.673 37.245, 140.809 36.380 C 139.874 35.445, 138.991 35.206, 138.629 35.791 M 357.971 36.535 C 356.234 38.628, 357.682 39.746, 359.620 37.809 C 360.555 36.874, 360.794 35.991, 360.209 35.629 C 359.669 35.295, 358.662 35.703, 357.971 36.535 M 125 40 C 125 40.550, 125.450 41, 126 41 C 126.550 41, 127 40.550, 127 40 C 127 39.450, 126.550 39, 126 39 C 125.450 39, 125 39.450, 125 40 M 372 40 C 372 40.550, 372.450 41, 373 41 C 373.550 41, 374 40.550, 374 40 C 374 39.450, 373.550 39, 373 39 C 372.450 39, 372 39.450, 372 40 M 98.496 51.007 C 97.932 51.919, 101.820 56.513, 102.544 55.790 C 102.751 55.582, 102.669 54.451, 102.362 53.276 C 101.749 50.931, 99.396 49.551, 98.496 51.007 M 109 50.882 C 109 51.432, 109.450 52.160, 110 52.500 C 110.550 52.840, 111 52.668, 111 52.118 C 111 51.568, 110.550 50.840, 110 50.500 C 109.450 50.160, 109 50.332, 109 50.882 M 389 51.559 C 389 52.416, 389.457 52.835, 390.016 52.490 C 390.575 52.144, 390.774 51.443, 390.457 50.931 C 389.600 49.544, 389 49.802, 389 51.559 M 398.250 50.667 C 397.563 50.942, 397.036 52.142, 397.079 53.333 C 397.122 54.525, 397.385 54.938, 397.662 54.250 C 397.940 53.563, 399.067 53, 400.167 53 C 401.267 53, 401.989 52.466, 401.771 51.813 C 401.302 50.406, 399.979 49.975, 398.250 50.667 M 275 56.812 C 275 57.259, 276.462 58.677, 278.250 59.963 L 281.500 62.303 278.563 59.151 C 275.450 55.811, 275 55.516, 275 56.812 M 148 63 C 148 63.550, 148.450 64, 149 64 C 149.550 64, 150 63.550, 150 63 C 150 62.450, 149.550 62, 149 62 C 148.450 62, 148 62.450, 148 63 M 349 63 C 349 63.550, 349.450 64, 350 64 C 350.550 64, 351 63.550, 351 63 C 351 62.450, 350.550 62, 350 62 C 349.450 62, 349 62.450, 349 63 M 189 70 C 189 70.550, 189.477 71, 190.059 71 C 190.641 71, 190.840 70.550, 190.500 70 C 190.160 69.450, 189.684 69, 189.441 69 C 189.198 69, 189 69.450, 189 70 M 308.500 70 C 308.160 70.550, 308.359 71, 308.941 71 C 309.523 71, 310 70.550, 310 70 C 310 69.450, 309.802 69, 309.559 69 C 309.316 69, 308.840 69.450, 308.500 70 M 171.500 71 C 171.160 71.550, 171.359 72, 171.941 72 C 172.523 72, 173 71.550, 173 71 C 173 70.450, 172.802 70, 172.559 70 C 172.316 70, 171.840 70.450, 171.500 71 M 326 71 C 326 71.733, 326.300 72.033, 326.667 71.667 C 327.033 71.300, 327.033 70.700, 326.667 70.333 C 326.300 69.967, 326 70.267, 326 71 M 141 72 C 141 72.550, 141.450 73, 142 73 C 142.550 73, 143 72.550, 143 72 C 143 71.450, 142.550 71, 142 71 C 141.450 71, 141 71.450, 141 72 M 356 72.059 C 356 72.641, 356.450 72.840, 357 72.500 C 357.550 72.160, 358 71.684, 358 71.441 C 358 71.198, 357.550 71, 357 71 C 356.450 71, 356 71.477, 356 72.059 M 158 81.441 C 158 83.184, 159.640 84.341, 160.956 83.527 C 162.287 82.704, 161.089 80, 159.393 80 C 158.627 80, 158 80.648, 158 81.441 M 337.446 81.087 C 336.573 82.499, 338.501 84.427, 339.913 83.554 C 341.499 82.574, 341.243 80, 339.559 80 C 338.766 80, 337.816 80.489, 337.446 81.087 M 130 85.928 C 130 88.305, 131.146 90.311, 134.637 94.043 C 137.187 96.769, 139.825 99, 140.499 99 C 141.915 99, 143.556 86.135, 142.294 84.929 C 141.857 84.512, 138.912 83.855, 135.750 83.470 L 130 82.770 130 85.928 M 360.500 83.727 C 358.850 83.962, 357.114 84.528, 356.641 84.986 C 355.325 86.261, 356.969 98.167, 358.412 97.803 C 360.278 97.333, 370 86.163, 370 84.489 C 370 82.980, 367.281 82.761, 360.500 83.727 M 145.702 84.632 C 144.075 86.259, 145.138 87.999, 147.750 87.985 C 150.511 87.969, 153.852 86.489, 152.971 85.671 C 151.993 84.763, 146.374 83.959, 145.702 84.632 M 349 84.658 C 348.175 84.933, 346.838 85.372, 346.028 85.633 C 344.732 86.051, 344.732 86.219, 346.028 87.038 C 347.731 88.115, 352.359 88.308, 353.325 87.342 C 354.019 86.647, 352.199 83.944, 351.128 84.079 C 350.782 84.122, 349.825 84.383, 349 84.658 M 176.196 88.264 C 175.301 89.342, 175.277 90.495, 176.098 92.852 C 177.355 96.456, 178.943 96.826, 181.418 94.091 C 183.065 92.271, 183.046 92.149, 181.008 91.503 C 179.832 91.129, 178.538 89.924, 178.131 88.824 C 177.500 87.120, 177.214 87.037, 176.196 88.264 M 321 88.462 C 321 89.332, 319.872 90.557, 318.493 91.185 C 316.133 92.260, 316.084 92.435, 317.648 94.164 C 319.689 96.419, 321.586 96.521, 322.393 94.418 C 323.328 91.981, 323.113 88.188, 322 87.500 C 321.450 87.160, 321 87.593, 321 88.462 M 148.750 89.716 C 145.403 90.223, 144.454 91.921, 143.681 98.781 C 143.073 104.182, 143.549 107, 145.068 107 C 146.483 107, 148.047 99.509, 147.390 95.885 L 146.775 92.500 152.043 97.874 L 157.312 103.248 164.829 102.566 C 176.124 101.543, 179.234 99.191, 172.250 96.954 C 170.188 96.293, 165.966 94.233, 162.869 92.376 C 157.449 89.126, 155.308 88.723, 148.750 89.716 M 336.500 91.999 C 334.300 93.603, 330.363 95.646, 327.750 96.538 C 319.651 99.305, 321.981 101.509, 334.056 102.501 L 342.613 103.204 347.668 97.673 L 352.723 92.142 352.611 97.321 C 352.481 103.387, 354.350 105.335, 354.818 99.621 C 355.317 93.537, 353.516 90.347, 349.178 89.630 C 342.835 88.581, 340.619 88.995, 336.500 91.999 M 330 105.986 C 330 107.473, 335.115 113, 336.491 113 C 338.312 113, 340.362 107.042, 338.714 106.540 C 335.529 105.571, 330 105.219, 330 105.986 M 160 106.935 C 160 107.449, 160.451 109.057, 161.003 110.508 L 162.006 113.147 164.935 110.823 C 169.651 107.082, 169.546 106, 164.469 106 C 162.011 106, 160 106.421, 160 106.935 M 330 110.651 C 330 111.201, 331.125 112.708, 332.500 114 C 333.875 115.292, 335 115.899, 335 115.349 C 335 114.799, 333.875 113.292, 332.500 112 C 331.125 110.708, 330 110.101, 330 110.651 M 81.500 147 C 81.840 147.550, 82.568 148, 83.118 148 C 83.668 148, 83.840 147.550, 83.500 147 C 83.160 146.450, 82.432 146, 81.882 146 C 81.332 146, 81.160 146.450, 81.500 147 M 416 147.059 C 416 147.641, 416.450 147.840, 417 147.500 C 417.550 147.160, 418 146.684, 418 146.441 C 418 146.198, 417.550 146, 417 146 C 416.450 146, 416 146.477, 416 147.059 M 113 188.461 L 113 229 121.961 229 L 130.922 229 131.211 220.250 L 131.500 211.500 135.973 220.250 L 140.446 229 149.291 229 L 158.135 229 147.983 209.160 L 137.830 189.320 147.863 169.274 C 153.381 158.249, 157.619 148.952, 157.281 148.614 C 156.943 148.276, 153.197 148, 148.956 148 L 141.246 148 136.373 157.510 L 131.500 167.020 131 157.760 L 130.500 148.500 121.750 148.211 L 113 147.922 113 188.461 M 162.857 148.476 C 162.555 148.779, 165.381 161.058, 169.138 175.763 C 175.880 202.149, 175.970 202.674, 175.985 215.750 L 176 229 184.500 229 L 193 229 193 216.335 C 193 204.055, 193.197 202.888, 199.500 177.925 C 203.075 163.765, 206 151.221, 206 150.049 C 206 148.024, 205.592 147.933, 197.750 148.210 L 189.500 148.500 187.436 159 C 186.301 164.775, 185.149 170.144, 184.876 170.932 C 184.602 171.719, 183.281 166.994, 181.939 160.432 L 179.500 148.500 171.454 148.213 C 167.028 148.055, 163.160 148.173, 162.857 148.476 M 214.196 151.298 L 211 154.595 211 189.610 L 211 224.624 213.960 226.812 C 216.712 228.847, 218.032 229, 232.825 229 C 247.459 229, 248.943 228.833, 251.395 226.904 C 254.052 224.814, 254.059 224.771, 253.780 212.654 L 253.500 200.500 247.542 200.194 C 237.567 199.681, 237 200.048, 237 207.019 L 237 213 232.500 213 L 228 213 228 189 L 228 165 232.452 165 L 236.905 165 237.202 171.250 L 237.500 177.500 245.750 177.790 L 254 178.081 254 165.790 L 254 153.500 250.553 150.750 C 247.142 148.028, 246.955 148, 232.250 148 L 217.392 148 214.196 151.298 M 259 188.500 L 259 229 267.500 229 L 276 229 276 213 L 276 197 280.500 197 L 285 197 285 213 L 285 229 293.511 229 L 302.023 229 301.761 188.750 L 301.500 148.500 293.250 148.210 L 285 147.919 285 164.460 L 285 181 280.500 181 L 276 181 276 166.082 C 276 157.877, 275.727 150.452, 275.393 149.582 C 274.910 148.324, 273.168 148, 266.893 148 L 259 148 259 188.500 M 306.667 148.667 C 306.300 149.033, 306 167.270, 306 189.193 L 306 229.052 321.250 228.776 L 336.500 228.500 336.800 222.163 C 337.187 213.982, 336.334 213, 328.837 213 L 322.919 213 323.210 204.750 L 323.500 196.500 329.750 196.202 L 336 195.905 336 188.500 L 336 181.095 329.750 180.798 L 323.500 180.500 323.500 173 L 323.500 165.500 330 165 L 336.500 164.500 336.806 158.542 C 337.375 147.475, 338.130 148, 321.648 148 C 313.775 148, 307.033 148.300, 306.667 148.667 M 341 188.500 L 341 229 349.500 229 L 358 229 358 213.500 L 358 198 362.500 198 L 367 198 367 213.500 L 367 229 376 229 L 385 229 385 211.655 C 385 195.580, 384.854 194.177, 383 192.500 C 381.900 191.505, 381 190.193, 381 189.586 C 381 188.978, 381.900 187.919, 383 187.232 C 384.863 186.069, 385 184.900, 385 170.159 L 385 154.335 381.059 151.167 L 377.117 148 359.059 148 L 341 148 341 188.500 M 82.639 156.694 C 81.513 157.820, 81.954 159, 83.500 159 C 84.325 159, 85 158.577, 85 158.059 C 85 156.798, 83.438 155.895, 82.639 156.694 M 414.639 156.694 C 413.513 157.820, 413.954 159, 415.500 159 C 416.325 159, 417 158.577, 417 158.059 C 417 156.798, 415.438 155.895, 414.639 156.694 M 72.750 158.162 C 69.406 159.384, 69.149 161, 72.300 161 C 74.575 161, 77 159.349, 77 157.800 C 77 156.815, 76.267 156.878, 72.750 158.162 M 358.667 164.667 C 358.300 165.033, 358 169.083, 358 173.667 L 358 182 362.500 182 L 367 182 367 173 L 367 164 363.167 164 C 361.058 164, 359.033 164.300, 358.667 164.667 M 69 168.500 C 69 168.775, 69.225 169, 69.500 169 C 69.775 169, 70 168.775, 70 168.500 C 70 168.225, 69.775 168, 69.500 168 C 69.225 168, 69 168.225, 69 168.500 M 429 168.500 C 429 168.775, 429.225 169, 429.500 169 C 429.775 169, 430 168.775, 430 168.500 C 430 168.225, 429.775 168, 429.500 168 C 429.225 168, 429 168.225, 429 168.500 M 117.794 236.750 L 113.096 240.500 113.048 267.364 L 113 294.228 117.250 298.073 L 121.500 301.918 135.500 301.974 C 143.200 302.005, 150.078 302.397, 150.784 302.846 C 151.736 303.450, 151.995 306.617, 151.784 315.080 L 151.500 326.500 145.593 326.805 C 138.600 327.165, 137.918 326.503, 138.065 319.500 C 138.264 310.067, 139.508 310.904, 125.750 311.219 L 113.500 311.500 113.225 326.572 L 112.950 341.645 117.904 345.822 L 122.859 350 145.452 350 L 168.045 350 172.522 345.873 L 177 341.745 177 314.451 L 177 287.156 172.820 283.578 L 168.640 280 153.887 280 C 136.680 280, 137.794 280.860, 138.087 267.806 C 138.362 255.540, 138.071 256, 145.567 256 L 152 256 152 263.500 L 152 271 164.500 271 L 177 271 177 255.712 L 177 240.424 172.560 236.712 L 168.119 233 145.305 233 L 122.492 233 117.794 236.750 M 183.242 291.250 L 183.500 349.500 195.500 349.500 L 207.500 349.500 208 326 L 208.500 302.500 213.831 302.195 C 216.902 302.019, 219.764 302.389, 220.581 303.067 C 221.731 304.021, 222 308.589, 222 327.122 L 222 350 234 350 L 246 350 246 291.500 L 246 233 234 233 L 222 233 221.985 255.250 C 221.976 267.488, 221.597 278.087, 221.142 278.805 C 220.575 279.699, 218.456 280.013, 214.407 279.805 L 208.500 279.500 208.232 256.250 L 207.963 233 195.474 233 L 182.984 233 183.242 291.250 M 256.208 237.288 L 252 241.576 252 291.710 L 252 341.844 256.750 345.916 L 261.500 349.987 284.111 349.994 L 306.722 350 311.361 345.680 L 316 341.360 316 291.658 L 316 241.955 311.873 237.478 L 307.745 233 284.081 233 L 260.416 233 256.208 237.288 M 322 291.500 L 322 350 333.893 350 C 343.815 350, 345.887 349.738, 346.393 348.418 C 346.727 347.548, 347 337.423, 347 325.918 L 347 305 361.522 305 L 376.045 305 380.522 300.873 L 385 296.745 385 268.584 L 385 240.424 380.560 236.712 L 376.119 233 349.060 233 L 322 233 322 291.500 M 277.473 256.209 C 277.198 256.926, 277.091 272.810, 277.236 291.507 L 277.500 325.500 284 325.500 L 290.500 325.500 290.500 290.500 L 290.500 255.500 284.237 255.202 C 279.786 254.990, 277.829 255.281, 277.473 256.209 M 347 268 L 347 281 353.500 281 L 360 281 360 268 L 360 255 353.500 255 L 347 255 347 268 M 83 307 C 83 307.733, 83.300 308.033, 83.667 307.667 C 84.033 307.300, 84.033 306.700, 83.667 306.333 C 83.300 305.967, 83 306.267, 83 307 M 69 331 C 69 331.550, 69.477 332, 70.059 332 C 70.641 332, 70.840 331.550, 70.500 331 C 70.160 330.450, 69.684 330, 69.441 330 C 69.198 330, 69 330.450, 69 331 M 429 331 C 429 331.550, 429.450 332, 430 332 C 430.550 332, 431 331.550, 431 331 C 431 330.450, 430.550 330, 430 330 C 429.450 330, 429 330.450, 429 331 M 70.543 338.931 C 69.807 340.121, 70.675 340.608, 75 341.430 L 78.500 342.096 76.139 340.048 C 73.609 337.853, 71.472 337.427, 70.543 338.931 M 425 338.729 C 423.343 339.360, 422.039 340.986, 422.015 342.450 C 422.007 342.972, 422.540 342.860, 423.200 342.200 C 423.860 341.540, 425.435 341, 426.700 341 C 428.078 341, 429 340.399, 429 339.500 C 429 337.968, 427.672 337.712, 425 338.729 M 82.694 340.639 C 81.895 341.438, 82.798 343, 84.059 343 C 84.577 343, 85 342.325, 85 341.500 C 85 339.954, 83.820 339.513, 82.694 340.639 M 414.597 340.844 C 414.251 341.404, 414.455 342.163, 415.050 342.531 C 416.588 343.481, 417.580 342.180, 416.296 340.896 C 415.578 340.178, 415.019 340.161, 414.597 340.844 M 415.597 351.844 C 415.251 352.404, 415.455 353.163, 416.050 353.531 C 417.588 354.481, 418.580 353.180, 417.296 351.896 C 416.578 351.178, 416.019 351.161, 415.597 351.844 M 81.510 353.016 C 81.856 353.575, 82.557 353.774, 83.069 353.457 C 84.456 352.600, 84.198 352, 82.441 352 C 81.584 352, 81.165 352.457, 81.510 353.016 M 164 383.665 C 164 384.193, 165.350 385.919, 167 387.500 C 168.650 389.081, 170 390.061, 170 389.678 C 170 389.295, 168.650 387.569, 167 385.843 C 165.350 384.116, 164 383.136, 164 383.665 M 160.505 388.976 C 160.146 390.612, 160.137 392.412, 160.485 392.976 C 161.227 394.177, 169 394.378, 169 393.196 C 169 392.267, 162.713 386, 161.782 386 C 161.439 386, 160.865 387.339, 160.505 388.976 M 332.434 390.250 L 329.690 393.500 333.477 393.818 C 338.035 394.201, 339.471 393.013, 338.608 389.573 C 337.740 386.114, 335.741 386.333, 332.434 390.250 M 171 391.500 C 171 391.775, 171.225 392, 171.500 392 C 171.775 392, 172 391.775, 172 391.500 C 172 391.225, 171.775 391, 171.500 391 C 171.225 391, 171 391.225, 171 391.500 M 352.444 396.142 C 352.021 398.539, 351.764 401.850, 351.873 403.500 L 352.070 406.500 346.785 401.439 C 341.064 395.961, 339.863 395.676, 329.782 397.407 C 323.698 398.452, 321.707 400.558, 325.456 401.983 C 326.927 402.543, 328.467 403, 328.878 403 C 329.290 403, 332.619 404.805, 336.276 407.011 L 342.926 411.022 348.713 409.739 L 354.500 408.456 355.329 401.593 C 355.996 396.069, 355.870 394.441, 354.685 393.256 C 353.388 391.960, 353.121 392.304, 352.444 396.142 M 144.472 397.046 C 143.645 398.383, 144.918 407.832, 146.016 408.510 C 146.472 408.792, 149.195 409.468, 152.067 410.013 C 157.064 410.960, 157.509 410.860, 162.394 407.676 C 167 404.675, 169.583 403.461, 175.363 401.582 C 178.530 400.552, 175.522 398.340, 169.733 397.441 C 158.810 395.745, 157.960 395.938, 152.250 401.405 L 147 406.432 147 401.216 C 147 396.336, 145.965 394.630, 144.472 397.046 M 357.536 402.250 C 357.260 403.488, 356.914 406.747, 356.767 409.494 L 356.500 414.487 362.500 415.683 C 365.800 416.341, 368.833 416.551, 369.240 416.149 C 370.781 414.630, 367.898 408.575, 363.633 404.369 C 361.195 401.966, 358.939 400, 358.619 400 C 358.300 400, 357.812 401.012, 357.536 402.250 M 134.617 407.580 C 128.270 415.015, 127.500 417.446, 131.750 416.633 C 133.262 416.344, 136.412 415.818, 138.750 415.466 C 142.889 414.841, 143 414.725, 143 411.037 C 143 406.172, 141.965 401, 140.992 401 C 140.575 401, 137.706 403.961, 134.617 407.580 M 177.035 404.934 C 175.834 407.179, 175.646 412, 176.759 412 C 177.177 412, 178.081 411.100, 178.768 410 C 179.455 408.900, 180.688 408, 181.508 408 C 183.522 408, 183.387 406.660, 181.171 404.655 C 178.832 402.538, 178.298 402.574, 177.035 404.934 M 318.750 404.391 C 316.439 406.147, 316.535 407.645, 319 408.290 C 320.100 408.577, 321 409.567, 321 410.490 C 321 412.807, 323.431 411.809, 323.797 409.341 C 323.961 408.240, 323.286 406.376, 322.297 405.200 C 320.752 403.362, 320.254 403.249, 318.750 404.391 M 146 413.086 C 146 415.028, 146.389 415.199, 149.624 414.674 C 155.634 413.698, 155.676 412.659, 149.750 411.587 C 146.358 410.974, 146 411.117, 146 413.086 M 348.250 411.696 C 345.259 412.285, 345.390 413.809, 348.498 414.589 C 351.593 415.366, 354.305 414.416, 353.750 412.749 C 353.286 411.356, 351.608 411.034, 348.250 411.696 M 158 417.573 C 158 418.505, 158.680 419.015, 159.667 418.823 C 162.176 418.337, 162.520 416, 160.083 416 C 158.855 416, 158 416.646, 158 417.573 M 338 417.500 C 338 418.530, 338.655 419.020, 339.750 418.810 C 341.858 418.404, 341.725 416.629, 339.553 416.177 C 338.647 415.988, 338 416.539, 338 417.500 M 141.510 428.016 C 141.856 428.575, 142.557 428.774, 143.069 428.457 C 144.456 427.600, 144.198 427, 142.441 427 C 141.584 427, 141.165 427.457, 141.510 428.016 M 172 428 C 172 428.733, 172.300 429.033, 172.667 428.667 C 173.033 428.300, 173.033 427.700, 172.667 427.333 C 172.300 426.967, 172 427.267, 172 428 M 326.500 428 C 326.160 428.550, 326.359 429, 326.941 429 C 327.523 429, 328 428.550, 328 428 C 328 427.450, 327.802 427, 327.559 427 C 327.316 427, 326.840 427.450, 326.500 428 M 356 428 C 356 428.550, 356.450 429, 357 429 C 357.550 429, 358 428.550, 358 428 C 358 427.450, 357.550 427, 357 427 C 356.450 427, 356 427.450, 356 428 M 189 429 C 189 429.550, 189.450 430, 190 430 C 190.550 430, 191 429.550, 191 429 C 191 428.450, 190.550 428, 190 428 C 189.450 428, 189 428.450, 189 429 M 309 429 C 309 429.550, 309.450 430, 310 430 C 310.550 430, 311 429.550, 311 429 C 311 428.450, 310.550 428, 310 428 C 309.450 428, 309 428.450, 309 429 M 142 434.500 C 142 434.775, 142.225 435, 142.500 435 C 142.775 435, 143 434.775, 143 434.500 C 143 434.225, 142.775 434, 142.500 434 C 142.225 434, 142 434.225, 142 434.500 M 357 434.500 C 357 434.775, 357.225 435, 357.500 435 C 357.775 435, 358 434.775, 358 434.500 C 358 434.225, 357.775 434, 357.500 434 C 357.225 434, 357 434.225, 357 434.500 M 148.813 436.683 C 149.534 436.972, 150.397 436.936, 150.729 436.604 C 151.061 436.272, 150.471 436.036, 149.417 436.079 C 148.252 436.127, 148.015 436.364, 148.813 436.683 M 349.813 436.683 C 350.534 436.972, 351.397 436.936, 351.729 436.604 C 352.061 436.272, 351.471 436.036, 350.417 436.079 C 349.252 436.127, 349.015 436.364, 349.813 436.683 M 143 437.500 C 143 437.775, 143.225 438, 143.500 438 C 143.775 438, 144 437.775, 144 437.500 C 144 437.225, 143.775 437, 143.500 437 C 143.225 437, 143 437.225, 143 437.500 M 217.500 437.616 C 224.242 443.682, 225.194 444.374, 224.218 442.500 C 223.646 441.400, 221.675 439.649, 219.839 438.608 C 218.002 437.567, 216.950 437.121, 217.500 437.616 M 396.714 446.016 C 397.363 448.498, 398.635 449.354, 400.571 448.611 C 401.790 448.143, 401.695 447.695, 400.023 446.023 C 397.440 443.440, 396.040 443.437, 396.714 446.016 M 99.036 446.645 C 96.848 447.757, 96.772 447.975, 98.353 448.582 C 100.219 449.298, 102.485 447.814, 101.862 446.283 C 101.663 445.793, 100.391 445.956, 99.036 446.645 M 109 448 C 109 448.733, 109.300 449.033, 109.667 448.667 C 110.033 448.300, 110.033 447.700, 109.667 447.333 C 109.300 446.967, 109 447.267, 109 448 M 388.500 448 C 388.840 448.550, 389.316 449, 389.559 449 C 389.802 449, 390 448.550, 390 448 C 390 447.450, 389.523 447, 388.941 447 C 388.359 447, 388.160 447.450, 388.500 448 M 125.543 458.931 C 125.226 459.443, 125.425 460.144, 125.984 460.490 C 126.543 460.835, 127 460.416, 127 459.559 C 127 457.802, 126.400 457.544, 125.543 458.931 M 372.543 458.931 C 372.226 459.443, 372.425 460.144, 372.984 460.490 C 373.543 460.835, 374 460.416, 374 459.559 C 374 457.802, 373.400 457.544, 372.543 458.931 M 140.071 461.415 C 139.325 462.313, 139.012 463.345, 139.374 463.707 C 140.308 464.641, 142.306 462.417, 141.826 460.978 C 141.550 460.150, 141.008 460.285, 140.071 461.415 M 357.727 460.606 C 356.761 461.573, 358.105 464, 359.607 464 C 360.373 464, 361 463.605, 361 463.122 C 361 461.875, 358.432 459.901, 357.727 460.606 M 91.500 470 C 91.840 470.550, 92.316 471, 92.559 471 C 92.802 471, 93 470.550, 93 470 C 93 469.450, 92.523 469, 91.941 469 C 91.359 469, 91.160 469.450, 91.500 470 M 406 470.059 C 406 470.641, 406.450 470.840, 407 470.500 C 407.550 470.160, 408 469.684, 408 469.441 C 408 469.198, 407.550 469, 407 469 C 406.450 469, 406 469.477, 406 470.059 M 255.583 472.866 C 255.152 473.563, 255.070 474.403, 255.400 474.733 C 256.295 475.628, 257.271 474.312, 256.787 472.862 C 256.449 471.846, 256.213 471.846, 255.583 472.866 M 243 474 C 243 474.550, 243.450 475, 244 475 C 244.550 475, 245 474.550, 245 474 C 245 473.450, 244.550 473, 244 473 C 243.450 473, 243 473.450, 243 474 M 139 475 C 139 475.550, 139.450 476, 140 476 C 140.550 476, 141 475.550, 141 475 C 141 474.450, 140.550 474, 140 474 C 139.450 474, 139 474.450, 139 475 M 358 475 C 358 475.550, 358.675 476, 359.500 476 C 360.325 476, 361 475.550, 361 475 C 361 474.450, 360.325 474, 359.500 474 C 358.675 474, 358 474.450, 358 475 M 248.750 476.728 C 246.049 477.011, 245.001 477.593, 245.004 478.810 C 245.009 480.974, 248.659 487, 249.965 487 C 251.476 487, 255.065 479.332, 254.384 477.558 C 254.055 476.701, 253.497 476.076, 253.143 476.168 C 252.789 476.261, 250.813 476.513, 248.750 476.728" stroke="none" fill="#000000" fill-rule="evenodd"/>
</svg>