<svg xmlns="http://www.w3.org/2000/svg" width="499" height="499" viewBox="0 0 499 499" version="1.1">
	<path d="M 168.124 2.704 C 163.348 4.353, 160.585 5.871, 160.287 7.009 C 159.991 8.143, 159.172 8.596, 157.982 8.285 C 153.910 7.220, 133.394 24.739, 132.814 29.777 C 132.579 31.818, 131.951 32.500, 130.307 32.500 C 128.815 32.500, 126.804 34.254, 124.009 37.996 C 121.750 41.019, 119.024 43.817, 117.951 44.214 C 116.878 44.611, 116 45.850, 116 46.968 C 116 50.016, 114.420 49.433, 111.345 45.250 C 109.829 43.188, 106.737 39.250, 104.474 36.500 C 102.211 33.750, 99.368 29.424, 98.157 26.887 C 96.254 22.902, 89.854 16.377, 85 13.474 C 83.830 12.775, 83.885 13.166, 85.250 15.253 C 87.147 18.154, 87.616 23, 86 23 C 85.450 23, 85 22.118, 85 21.039 C 85 18.431, 81.947 15.687, 73.500 10.705 C 66.208 6.404, 50.962 0.668, 48.225 1.195 C 47.179 1.397, 48.062 2.437, 50.844 4.278 C 57.702 8.816, 68.787 18.002, 69.431 19.680 C 69.760 20.538, 70.943 28.949, 72.059 38.370 C 73.176 47.792, 75.182 64.725, 76.518 76 C 77.854 87.275, 79.688 103.970, 80.594 113.101 C 82.151 128.785, 82.146 129.848, 80.506 132.351 C 79.551 133.808, 78.353 135, 77.843 135 C 77.334 135, 73.457 132.975, 69.229 130.500 C 61.858 126.185, 58.991 125.133, 59.008 126.750 C 59.012 127.162, 62.837 129.747, 67.508 132.493 C 72.179 135.239, 76 137.881, 76 138.362 C 76 138.844, 74.474 141.772, 72.609 144.869 C 66.424 155.138, 60.117 168.681, 56.116 180.284 C 51.742 192.970, 46.579 212.912, 47.445 213.778 C 48.205 214.538, 47.947 214.995, 54.659 201 C 60.726 188.351, 70.903 171.563, 73.878 169.298 C 74.770 168.619, 76.286 168.049, 77.247 168.032 C 79.474 167.991, 87 174.735, 87 176.771 C 87 178.114, 86.767 178.099, 85.171 176.655 C 84.165 175.745, 83.071 175, 82.740 175 C 82.408 175, 82.164 178.735, 82.198 183.299 C 82.263 192.076, 81.109 195.636, 76.354 201.332 L 73.990 204.165 79.569 209.832 C 85.201 215.553, 88.866 221, 87.085 221 C 86.553 221, 85.840 220.550, 85.500 220 C 83.870 217.362, 83.078 219.531, 83.583 225.250 L 84.136 231.500 81.573 228.500 C 79.553 226.136, 79.009 225.880, 79.005 227.294 C 78.997 230.140, 82.188 242.367, 83.313 243.803 C 84.664 245.529, 84.622 253.545, 83.253 255.197 C 81.951 256.769, 77.887 272.221, 78.592 272.925 C 78.865 273.198, 80.177 272.089, 81.508 270.461 L 83.928 267.500 84.104 270.500 C 84.200 272.150, 84.168 275.300, 84.031 277.500 L 83.783 281.500 85.891 279.595 C 87.811 277.860, 88 277.844, 88 279.407 C 88 280.352, 84.910 284.283, 81.133 288.143 L 74.265 295.162 76.492 297.831 C 79.856 301.864, 82 306.558, 82 309.891 C 82 311.536, 82.451 313.161, 83.003 313.502 C 83.667 313.912, 83.648 314.789, 82.945 316.103 C 82.362 317.193, 82.023 319.726, 82.192 321.732 C 82.489 325.246, 82.565 325.313, 84.298 323.570 C 85.286 322.576, 86.381 322.048, 86.731 322.397 C 87.638 323.305, 83.758 328.243, 80.834 329.904 C 76.374 332.436, 73.667 330.734, 67.872 321.756 C 62.313 313.143, 52.195 293.910, 50.205 288.175 C 47.984 281.771, 47.250 285.980, 49.149 294.233 C 54.741 318.529, 67.686 348.999, 76.485 358.575 C 78.973 361.284, 81.269 364.465, 81.587 365.644 C 82.177 367.839, 79.130 400.779, 76.512 420.500 C 75.708 426.550, 73.881 442.075, 72.450 455 C 70.886 469.139, 69.297 479.360, 68.461 480.659 C 67.697 481.847, 62.590 486.122, 57.112 490.159 C 51.633 494.197, 47.117 497.809, 47.075 498.186 C 46.990 498.962, 59.293 495.707, 63.650 493.802 C 66.967 492.351, 74.912 487.771, 80.160 484.284 C 82.173 482.947, 84.111 480.696, 84.465 479.282 C 84.947 477.364, 85.399 476.999, 86.245 477.845 C 87.092 478.692, 86.954 479.872, 85.706 482.490 C 84.786 484.420, 84.291 486, 84.607 486 C 86.651 486, 96.550 475.882, 98.145 472.162 C 99.172 469.765, 101.943 465.485, 104.301 462.652 C 106.659 459.818, 109.829 455.813, 111.345 453.750 C 114.582 449.346, 115.559 449.105, 116.411 452.500 C 116.756 453.875, 117.597 455, 118.281 455 C 118.964 455, 121.645 457.925, 124.237 461.500 C 128.711 467.669, 131 469.463, 131 466.800 C 131 464.391, 133.146 467.723, 133.463 470.624 C 133.681 472.614, 135.431 474.987, 139.139 478.324 C 146.957 485.358, 156.849 492.211, 158.083 491.449 C 158.672 491.085, 159.995 491.690, 161.023 492.794 C 163.085 495.007, 175.010 499.343, 177.614 498.826 C 178.684 498.614, 176.961 496.943, 172.689 494.048 C 166.863 490.101, 155.592 478.217, 152.306 472.557 C 151.649 471.426, 150.803 467.462, 150.427 463.750 C 149.921 458.765, 149.354 457, 148.261 457 C 147.164 457, 146.885 457.888, 147.182 460.430 C 147.402 462.316, 147.226 463.640, 146.791 463.371 C 146.356 463.102, 146 461.939, 146 460.787 C 146 459.636, 144.874 456.313, 143.498 453.404 C 140.745 447.585, 138.530 445.281, 139.534 449.281 C 139.965 450.995, 139.677 451.910, 138.574 452.333 C 137.708 452.665, 137 453.851, 137 454.969 C 137 456.108, 136.341 457, 135.500 457 C 133.990 457, 133.445 454.888, 134.646 453.687 C 135.705 452.629, 135.876 446.637, 134.900 444.814 C 133.703 442.576, 135.109 441.788, 141.152 441.311 C 145.878 440.939, 146 440.999, 146.011 443.715 C 146.030 448.438, 147.213 454, 148.200 454 C 148.716 454, 149.030 451.023, 148.898 447.385 C 148.641 440.288, 149.472 439.002, 154.693 438.429 C 168.308 436.935, 181.430 433.945, 183.149 431.946 C 184.354 430.544, 184.930 430.375, 185.291 431.317 C 185.932 432.988, 183.896 437.592, 180.572 441.989 C 179.089 443.950, 178.403 445.634, 179.005 445.835 C 180.404 446.301, 195.652 436.029, 199.437 432.071 C 201.052 430.382, 203.077 429, 203.937 429.001 C 205.813 429.002, 210.151 432.884, 219.790 443.188 L 226.982 450.877 226.362 456.814 C 225.985 460.417, 226.248 464.865, 227.031 468.126 L 228.320 473.500 229.410 470.322 C 230.951 465.829, 232 465.160, 232 468.672 C 232 472.199, 235.555 477.496, 242.349 484.094 C 246.236 487.869, 247.060 489.236, 246.504 490.987 C 245.874 492.973, 246.008 493.066, 247.972 492.015 C 249.713 491.083, 250.657 491.194, 252.817 492.584 L 255.500 494.310 253.516 492.068 L 251.533 489.826 256.016 485.663 C 263.375 478.831, 268.500 471.019, 267.680 467.883 C 267.409 466.847, 267.606 466, 268.119 466 C 268.631 466, 269.320 467.350, 269.650 469 C 271.147 476.487, 273.424 469.418, 273.193 458 L 273.041 450.500 283.276 439.750 C 288.905 433.838, 294.291 429, 295.245 429 C 296.199 429, 299.423 431.213, 302.410 433.918 C 310.228 440.998, 321 447.700, 321 445.485 C 321 445.201, 319.372 442.517, 317.382 439.521 C 314.407 435.040, 313.907 433.578, 314.563 431.286 C 315.300 428.712, 315.390 428.669, 315.746 430.721 C 316.018 432.291, 317.213 433.244, 319.816 433.972 C 324.236 435.207, 340.684 438.139, 343.500 438.194 C 344.600 438.215, 346.792 438.708, 348.372 439.288 C 351.227 440.337, 351.241 440.385, 350.753 447.212 C 350.125 455.987, 352.139 455.994, 353.330 447.221 L 354.161 441.103 358.830 441.463 C 361.399 441.661, 363.791 441.863, 364.146 441.912 C 364.502 441.960, 364.634 444.340, 364.439 447.199 C 364.245 450.059, 364.555 452.964, 365.129 453.655 C 366.235 454.988, 365.520 457, 363.941 457 C 363.423 457, 363 456.380, 363 455.622 C 363 454.865, 362.352 453.707, 361.559 453.049 C 360.767 452.392, 359.980 450.649, 359.809 449.177 L 359.500 446.500 357.633 450 C 356.606 451.925, 354.960 455.975, 353.974 459 C 352.186 464.489, 352.182 464.492, 352.091 460.750 C 352.041 458.688, 351.550 457, 351 457 C 350.450 457, 349.991 457.563, 349.980 458.250 C 349.866 465.330, 347.852 472.334, 344.830 476.160 C 338.745 483.863, 328.398 493.756, 324.171 495.913 C 319.005 498.548, 318.875 499.421, 323.750 498.737 C 329.763 497.893, 339 494.031, 339 492.361 C 339 491.377, 339.614 491.060, 340.796 491.435 C 344.517 492.616, 366 474.692, 366 470.407 C 366 469.218, 366.675 467.685, 367.500 467 C 368.700 466.004, 369 466.010, 369 467.033 C 369 468.811, 372.556 465.481, 376.023 460.456 C 377.557 458.232, 380.148 454.983, 381.779 453.236 L 384.746 450.060 392.140 459.780 C 396.206 465.126, 400.273 471.118, 401.177 473.096 C 402.622 476.256, 412.594 486, 414.383 486 C 414.751 486, 414.365 484.672, 413.526 483.050 C 411.878 479.864, 411.526 477, 412.781 477 C 413.210 477, 414.041 478.269, 414.626 479.820 C 415.378 481.811, 418.231 484.170, 424.325 487.838 C 429.074 490.696, 434.186 493.501, 435.686 494.071 C 440.957 496.075, 452 498.865, 451.974 498.186 C 451.960 497.809, 449.621 495.925, 446.775 494 C 439.489 489.070, 430.328 481.298, 429.616 479.442 C 429.286 478.581, 427.872 467.666, 426.474 455.188 C 425.077 442.710, 423.065 425.525, 422.004 417 C 420.943 408.475, 419.339 394.025, 418.440 384.888 C 416.587 366.055, 416.513 366.422, 423.949 357.458 C 432.814 346.771, 444.095 320.259, 449.564 297.258 C 452.311 285.707, 452.394 285, 451 285 C 450.450 285, 449.996 285.563, 449.991 286.250 C 449.962 290.179, 431.907 323.180, 426.739 328.750 C 423.606 332.126, 420.016 331.625, 415.703 327.208 C 411.579 322.984, 410.393 319.142, 414.365 322.874 L 416.731 325.096 417.342 322.042 C 417.677 320.363, 417.447 317.880, 416.829 316.524 C 415.977 314.655, 416.004 313.700, 416.939 312.573 C 417.617 311.756, 417.894 310.638, 417.554 310.088 C 416.740 308.770, 419.430 302.436, 422.530 298.371 L 424.999 295.135 419.399 289.318 C 412.960 282.628, 410.461 279.206, 411.358 278.308 C 411.705 277.962, 412.924 278.526, 414.069 279.562 L 416.150 281.445 415.446 275.223 C 415.058 271.800, 415.065 269, 415.461 269 C 415.856 269, 417.024 270.013, 418.056 271.250 L 419.933 273.500 419.967 271.154 C 420.005 268.447, 417.368 258.326, 415.956 255.764 C 414.747 253.568, 414.707 245.710, 415.898 244.450 C 416.853 243.440, 421.028 228.831, 420.959 226.739 C 420.937 226.057, 419.552 227.075, 417.881 229 L 414.843 232.500 415.041 226.500 C 415.299 218.679, 415.264 218.536, 413.476 220.020 C 412.638 220.716, 411.696 221.030, 411.384 220.718 C 410.458 219.791, 412.249 217.326, 418.691 210.663 L 424.782 204.363 422.857 201.931 C 418.038 195.845, 416.739 191.845, 416.802 183.286 C 416.836 178.729, 416.592 175, 416.260 175 C 415.929 175, 414.835 175.745, 413.829 176.655 C 412.233 178.099, 412 178.114, 412 176.771 C 412 174.723, 419.523 168, 421.816 168 C 424.331 168, 427.986 172.128, 433.778 181.509 C 438.142 188.577, 447.692 207.445, 449.338 212.250 C 449.922 213.954, 452.020 214.748, 451.980 213.250 C 451.969 212.838, 450.896 208.356, 449.595 203.291 C 448.020 197.155, 445.892 191.962, 443.220 187.730 C 441.014 184.237, 436.961 176.901, 434.214 171.427 C 429.854 162.738, 428.802 161.350, 425.926 160.488 C 424.114 159.945, 422.449 158.929, 422.226 158.231 C 421.904 157.222, 422.355 157.204, 424.414 158.143 C 425.841 158.793, 427.210 159.123, 427.457 158.876 C 427.704 158.629, 425.503 152.136, 422.567 144.446 L 417.227 130.465 419.562 107.482 C 420.845 94.842, 422.784 77.525, 423.869 69 C 424.955 60.475, 426.632 46.075, 427.596 37 L 429.348 20.500 434.339 15.702 C 437.083 13.063, 442.492 8.676, 446.358 5.952 C 450.224 3.228, 452.648 1, 451.745 1 C 447.504 1, 433.039 6.636, 425.283 11.310 C 416.950 16.332, 416.021 17.200, 414.382 21.500 C 413.698 23.294, 413.581 23.221, 413.248 20.799 C 413.044 19.314, 413.391 17.138, 414.019 15.964 C 414.648 14.790, 415.002 13.669, 414.807 13.474 C 413.929 12.595, 402.585 23.750, 401.349 26.708 C 400.589 28.526, 396.509 34.549, 392.283 40.092 C 385.348 49.188, 384.471 49.998, 383.299 48.394 C 382.585 47.417, 382 46.029, 382 45.309 C 382 44.589, 381.403 44, 380.673 44 C 379.944 44, 377.403 41.317, 375.027 38.038 C 371.875 33.687, 370.140 32.133, 368.607 32.288 C 367.048 32.445, 366.421 31.855, 366.175 30 C 365.493 24.854, 344.957 7.255, 340.878 8.322 C 339.727 8.623, 338.858 8.130, 338.489 6.964 C 337.884 5.059, 323.148 -0.549, 320.801 0.233 C 320.144 0.452, 322.193 2.348, 325.354 4.447 C 331.072 8.242, 344.351 21.938, 346.765 26.528 C 347.460 27.851, 348.277 31.086, 348.579 33.717 C 349.438 41.185, 349.981 43.130, 351.029 42.482 C 351.563 42.152, 352.044 40.671, 352.099 39.191 C 352.184 36.861, 352.369 37.036, 353.473 40.500 C 354.750 44.507, 358.786 52, 359.666 52 C 359.924 52, 359.861 51.138, 359.527 50.084 C 359.192 49.030, 359.415 47.862, 360.021 47.487 C 360.627 47.112, 361.558 45.662, 362.090 44.264 C 363.576 40.354, 364.415 42.395, 364.460 50.031 C 364.504 57.690, 364.254 58, 358.035 58 C 353.898 58, 353.041 56.698, 353.014 50.372 C 353.006 48.652, 352.256 46.627, 351.346 45.872 C 349.824 44.609, 349.749 45.070, 350.398 51.659 C 350.843 56.182, 350.730 59.049, 350.091 59.444 C 349.534 59.788, 343.773 60.955, 337.289 62.038 C 321.279 64.711, 317.747 65.626, 316.417 67.445 C 314.824 69.623, 314 69.382, 314 66.737 C 314 65.492, 315.612 62.079, 317.583 59.153 C 319.554 56.227, 320.933 53.600, 320.648 53.315 C 319.807 52.474, 308.043 60.125, 302.564 65.076 C 299.779 67.593, 296.667 69.958, 295.649 70.333 C 294.202 70.866, 291.555 68.687, 283.507 60.341 L 273.215 49.668 272.833 39.360 C 272.437 28.671, 270.812 24.028, 269.522 29.901 C 269.147 31.606, 268.441 33, 267.952 33 C 267.463 33, 267.306 32.366, 267.604 31.590 C 268.574 29.063, 262.081 19.460, 255.677 13.953 C 253.428 12.018, 252.025 10.014, 252.268 9.082 C 252.582 7.884, 251.910 7.500, 249.500 7.500 C 247.072 7.500, 246.417 7.880, 246.738 9.105 C 246.993 10.081, 245.495 12.133, 242.909 14.346 C 237.520 18.959, 230.732 28.867, 231.348 31.221 C 231.603 32.200, 231.394 33, 230.881 33 C 230.369 33, 229.674 31.622, 229.337 29.937 C 228.188 24.190, 226.616 28.697, 226.050 39.363 L 225.500 49.725 216.500 59.234 C 204.115 72.321, 204.435 72.213, 197.156 65.718 C 190.709 59.965, 179.221 52.446, 178.295 53.372 C 177.979 53.688, 179.358 56.325, 181.360 59.232 C 184.956 64.454, 185.945 68.298, 184 69.500 C 183.450 69.840, 183 69.432, 183 68.594 C 183 65.899, 181.193 65.351, 161.224 61.986 C 155.022 60.941, 149.454 59.780, 148.850 59.407 C 148.125 58.959, 147.971 56.587, 148.396 52.436 C 148.756 48.927, 148.636 45.893, 148.125 45.577 C 146.990 44.876, 146.004 47.297, 145.986 50.832 C 145.956 56.676, 145.029 58, 140.965 58 C 134.741 58, 134.244 57.514, 134.778 51.956 C 135.067 48.952, 134.792 46.454, 134.078 45.594 C 133.189 44.523, 133.185 44.004, 134.062 43.462 C 135.665 42.471, 140.043 48.052, 139.387 50.250 C 139.100 51.212, 139.076 52, 139.334 52 C 140.290 52, 143.993 44.823, 145.403 40.238 C 146.747 35.871, 146.866 35.750, 146.930 38.691 C 146.969 40.446, 147.427 42.146, 147.949 42.469 C 148.878 43.043, 149.310 41.247, 150.498 31.881 C 150.915 28.590, 152.126 26.004, 154.712 22.881 C 161.833 14.282, 168.579 7.717, 173.750 4.353 C 176.637 2.475, 179 0.727, 179 0.469 C 179 -0.522, 175.220 0.255, 168.124 2.704 M 246.500 16.369 C 243.918 21.165, 244.928 23.041, 249.698 22.304 C 251.789 21.981, 253.683 21.560, 253.906 21.369 C 254.709 20.681, 250.670 13, 249.506 13 C 248.851 13, 247.498 14.516, 246.500 16.369 M 422.750 26.523 C 421.238 27.833, 420 29.354, 420 29.904 C 420 30.454, 417.976 33.800, 415.502 37.339 C 408.199 47.785, 405.117 56, 408.500 56 C 410.327 56, 410.430 57.171, 408.750 58.848 C 407.851 59.745, 407.409 66.001, 407.177 81.107 C 406.871 100.985, 406.997 102.722, 409.511 113.309 C 412.006 123.813, 413.283 127.050, 414.467 125.866 C 414.896 125.437, 419.993 85.246, 420.157 81 C 420.189 80.175, 421.534 67.606, 423.146 53.068 C 424.758 38.531, 425.947 26.075, 425.788 25.389 C 425.599 24.569, 424.558 24.957, 422.750 26.523 M 74.083 31.750 C 75.072 41.847, 78.816 75.350, 80.984 93.500 C 82.035 102.300, 83.198 112.650, 83.568 116.500 C 84.302 124.140, 85.466 127.649, 86.388 125 C 90.485 113.229, 92.470 92, 89.474 92 C 88.124 92, 88.133 91.644, 89.554 88.896 C 90.858 86.375, 91.109 82.997, 90.892 70.917 C 90.745 62.736, 90.934 55.732, 91.312 55.354 C 93.374 53.293, 91.002 47.553, 83.136 35.571 C 78.943 29.182, 75.408 25.123, 73.961 25.033 C 73.665 25.015, 73.720 28.038, 74.083 31.750 M 415.500 32 C 415.160 32.550, 415.359 33, 415.941 33 C 416.523 33, 417 32.550, 417 32 C 417 31.450, 416.802 31, 416.559 31 C 416.316 31, 415.840 31.450, 415.500 32 M 139 37 C 139 37.550, 139.450 38, 140 38 C 140.550 38, 141 37.550, 141 37 C 141 36.450, 140.550 36, 140 36 C 139.450 36, 139 36.450, 139 37 M 358 37 C 358 37.550, 358.450 38, 359 38 C 359.550 38, 360 37.550, 360 37 C 360 36.450, 359.550 36, 359 36 C 358.450 36, 358 36.450, 358 37 M 98 51.278 C 98 51.431, 98.900 52.326, 100 53.268 C 101.904 54.898, 102 54.885, 102 52.990 C 102 51.667, 101.330 51, 100 51 C 98.900 51, 98 51.125, 98 51.278 M 398 52 C 398 52.550, 398.648 53, 399.441 53 C 400.234 53, 401.160 52.550, 401.500 52 C 401.840 51.450, 401.191 51, 400.059 51 C 398.927 51, 398 51.450, 398 52 M 158.500 81 C 158.101 81.646, 158.224 82.624, 158.774 83.174 C 159.441 83.841, 160.016 83.783, 160.500 83 C 160.899 82.354, 160.776 81.376, 160.226 80.826 C 159.559 80.159, 158.984 80.217, 158.500 81 M 338.500 81 C 338.101 81.646, 338.224 82.624, 338.774 83.174 C 339.441 83.841, 340.016 83.783, 340.500 83 C 340.899 82.354, 340.776 81.376, 340.226 80.826 C 339.559 80.159, 338.984 80.217, 338.500 81 M 130 85.899 C 130 88.190, 131.237 90.177, 135.120 94.122 C 140.934 100.028, 141.361 99.834, 142.367 90.818 C 143.078 84.450, 143.327 84.688, 134.750 83.523 L 130 82.877 130 85.899 M 361.269 83.940 C 358.941 84.319, 356.803 84.864, 356.517 85.150 C 355.691 85.976, 357.193 98, 358.122 98 C 359.968 98, 369.853 86.106, 369.965 83.750 C 370.005 82.892, 367.343 82.950, 361.269 83.940 M 145.543 85.931 C 145.226 86.443, 145.436 87.151, 146.008 87.505 C 147.484 88.417, 153.134 87.026, 152.450 85.919 C 151.708 84.719, 146.286 84.728, 145.543 85.931 M 346.570 85.886 C 346.269 86.374, 347.030 87.043, 348.261 87.373 C 351.818 88.326, 353 88.108, 353 86.500 C 353 84.851, 347.533 84.329, 346.570 85.886 M 176 90.878 C 176 94.769, 178.525 96.903, 180.635 94.794 C 182.014 93.415, 181.903 92.994, 179.539 90.630 C 176.240 87.331, 176 87.348, 176 90.878 M 319.160 90.730 C 317.053 92.998, 316.973 93.402, 318.360 94.788 C 320.474 96.903, 323 94.774, 323 90.878 C 323 87.427, 322.255 87.398, 319.160 90.730 M 150.250 89.723 C 148.463 89.945, 147 90.512, 147 90.983 C 147 91.454, 149.300 94.356, 152.111 97.431 L 157.223 103.024 163.361 102.506 C 170.676 101.889, 175.251 100.748, 175.689 99.432 C 175.865 98.904, 173.842 97.703, 171.194 96.762 C 168.546 95.822, 164.381 93.699, 161.939 92.044 C 157.571 89.085, 156.735 88.919, 150.250 89.723 M 336 92.524 C 332.975 94.471, 328.800 96.575, 326.722 97.199 C 319.802 99.277, 323.942 101.628, 335.984 102.458 L 342.468 102.905 347.710 97.228 C 350.592 94.105, 352.624 91.248, 352.225 90.877 C 351.826 90.507, 349.250 89.929, 346.500 89.593 C 341.959 89.039, 340.995 89.308, 336 92.524 M 144.654 94.673 C 143.746 100.172, 143.857 105.793, 144.886 106.430 C 146.071 107.162, 146.973 103.516, 146.971 98 C 146.969 91.837, 145.477 89.694, 144.654 94.673 M 352.510 96.242 C 351.724 100.272, 352.313 103, 353.969 103 C 355.173 103, 355.226 97.405, 354.049 94.500 C 353.364 92.808, 353.127 93.076, 352.510 96.242 M 160.656 106.750 C 160.401 107.162, 160.712 108.764, 161.347 110.309 L 162.500 113.117 165.946 109.559 L 169.392 106 165.255 106 C 162.980 106, 160.910 106.338, 160.656 106.750 M 333.233 109.700 C 335.268 111.735, 337.169 113.165, 337.456 112.877 C 337.744 112.589, 338.265 110.924, 338.615 109.177 L 339.250 106 334.392 106 L 329.533 106 333.233 109.700 M 114.250 148.662 C 113.279 149.054, 113 158.086, 113 189.083 L 113 229 121.962 229 L 130.925 229 131.212 219.852 L 131.500 210.704 136.318 219.852 L 141.136 229 149.068 229 C 153.431 229, 157 228.736, 157 228.413 C 157 228.091, 152.613 219.091, 147.250 208.414 L 137.500 189.001 147.250 170.148 C 152.613 159.778, 157 150.534, 157 149.605 C 157 148.140, 155.973 147.955, 149.250 148.208 L 141.500 148.500 136.500 158 L 131.500 167.500 131.208 158.533 C 131.025 152.909, 130.466 149.280, 129.708 148.798 C 128.386 147.958, 116.259 147.851, 114.250 148.662 M 163.422 149.342 C 163.139 150.081, 165.853 162.237, 169.454 176.356 C 175.923 201.725, 176 202.186, 176 215.513 L 176 229 184.500 229 L 193 229 193 215.835 C 193 202.928, 193.128 202.162, 199.556 176.703 C 203.162 162.420, 205.876 150.120, 205.588 149.367 C 205.019 147.885, 192.424 147.384, 190.450 148.765 C 189.873 149.169, 188.579 154, 187.575 159.500 C 186.571 165, 185.415 170.126, 185.006 170.890 C 184.336 172.144, 182.451 165.284, 180.366 154 C 180.010 152.075, 179.277 149.938, 178.737 149.250 C 177.336 147.467, 164.111 147.546, 163.422 149.342 M 214.535 151.104 L 211 154.207 211 188.799 L 211 223.391 213.687 226.195 L 216.374 229 232.228 229 C 246.967 229, 248.289 228.846, 251.040 226.812 L 254 224.624 254 212.771 L 254 200.919 245.750 201.210 L 237.500 201.500 237.201 207.805 L 236.902 214.110 232.701 213.805 L 228.500 213.500 228.232 189.250 L 227.964 165 232.482 165 L 237 165 237 170.378 C 237 177.353, 238.066 178.172, 246.660 177.798 L 253.500 177.500 253.781 165.880 L 254.061 154.261 250.496 151.130 L 246.930 148 232.500 148 L 218.070 148 214.535 151.104 M 259.706 148.627 C 259.318 149.015, 259 167.258, 259 189.167 L 259 229 266.975 229 L 274.949 229 275.225 213.250 L 275.500 197.500 280.250 197.195 L 285 196.890 285 212.945 L 285 229 293.500 229 L 302 229 302 189.019 L 302 149.038 299.708 148.463 C 298.448 148.147, 294.735 148.026, 291.458 148.194 L 285.500 148.500 285.225 164.804 L 284.950 181.108 280.225 180.804 L 275.500 180.500 275 164.500 L 274.500 148.500 267.456 148.210 C 263.582 148.051, 260.095 148.239, 259.706 148.627 M 307.238 148.816 C 306.250 149.455, 306.033 158.190, 306.238 189.066 L 306.500 228.500 321.250 228.777 L 336 229.053 336 221.574 L 336 214.095 329.750 213.798 L 323.500 213.500 323.212 204.799 L 322.924 196.097 329.212 195.799 L 335.500 195.500 335.500 188.500 L 335.500 181.500 329.250 181.202 L 323 180.905 323 173 L 323 165.095 329.250 164.798 L 335.500 164.500 335.500 156.500 L 335.500 148.500 322 148.250 C 314.575 148.112, 307.932 148.367, 307.238 148.816 M 341.667 148.667 C 341.300 149.033, 341 167.258, 341 189.167 L 341 229 349.475 229 L 357.949 229 358.225 213.250 L 358.500 197.500 362.724 197.194 L 366.949 196.888 367.224 212.694 L 367.500 228.500 376 228.500 L 384.500 228.500 384.775 211.581 C 385.050 194.665, 385.049 194.661, 382.514 192.015 L 379.979 189.368 382.489 187.010 C 384.950 184.699, 385 184.356, 385 169.942 L 385 155.233 380.997 151.616 L 376.994 148 359.664 148 C 350.132 148, 342.033 148.300, 341.667 148.667 M 73.250 158.645 C 69.614 160.167, 69.104 161, 71.809 161 C 73.765 161, 77.815 158.444, 76.998 157.724 C 76.724 157.482, 75.037 157.897, 73.250 158.645 M 358 173 L 358 182 362.500 182 L 367 182 367 173 L 367 164 362.500 164 L 358 164 358 173 M 117.742 237.288 L 112.984 241.500 112.992 267.665 L 113 293.830 117.641 297.915 L 122.282 302 137.141 302 L 152 302 152 314.546 L 152 327.091 145.250 326.796 L 138.500 326.500 138.206 319.250 L 137.912 312 125.456 312 L 113 312 113 326.363 L 113 340.726 117.957 345.363 L 122.914 350 144.867 350 L 166.820 350 171.910 345.977 L 177 341.953 177 314.861 L 177 287.769 172.778 283.909 L 168.555 280.050 153.528 279.775 L 138.500 279.500 138.218 267.750 L 137.937 256 144.924 256 L 151.912 256 152.206 263.250 L 152.500 270.500 164.500 270.500 L 176.500 270.500 176.776 255.901 L 177.052 241.302 172.548 237.151 L 168.045 233 145.272 233.038 L 122.500 233.077 117.742 237.288 M 183.242 291.219 L 183.500 349.500 193.500 349.792 C 199 349.953, 204.512 349.832, 205.750 349.523 L 208 348.962 208 325.435 L 208 301.909 214.750 302.204 L 221.500 302.500 222 326 L 222.500 349.500 234 349.500 L 245.500 349.500 245.758 291.250 L 246.016 233 234.026 233 L 222.037 233 221.768 256.250 L 221.500 279.500 214.769 279.795 L 208.037 280.091 207.769 256.795 L 207.500 233.500 195.242 233.219 L 182.984 232.938 183.242 291.219 M 257.250 236.603 L 253 240.166 253 291.449 L 253 342.732 257.664 346.366 L 262.328 350 284.026 350 L 305.724 350 310.358 346.250 L 314.992 342.500 314.996 291.317 L 315 240.134 310.647 236.567 L 306.294 233 283.897 233.020 L 261.500 233.039 257.250 236.603 M 322 290.981 L 322 348.962 324.250 349.524 C 325.488 349.833, 330.775 349.954, 336 349.793 L 345.500 349.500 345.769 327.250 L 346.038 305 360.769 304.994 L 375.500 304.987 380.250 300.916 L 385 296.844 385 269.050 L 385 241.255 380.522 237.127 L 376.045 233 349.022 233 L 322 233 322 290.981 M 277 290.500 L 277 326 284 326 L 291 326 291 290.500 L 291 255 284 255 L 277 255 277 290.500 M 346.667 255.667 C 346.300 256.033, 346 261.883, 346 268.667 L 346 281 353 281 L 360 281 360 268 L 360 255 353.667 255 C 350.183 255, 347.033 255.300, 346.667 255.667 M 71 339.387 C 71 340.163, 72.321 340.967, 74 341.213 C 77.669 341.752, 77.949 340.311, 74.435 338.975 C 71.134 337.720, 71 337.736, 71 339.387 M 423.861 340.015 L 421.500 342.031 424.500 341.377 C 428.207 340.569, 429 340.140, 429 338.941 C 429 337.343, 426.340 337.899, 423.861 340.015 M 83 342.059 C 83 342.641, 83.450 342.840, 84 342.500 C 84.550 342.160, 85 341.684, 85 341.441 C 85 341.198, 84.550 341, 84 341 C 83.450 341, 83 341.477, 83 342.059 M 415 342 C 415 342.550, 415.450 343, 416 343 C 416.550 343, 417 342.550, 417 342 C 417 341.450, 416.550 341, 416 341 C 415.450 341, 415 341.450, 415 342 M 84.539 373.250 C 84.264 374.488, 82.907 385.850, 81.524 398.500 C 80.140 411.150, 78.781 423.482, 78.502 425.904 C 78.224 428.327, 77.102 438.227, 76.009 447.904 C 74.916 457.582, 73.776 467.637, 73.476 470.250 C 73.177 472.863, 73.148 475, 73.414 475 C 74.066 475, 79 470.396, 79 469.788 C 79 469.523, 81.458 465.634, 84.462 461.146 C 90.751 451.750, 92.968 445.871, 91.079 443.596 C 90.160 442.488, 90.138 441.610, 90.988 440.022 C 91.769 438.563, 92.021 429.400, 91.808 410.208 C 91.500 382.502, 91.500 382.500, 88.805 376.750 C 87.323 373.587, 85.869 371, 85.574 371 C 85.279 371, 84.813 372.012, 84.539 373.250 M 412.555 374.912 C 412.245 375.413, 411.071 380.251, 409.946 385.662 C 408.179 394.159, 407.923 398.772, 408.065 419.500 C 408.155 432.700, 407.901 444.296, 407.501 445.268 C 406.520 447.647, 408.206 451.414, 414.890 461.780 C 420.838 471.003, 423.956 475, 425.203 475 C 425.620 475, 425.740 473.087, 425.468 470.750 C 425.197 468.413, 423.876 456.600, 422.534 444.500 C 415.986 385.487, 414.575 374, 413.875 374 C 413.459 374, 412.864 374.410, 412.555 374.912 M 166 386.500 C 167.292 387.875, 168.574 389, 168.849 389 C 169.124 389, 168.292 387.875, 167 386.500 C 165.708 385.125, 164.426 384, 164.151 384 C 163.876 384, 164.708 385.125, 166 386.500 M 161.046 388.378 C 160.471 389.892, 160 391.493, 160 391.937 C 160 392.899, 168.017 394.317, 168.834 393.500 C 169.145 393.188, 167.756 391.289, 165.746 389.280 L 162.093 385.626 161.046 388.378 M 333.687 389.805 C 330.098 393.551, 330.295 394.218, 334.750 393.413 C 339.407 392.571, 339.228 392.755, 338.440 389.618 C 337.611 386.315, 337.008 386.339, 333.687 389.805 M 352.425 396.548 C 352.059 398.499, 352.047 401.986, 352.398 404.298 L 353.037 408.500 347.820 402.618 L 342.602 396.736 334.131 397.387 C 323.154 398.230, 319.458 400.925, 327.267 402.390 C 329.077 402.730, 333.019 404.631, 336.029 406.616 C 341.202 410.028, 341.823 410.192, 347.419 409.610 C 350.674 409.272, 353.514 408.819, 353.729 408.604 C 354.485 407.849, 356.009 394.824, 355.449 393.917 C 354.290 392.043, 353.071 393.104, 352.425 396.548 M 144.574 396.880 C 144.264 397.382, 144.298 399.897, 144.651 402.469 C 145.388 407.847, 146.960 406.729, 146.985 400.809 C 147 397.196, 145.694 395.068, 144.574 396.880 M 151.146 402.618 L 145.895 408.500 148.698 409.132 C 154.784 410.504, 158.514 410.015, 162.470 407.327 C 164.634 405.856, 168.433 403.883, 170.914 402.941 C 179.099 399.835, 177.423 398.352, 164.615 397.367 L 156.396 396.735 151.146 402.618 M 135.250 406.952 C 132.363 410.156, 130 413.566, 130 414.531 C 130 416.083, 130.710 416.211, 136.169 415.640 C 139.562 415.285, 142.527 414.807, 142.757 414.576 C 143.405 413.929, 141.850 400.992, 141.134 401.064 C 140.785 401.099, 138.137 403.749, 135.250 406.952 M 357.503 404.750 C 357.180 406.813, 356.725 409.720, 356.491 411.211 C 355.967 414.547, 356.343 414.788, 363.365 415.613 L 369 416.275 369 413.350 C 369 411.181, 367.764 409.207, 364.216 405.712 C 361.584 403.121, 359.130 401, 358.761 401 C 358.392 401, 357.826 402.688, 357.503 404.750 M 318.600 404.889 C 316.906 406.762, 316.918 406.886, 318.917 407.956 C 320.063 408.569, 321 409.730, 321 410.535 C 321 412.314, 322.953 412.513, 323.115 410.750 C 323.368 408, 322.774 405.435, 321.602 404.219 C 320.602 403.182, 320.030 403.309, 318.600 404.889 M 176.411 406.498 C 175.248 411.134, 176.565 412.166, 179.842 409.186 C 181.984 407.239, 182.515 406.156, 181.775 405.250 C 180.030 403.111, 177.089 403.795, 176.411 406.498 M 146 413.500 C 146 415.110, 147.182 415.326, 150.750 414.370 C 154.191 413.448, 153.427 412, 149.500 412 C 147.056 412, 146 412.452, 146 413.500 M 346.550 412.919 C 345.870 414.019, 351.511 415.420, 352.976 414.515 C 353.539 414.167, 354 413.459, 354 412.941 C 354 411.727, 347.299 411.707, 346.550 412.919 M 158.459 417.067 C 157.539 418.556, 158.606 419.365, 160.520 418.631 C 161.404 418.292, 161.847 417.561, 161.504 417.007 C 160.694 415.696, 159.289 415.723, 158.459 417.067 M 338 417.500 C 338 418.325, 338.675 419, 339.500 419 C 340.325 419, 341 418.325, 341 417.500 C 341 416.675, 340.325 416, 339.500 416 C 338.675 416, 338 416.675, 338 417.500 M 189 429 C 189 429.550, 189.477 430, 190.059 430 C 190.641 430, 190.840 429.550, 190.500 429 C 190.160 428.450, 189.684 428, 189.441 428 C 189.198 428, 189 428.450, 189 429 M 221 440.500 C 222.292 441.875, 223.574 443, 223.849 443 C 224.124 443, 223.292 441.875, 222 440.500 C 220.708 439.125, 219.426 438, 219.151 438 C 218.876 438, 219.708 439.125, 221 440.500 M 397.356 446.257 C 397.544 447.491, 398.440 448.645, 399.349 448.823 C 401.532 449.251, 401.433 448.433, 399.007 446.007 C 397.017 444.017, 397.015 444.018, 397.356 446.257 M 98 448 C 98 448.550, 98.648 449, 99.441 449 C 100.234 449, 101.160 448.550, 101.500 448 C 101.840 447.450, 101.191 447, 100.059 447 C 98.927 447, 98 447.450, 98 448 M 139.667 461.667 C 138.711 462.622, 138.845 464, 139.893 464 C 140.384 464, 141.045 463.325, 141.362 462.500 C 141.947 460.976, 140.881 460.452, 139.667 461.667 M 358 461.819 C 358 463.027, 359.897 464.436, 360.591 463.743 C 360.842 463.491, 360.362 462.716, 359.524 462.020 C 358.574 461.231, 358 461.155, 358 461.819 M 255 474.059 C 255 474.641, 255.450 474.840, 256 474.500 C 256.550 474.160, 257 473.684, 257 473.441 C 257 473.198, 256.550 473, 256 473 C 255.450 473, 255 473.477, 255 474.059 M 139 475 C 139 475.550, 139.450 476, 140 476 C 140.550 476, 141 475.550, 141 475 C 141 474.450, 140.550 474, 140 474 C 139.450 474, 139 474.450, 139 475 M 248.750 476.803 C 244.417 477.170, 244.281 477.670, 247.038 483.075 C 249.349 487.604, 250.219 487.451, 252.985 482.030 C 255.318 477.456, 254.402 476.325, 248.750 476.803" stroke="none" fill="#ffffff" fill-rule="evenodd"/>
</svg>