<svg xmlns="http://www.w3.org/2000/svg" width="499" height="499" viewBox="0 0 499 499" version="1.1">
	<path d="M 59.500 12.227 C 62.800 14.681, 67.682 18.671, 70.348 21.095 L 75.196 25.501 77.084 42.501 C 78.122 51.850, 80.101 69.175, 81.481 81 C 82.861 92.825, 84.685 109.250, 85.534 117.500 C 86.383 125.750, 87.937 139.475, 88.988 148 C 90.039 156.525, 91.401 168.430, 92.016 174.455 C 92.632 180.480, 93.353 185.762, 93.620 186.194 C 94.494 187.609, 95.464 205.208, 95.482 219.985 C 95.498 233.211, 95.342 234.501, 93.678 234.822 C 92.548 235.041, 90.364 233.606, 87.928 231.045 C 85.303 228.285, 84 227.459, 84 228.554 C 84 230.325, 86.613 240.246, 87.937 243.500 C 88.385 244.600, 89.271 246.788, 89.906 248.363 C 90.971 251.005, 90.246 264.745, 88.482 275.358 C 88.046 277.983, 88.210 278.164, 90.503 277.588 C 91.877 277.244, 93 277.350, 93 277.825 C 93 278.924, 83.304 290.064, 80.811 291.830 C 79.012 293.104, 79.057 293.301, 81.878 296.514 C 83.498 298.359, 85.119 300.798, 85.479 301.934 C 85.840 303.070, 86.892 304.036, 87.817 304.079 C 88.858 304.128, 89.023 304.350, 88.250 304.662 C 86.713 305.282, 86.599 310.199, 88.087 311.687 C 88.870 312.470, 88.870 312.962, 88.087 313.446 C 87.489 313.816, 87 315.970, 87 318.233 L 87 322.349 89.500 320 C 91.929 317.718, 92 317.710, 92 319.709 C 92 322.154, 84.770 329, 82.188 329 C 81.195 329, 79.664 328.438, 78.786 327.750 C 75.684 325.321, 67.750 312.326, 60.767 298.235 C 56.878 290.389, 53.506 284.161, 53.272 284.395 C 52.593 285.074, 59.569 310.686, 62.970 320 C 69.200 337.060, 79.731 355.902, 82.188 354.384 C 82.805 354.003, 83.035 354.134, 82.700 354.676 C 82.365 355.218, 84.097 358.325, 86.548 361.581 C 90.758 367.173, 95.971 378.685, 97.449 385.656 C 97.901 387.789, 98.849 388.996, 100.371 389.378 C 102.368 389.880, 102.625 390.571, 102.625 395.451 C 102.625 398.480, 102.413 400.747, 102.155 400.488 C 101.896 400.229, 101.080 400.519, 100.342 401.131 C 98.653 402.533, 98.545 412.145, 100.200 413.800 C 101.133 414.733, 101.133 415.267, 100.200 416.200 C 98.202 418.198, 98.841 421.172, 102.804 428.301 C 106.065 434.168, 107.401 435.553, 112.542 438.389 C 117.155 440.935, 118.764 442.447, 119.668 445.089 C 120.310 446.965, 121.291 448.398, 121.847 448.274 C 122.403 448.149, 124.954 450.984, 127.516 454.574 C 130.974 459.420, 132.492 460.837, 133.410 460.074 C 135.068 458.698, 137 460.666, 137 463.731 C 137 467.716, 155.835 484, 160.445 484 C 161.300 484, 162.881 484.881, 163.959 485.959 C 165.903 487.903, 179.656 492.677, 180.598 491.735 C 180.869 491.464, 179.071 490.060, 176.603 488.613 C 170.125 484.817, 156.342 470.309, 154.133 464.961 C 153.574 463.608, 152.833 459.912, 152.486 456.750 C 152.140 453.587, 151.380 451, 150.797 451 C 150.146 451, 149.957 452.346, 150.306 454.500 C 151.068 459.193, 149.411 459.005, 148.528 454.298 C 147.639 449.560, 143 440.612, 143 443.636 C 143 444.801, 142.325 446.315, 141.500 447 C 140.675 447.685, 140 448.865, 140 449.622 C 140 450.380, 139.398 451, 138.661 451 C 137.649 451, 137.376 449.282, 137.541 443.953 C 137.662 440.078, 138.027 436.640, 138.352 436.314 C 138.678 435.989, 141.207 435.544, 143.972 435.326 C 148.899 434.937, 149 434.985, 149.011 437.715 C 149.028 442.032, 150.181 448, 150.997 448 C 151.402 448, 151.521 444.962, 151.262 441.250 L 150.790 434.500 154.860 432.768 C 157.099 431.815, 159.576 431.284, 160.365 431.587 C 161.857 432.159, 178.814 429.358, 182.750 427.889 C 183.988 427.427, 185 426.363, 185 425.525 C 185 423.533, 186.617 423.560, 187.386 425.563 C 188.008 427.185, 186.167 431.459, 182.757 436.308 C 181.670 437.852, 181.037 439.370, 181.349 439.683 C 182.212 440.546, 192.846 433.282, 198.690 427.836 C 201.545 425.176, 204.511 423, 205.281 423 C 206.764 423, 211.795 427.629, 221.264 437.706 L 227.028 443.840 227.266 453.372 C 227.415 459.362, 227.968 463.368, 228.752 464.152 C 229.749 465.149, 230 464.983, 230 463.322 C 230 462.180, 230.740 460.631, 231.644 459.880 C 233.103 458.669, 233.210 458.763, 232.593 460.708 C 231.524 464.075, 236.345 471.703, 243.796 478.435 C 246.159 480.570, 247.888 482.850, 247.638 483.502 C 247.338 484.283, 248.005 484.531, 249.591 484.227 C 250.916 483.974, 252 483.229, 252 482.571 C 252 481.914, 253.360 480.371, 255.022 479.142 C 260.156 475.346, 267.180 464.916, 266.734 461.750 C 266.209 458.026, 267.790 458.271, 269.428 462.167 L 270.759 465.333 271.592 462.917 C 272.049 461.587, 272.340 456.960, 272.237 452.634 L 272.049 444.767 281.654 434.410 C 286.936 428.714, 292.112 423.782, 293.156 423.451 C 294.525 423.016, 296.616 424.276, 300.659 427.971 C 303.742 430.789, 307.922 433.940, 309.949 434.974 C 311.976 436.008, 314.221 437.562, 314.939 438.427 C 316.094 439.818, 319 440.658, 319 439.600 C 319 439.381, 317.425 436.861, 315.500 434 C 312.021 428.830, 311.153 425.641, 312.928 424.544 C 313.438 424.229, 314.133 424.844, 314.472 425.912 C 314.901 427.264, 316.600 428.177, 320.069 428.921 C 328.554 430.741, 338.914 432.171, 339.771 431.642 C 340.221 431.364, 342.467 431.977, 344.763 433.005 L 348.937 434.874 348.309 441.594 C 347.507 450.178, 349.445 449.625, 350.421 440.991 L 351.106 434.937 355.901 435.316 C 361.891 435.788, 363.295 436.580, 362.100 438.814 C 361.098 440.685, 361.275 446.017, 362.398 447.836 C 363.218 449.162, 362.357 451, 360.916 451 C 360.385 451, 359.523 449.875, 359 448.500 C 358.477 447.125, 357.558 446, 356.957 446 C 356.320 446, 356.130 445.167, 356.500 444 C 356.849 442.900, 356.912 442, 356.641 442 C 355.797 442, 352.851 448.239, 350.974 454 L 349.182 459.500 349.091 455.191 C 348.960 448.971, 347.403 450.868, 346.639 458.180 C 346.216 462.228, 345.155 465.666, 343.621 467.961 C 339.456 474.189, 329.193 484.668, 323.979 488.014 C 321.199 489.798, 319.103 491.437, 319.323 491.656 C 319.542 491.876, 323.333 490.915, 327.746 489.520 C 333.549 487.687, 335.910 486.452, 336.275 485.057 C 336.623 483.724, 337.382 483.287, 338.733 483.640 C 342.625 484.658, 364.251 466.832, 362.520 464.033 C 362.126 463.395, 362.603 461.992, 363.578 460.913 C 364.801 459.563, 365.572 459.308, 366.059 460.095 C 366.498 460.807, 368.299 459.210, 370.826 455.869 C 373.060 452.916, 375.743 449.600, 376.790 448.500 C 377.836 447.400, 381.527 441.325, 384.991 435 C 388.456 428.675, 393.984 419.317, 397.277 414.205 L 403.264 404.910 400.930 402.425 C 399.646 401.059, 397.982 400.176, 397.233 400.464 C 396.276 400.831, 396.045 400.433, 396.460 399.126 C 396.785 398.102, 397.112 395.637, 397.187 393.648 C 397.322 390.066, 399.010 388.535, 402.074 389.215 C 402.924 389.404, 404.098 386.474, 405.566 380.500 C 406.899 375.078, 409.202 369.115, 411.361 365.500 C 413.331 362.200, 415.518 358.385, 416.221 357.022 C 416.925 355.659, 418.713 353.409, 420.196 352.022 C 426.505 346.119, 439.004 316.518, 444.061 295.500 C 447.175 282.560, 446.367 282.744, 439.668 296.500 C 432.343 311.544, 423.095 326.343, 419.978 328.012 C 418.337 328.890, 417.129 328.882, 414.948 327.978 C 411.282 326.460, 406.878 320.815, 407.975 319.040 C 408.590 318.045, 409.060 318.243, 409.928 319.865 C 410.556 321.039, 411.505 322, 412.035 322 C 413.346 322, 413.258 316.351, 411.907 313.827 C 411.117 312.350, 411.117 311.483, 411.907 310.693 C 412.508 310.092, 413 308.165, 413 306.412 C 413 304.421, 414.280 301.364, 416.408 298.270 L 419.816 293.315 413.408 286.517 C 409.884 282.778, 407 279.107, 407 278.360 C 407 276.684, 408.209 276.609, 409.786 278.186 C 410.700 279.100, 410.842 277.440, 410.406 270.936 C 410.094 266.296, 409.456 260.475, 408.988 258 C 408.262 254.162, 408.629 252.028, 411.484 243.500 C 413.326 238, 415.146 231.925, 415.530 230 L 416.227 226.500 412.267 230.750 C 409.977 233.209, 407.399 235, 406.154 235 C 404.046 235, 404 234.685, 404 220.224 C 404 212.097, 404.477 201.643, 405.060 196.994 C 405.807 191.039, 405.807 188.436, 405.060 188.187 C 404.477 187.992, 404 187.169, 404 186.358 C 404 185.546, 404.418 185.140, 404.928 185.456 C 406.268 186.284, 406.752 183.940, 408.013 170.500 C 408.632 163.900, 409.985 151.975, 411.018 144 C 412.052 136.025, 413.610 122.300, 414.479 113.500 C 415.348 104.700, 417.133 88.500, 418.445 77.500 C 419.756 66.500, 421.599 50.525, 422.539 42 C 423.480 33.475, 424.833 25.557, 425.546 24.404 C 426.260 23.252, 430.970 19.215, 436.014 15.435 C 441.057 11.654, 444.658 8.386, 444.015 8.172 C 441.887 7.462, 429.621 12.208, 421.688 16.810 C 413.981 21.281, 410 24.968, 410 27.635 C 410 28.386, 409.550 29, 409 29 C 407.644 29, 407.733 24.367, 409.139 21.740 C 410.044 20.050, 409.437 20.278, 406.194 22.847 C 401.312 26.713, 397 31.669, 397 33.414 C 397 34.107, 394.165 38.272, 390.701 42.670 C 378.076 58.693, 374.033 66.011, 368.525 82.800 C 366.279 89.649, 364.815 92.183, 360.153 97.300 C 349.782 108.681, 348.348 109.150, 349.332 100.844 L 349.911 95.958 345.205 100.971 C 339.503 107.047, 340.625 106.948, 311 103.995 C 299.175 102.817, 287.854 102.062, 285.842 102.319 C 283.831 102.575, 281.806 102.422, 281.342 101.978 C 280.274 100.955, 264.113 98.962, 253 98.483 C 241.351 97.981, 218.300 100.775, 217.530 102.783 C 217.032 104.081, 218.095 104.198, 225.226 103.629 C 246.375 101.942, 253.715 101.795, 265.177 102.827 C 271.955 103.438, 286.050 104.662, 296.500 105.548 C 306.950 106.434, 316.143 107.489, 316.928 107.893 C 317.785 108.333, 319.550 113.923, 321.341 121.864 L 324.325 135.101 319.450 140.050 C 316.769 142.773, 313.996 145, 313.288 145 C 312.579 145, 312 145.450, 312 146 C 312 146.550, 310.538 147.016, 308.750 147.035 C 305.096 147.075, 301.551 148.867, 301.400 150.750 C 301.345 151.438, 301.233 169.325, 301.150 190.500 L 301 229 292.500 229 L 284 229 284 213.500 L 284 198 279.500 198 L 275 198 275 213.500 L 275 229 266.500 229 L 258 229 258 215.345 C 258 201.753, 257.991 201.698, 256 203.500 C 254.260 205.075, 254 206.580, 254 215.082 C 254 224.449, 253.890 224.941, 251.365 226.927 C 248.958 228.821, 247.397 229, 233.270 229 C 219.242 229, 217.540 228.808, 214.904 226.932 L 212 224.864 212 198.128 L 212 171.392 208.515 168.015 C 206.598 166.157, 204.872 164.831, 204.680 165.068 C 204.487 165.306, 202.230 173.847, 199.665 184.048 C 195.284 201.467, 195 203.400, 195 215.798 L 195 229 186.500 229 L 178 229 178 216.557 C 178 204.556, 177.768 203.190, 171.453 178.038 C 167.852 163.696, 165.178 151.520, 165.512 150.981 C 166.416 149.517, 179.551 149.749, 180.773 151.250 C 181.333 151.938, 182.542 156.325, 183.461 161 C 185.435 171.044, 186.038 173.296, 186.601 172.733 C 186.831 172.503, 187.841 167.820, 188.846 162.327 C 189.850 156.834, 190.997 151.813, 191.395 151.170 C 191.793 150.526, 193.468 150, 195.118 150 C 199.179 150, 197.839 148.224, 193.215 147.479 C 187.100 146.493, 181.145 142.387, 176.902 136.232 C 175.413 134.073, 175.508 133.044, 178.289 121.207 C 179.931 114.218, 181.695 108.228, 182.210 107.896 C 182.725 107.563, 189.976 106.722, 198.323 106.027 C 206.671 105.332, 214.175 104.397, 215 103.949 C 218.813 101.879, 211.460 101.874, 190.187 103.933 C 159.659 106.887, 160.551 106.955, 154.750 101.248 L 150 96.575 150 100.663 C 150 109.788, 147.571 113.966, 145.899 107.716 C 145.509 106.256, 142.559 102.341, 139.345 99.015 C 135.052 94.574, 133.323 91.956, 132.832 89.159 C 131.581 82.023, 124.794 65.517, 120.227 58.500 C 117.721 54.650, 112.919 47.900, 109.557 43.500 C 106.194 39.100, 102.704 33.872, 101.800 31.882 C 100.404 28.805, 92.466 21, 90.734 21 C 90.426 21, 90.681 22.344, 91.301 23.986 C 92.151 26.238, 92.137 27.263, 91.247 28.153 C 90.339 29.061, 89.926 28.891, 89.461 27.417 C 88.193 23.399, 87.122 22.367, 79.422 17.742 C 70.906 12.628, 62.615 9.133, 57 8.291 C 53.538 7.771, 53.566 7.814, 59.500 12.227 M 78 31.580 C 78 32.449, 79.154 43.137, 80.564 55.330 C 81.974 67.524, 83.291 79.750, 83.490 82.500 C 83.893 88.062, 89.554 135.666, 90.742 143.489 C 91.290 147.095, 91.991 148.572, 93.270 148.816 C 94.942 149.136, 95.036 146.717, 94.979 104.978 C 94.935 72.138, 95.225 60.433, 96.113 59.364 C 97.609 57.562, 94.492 50.500, 88.261 41.573 C 85.929 38.233, 84.017 35.122, 84.011 34.660 C 83.998 33.702, 79.884 30.084, 78.750 30.033 C 78.338 30.015, 78 30.711, 78 31.580 M 419 31.500 C 418.315 32.325, 417.135 33, 416.378 33 C 415.620 33, 415 33.700, 415 34.555 C 415 35.410, 413.262 38.673, 411.138 41.805 C 407.670 46.921, 402 57.214, 402 58.395 C 402 58.649, 402.736 59.593, 403.636 60.493 C 404.856 61.714, 404.983 62.417, 404.136 63.264 C 402.823 64.577, 402.625 90.799, 403.660 126.338 C 404.271 147.351, 404.452 149, 406.140 149 C 408.251 149, 408.511 148.043, 409.945 135 C 410.519 129.775, 411.907 117.850, 413.029 108.500 C 414.152 99.150, 415.471 87.450, 415.962 82.500 C 416.453 77.550, 417.782 65.400, 418.915 55.500 C 420.049 45.600, 421.163 35.813, 421.393 33.750 C 421.834 29.777, 421.046 29.035, 419 31.500 M 96 35 C 96 35.550, 96.450 36, 97 36 C 97.550 36, 98 35.550, 98 35 C 98 34.450, 97.550 34, 97 34 C 96.450 34, 96 34.450, 96 35 M 402 35 C 402 35.550, 402.450 36, 403 36 C 403.550 36, 404 35.550, 404 35 C 404 34.450, 403.550 34, 403 34 C 402.450 34, 402 34.450, 402 35 M 87 37 C 87 37.550, 87.450 38, 88 38 C 88.550 38, 89 37.550, 89 37 C 89 36.450, 88.550 36, 88 36 C 87.450 36, 87 36.450, 87 37 M 410.500 37 C 410.160 37.550, 410.584 38, 411.441 38 C 412.298 38, 413 37.550, 413 37 C 413 36.450, 412.577 36, 412.059 36 C 411.541 36, 410.840 36.450, 410.500 37 M 102.032 55.750 C 102.093 57.184, 104.879 60.207, 105.815 59.854 C 107.291 59.299, 105.269 55, 103.532 55 C 102.690 55, 102.014 55.337, 102.032 55.750 M 113 56 C 113 56.550, 113.477 57, 114.059 57 C 114.641 57, 114.840 56.550, 114.500 56 C 114.160 55.450, 113.684 55, 113.441 55 C 113.198 55, 113 55.450, 113 56 M 385 56 C 385 56.550, 385.450 57, 386 57 C 386.550 57, 387 56.550, 387 56 C 387 55.450, 386.550 55, 386 55 C 385.450 55, 385 55.450, 385 56 M 393.667 55.667 C 393.300 56.033, 393 57.179, 393 58.213 C 393 60.030, 393.081 60.033, 395.397 58.297 C 396.715 57.309, 397.589 56.163, 397.338 55.750 C 396.773 54.820, 394.563 54.770, 393.667 55.667 M 168.500 108.918 C 163.803 109.374, 162.595 109.826, 162.939 111 C 163.180 111.825, 163.483 115.413, 163.611 118.974 C 163.768 123.323, 164.281 125.580, 165.173 125.849 C 165.903 126.069, 167.733 127.398, 169.240 128.802 C 170.746 130.206, 172.269 131.064, 172.624 130.709 C 173.702 129.631, 178.074 109.930, 177.458 108.931 C 177.141 108.419, 176.346 108.076, 175.691 108.168 C 175.036 108.261, 171.800 108.598, 168.500 108.918 M 321.994 109.633 C 321.982 113.741, 326.404 131, 327.469 131 C 328.095 131, 329.994 129.537, 331.689 127.750 C 333.991 125.322, 334.914 123.236, 335.343 119.500 C 335.658 116.750, 336.213 113.263, 336.575 111.750 C 337.231 109.011, 337.212 109, 331.867 108.986 C 328.915 108.979, 325.488 108.701, 324.250 108.370 C 322.506 107.902, 321.999 108.186, 321.994 109.633 M 221 145.500 C 221.993 146.697, 221.993 147.303, 221 148.500 C 219.980 149.729, 220.049 150, 221.378 150 C 222.514 150, 223 149.101, 223 147 C 223 144.899, 222.514 144, 221.378 144 C 220.049 144, 219.980 144.271, 221 145.500 M 276.991 147.250 C 276.986 149.037, 276.874 157.588, 276.741 166.251 L 276.500 182.002 280.250 182.001 C 283.802 182, 284 181.831, 284 178.800 C 284 176.311, 283.733 175.867, 282.800 176.800 C 280.713 178.887, 280 178.123, 280 173.800 C 280 170.533, 280.267 169.867, 281.200 170.800 C 282.934 172.534, 284 172.276, 284 170.122 C 284 169.089, 282.988 167.571, 281.750 166.749 C 279.739 165.413, 279.483 164.364, 279.345 156.877 C 279.259 152.270, 279.099 147.488, 278.989 146.250 C 278.678 142.760, 277.001 143.599, 276.991 147.250 M 117.143 151.328 C 116.288 152.358, 116.046 162.875, 116.238 190.617 L 116.500 228.500 125.211 228.788 L 133.921 229.077 134.211 220.288 L 134.500 211.500 138.973 220.250 L 143.446 229 151.723 229 C 156.275 229, 160 228.707, 160 228.349 C 160 227.991, 155.667 219.308, 150.370 209.053 L 140.741 190.408 150.426 171.198 C 155.753 160.633, 159.835 151.541, 159.497 150.994 C 158.791 149.853, 146.039 149.659, 144.436 150.765 C 143.850 151.169, 141.375 155.433, 138.936 160.240 L 134.500 168.980 134 159.740 L 133.500 150.500 125.905 150.211 C 120.318 149.998, 118.002 150.293, 117.143 151.328 M 305.694 150.640 C 305.312 151.021, 305 168.808, 305 190.167 L 305 229 319.500 229 L 334 229 334 221.548 L 334 214.095 327.750 213.798 L 321.500 213.500 321.500 205.500 L 321.500 197.500 327.500 197 L 333.500 196.500 333.500 189.500 L 333.500 182.500 327.500 182 L 321.500 181.500 321.500 174.500 L 321.500 167.500 327.500 167 L 333.500 166.500 333.500 158.500 L 333.500 150.500 319.944 150.223 C 312.488 150.071, 306.075 150.258, 305.694 150.640 M 338.667 150.667 C 338.300 151.033, 338 168.808, 338 190.167 L 338 229 346.500 229 L 355 229 355 214 L 355 199 359.500 199 L 364 199 364 214.039 L 364 229.078 372.750 228.789 L 381.500 228.500 381.775 212.225 L 382.050 195.951 379.411 193.505 L 376.772 191.059 379.386 187.953 C 381.928 184.932, 382 184.469, 382 171.040 L 382 157.233 377.997 153.616 L 373.994 150 356.664 150 C 347.132 150, 339.033 150.300, 338.667 150.667 M 92.408 160.750 C 93.600 177.483, 94.783 179.145, 94.898 164.250 C 94.988 152.585, 94.803 151, 93.357 151 C 91.898 151, 91.792 152.091, 92.408 160.750 M 404 166.167 C 404 174.508, 404.231 181.102, 404.514 180.820 C 405.343 179.990, 408.166 153.876, 407.589 152.372 C 407.300 151.617, 406.374 151, 405.531 151 C 404.224 151, 404 153.214, 404 166.167 M 355 174.500 L 355 183 359.500 183 L 364 183 364 174.500 L 364 166 359.500 166 L 355 166 355 174.500 M 229 201 L 229 214 232.956 214 L 236.912 214 237.206 206.750 L 237.500 199.500 247.750 199.215 L 258 198.930 258 195.858 C 258 193.335, 257.687 192.910, 256.250 193.478 C 252.381 195.008, 247.865 195.187, 244.830 193.930 C 243.069 193.200, 240.361 192.699, 238.814 192.817 C 237.007 192.955, 236 192.547, 236 191.676 C 236 190.402, 232.049 188, 229.953 188 C 229.398 188, 229 193.428, 229 201 M 231 191.417 C 231 192.287, 231.713 193, 232.583 193 C 234.349 193, 234.042 190.847, 232.188 190.229 C 231.534 190.011, 231 190.546, 231 191.417 M 256 205.500 C 256 205.775, 256.225 206, 256.500 206 C 256.775 206, 257 205.775, 257 205.500 C 257 205.225, 256.775 205, 256.500 205 C 256.225 205, 256 205.225, 256 205.500 M 121.235 236.780 L 116.969 240.500 116.985 266.563 L 117 292.626 119.750 295.160 C 125.912 300.837, 126.513 301, 141.255 301 L 155.066 301 154.783 312.250 L 154.500 323.500 148 323.500 L 141.500 323.500 141.206 316.250 L 140.912 309 128.998 309 L 117.084 309 116.792 316.750 C 116.583 322.297, 116.145 324.429, 115.250 324.250 C 113.592 323.918, 113.721 326.887, 115.500 330 C 116.286 331.375, 116.945 333.878, 116.965 335.563 C 116.988 337.593, 117.927 339.480, 119.750 341.160 C 126.180 347.084, 125.765 347, 148.745 347 L 170.045 347 174.522 342.873 L 179 338.745 179 312.040 L 179 285.335 174.752 281.917 L 170.505 278.500 156.002 278 L 141.500 277.500 141.500 266.500 L 141.500 255.500 148 255.500 L 154.500 255.500 154.794 262.750 L 155.088 270 167.044 270 L 179 270 179 255.067 L 179 240.134 174.647 236.567 L 170.294 233 147.897 233.030 L 125.500 233.060 121.235 236.780 M 185.242 289.750 L 185.500 346.500 197 346.500 L 208.500 346.500 208.769 323.750 L 209.038 301 215.500 301 L 221.962 301 222.231 323.750 L 222.500 346.500 234 346.500 L 245.500 346.500 245.758 289.750 L 246.017 233 234.008 233 L 222 233 222 255.500 L 222 278 215.500 278 L 209 278 209 255.500 L 209 233 196.992 233 L 184.983 233 185.242 289.750 M 256.235 236.780 L 251.969 240.500 251.985 289.554 L 252 338.608 255.250 341.684 C 260.729 346.870, 261.432 347, 283.957 347 L 305.045 347 309.522 342.873 L 314 338.745 314 289.440 L 314 240.134 309.647 236.567 L 305.294 233 282.897 233.030 L 260.500 233.060 256.235 236.780 M 320.242 289.750 L 320.500 346.500 332 346.500 L 343.500 346.500 343.770 324.750 L 344.039 303 358.270 302.994 L 372.500 302.987 377.250 298.916 L 382 294.844 382 268.210 L 382 241.576 377.792 237.288 L 373.584 233 346.784 233 L 319.983 233 320.242 289.750 M 276.454 256.258 C 276.189 256.950, 276.091 272.138, 276.236 290.008 L 276.500 322.500 283 322.500 L 289.500 322.500 289.763 288.750 L 290.027 255 283.482 255 C 279.146 255, 276.774 255.425, 276.454 256.258 M 344.219 267.250 L 344.500 279.500 350.750 279.798 L 357 280.095 357 267.548 L 357 255 350.469 255 L 343.938 255 344.219 267.250 M 411 304.500 C 411 304.775, 411.225 305, 411.500 305 C 411.775 305, 412 304.775, 412 304.500 C 412 304.225, 411.775 304, 411.500 304 C 411.225 304, 411 304.225, 411 304.500 M 74 328 C 74 328.550, 74.477 329, 75.059 329 C 75.641 329, 75.840 328.550, 75.500 328 C 75.160 327.450, 74.684 327, 74.441 327 C 74.198 327, 74 327.450, 74 328 M 382.095 329.398 C 380.731 330.851, 380.254 332.039, 380.881 332.426 C 381.921 333.069, 385.670 328.337, 384.806 327.473 C 384.550 327.217, 383.331 328.084, 382.095 329.398 M 424 328 C 424 328.550, 424.450 329, 425 329 C 425.550 329, 426 328.550, 426 328 C 426 327.450, 425.550 327, 425 327 C 424.450 327, 424 327.450, 424 328 M 75.496 336.007 C 75.153 336.561, 75.689 337.269, 76.687 337.580 C 77.684 337.891, 79.287 338.567, 80.250 339.081 C 81.563 339.783, 82 339.634, 82 338.484 C 82 337.640, 80.846 336.512, 79.435 335.975 C 76.271 334.772, 76.259 334.773, 75.496 336.007 M 418.861 337.076 L 416.500 339.152 419 338.590 C 420.375 338.280, 422.063 338.021, 422.750 338.014 C 423.438 338.006, 424 337.325, 424 336.500 C 424 334.376, 421.630 334.641, 418.861 337.076 M 87.469 338.050 C 86.519 339.588, 87.820 340.580, 89.104 339.296 C 89.822 338.578, 89.839 338.019, 89.156 337.597 C 88.596 337.251, 87.837 337.455, 87.469 338.050 M 410 338.500 C 410 339.325, 410.450 340, 411 340 C 411.550 340, 412 339.325, 412 338.500 C 412 337.675, 411.550 337, 411 337 C 410.450 337, 410 337.675, 410 338.500 M 95 341.500 C 95 342.530, 95.655 343.020, 96.750 342.810 C 98.858 342.404, 98.725 340.629, 96.553 340.177 C 95.647 339.988, 95 340.539, 95 341.500 M 401.667 340.667 C 400.399 341.934, 401.008 343, 403 343 C 404.111 343, 405 342.333, 405 341.500 C 405 339.978, 402.885 339.449, 401.667 340.667 M 86.500 349 C 86.160 349.550, 86.584 350, 87.441 350 C 88.298 350, 89 349.550, 89 349 C 89 348.450, 88.577 348, 88.059 348 C 87.541 348, 86.840 348.450, 86.500 349 M 411 349 C 411 349.550, 411.702 350, 412.559 350 C 413.416 350, 413.840 349.550, 413.500 349 C 413.160 348.450, 412.459 348, 411.941 348 C 411.423 348, 411 348.450, 411 349 M 112.250 350.141 C 111.563 350.834, 111 352.535, 111 353.923 L 111 356.445 112.570 354.204 C 114.476 351.483, 114.215 348.163, 112.250 350.141 M 385.022 350.250 C 385.034 350.938, 385.924 352.625, 387 354 C 388.787 356.285, 388.955 356.328, 388.946 354.500 C 388.936 352.493, 386.837 349, 385.640 349 C 385.288 349, 385.010 349.563, 385.022 350.250 M 115.482 356.028 C 114.621 357.423, 115.829 368.557, 118.028 379.478 C 119.477 386.680, 120.342 388.861, 122.398 390.500 C 124.900 392.496, 124.914 392.573, 122.980 393.780 C 121.891 394.460, 121 395.925, 121 397.034 C 121 398.946, 121.154 398.972, 123.950 397.526 C 128.052 395.405, 129.990 395.658, 127.237 397.954 C 125.992 398.993, 124.470 400.010, 123.856 400.215 C 123.073 400.476, 123.246 402.336, 124.437 406.431 L 126.136 412.275 132.900 411.646 C 136.620 411.300, 141.144 410.721, 142.954 410.359 L 146.246 409.701 145.595 403.100 C 145.237 399.470, 144.687 395.063, 144.372 393.307 L 143.799 390.114 138.275 392.557 C 132.034 395.317, 132 395.326, 132 394.116 C 132 393.630, 134.442 392.241, 137.426 391.030 C 140.410 389.819, 143.105 388.170, 143.413 387.366 C 143.721 386.562, 143.547 381.783, 143.026 376.746 C 142.156 368.333, 142.261 365.928, 143.449 367.115 C 143.695 367.362, 144.429 371.706, 145.078 376.769 L 146.258 385.973 148.879 385.333 C 150.321 384.980, 151.725 384.372, 152 383.980 C 152.275 383.589, 154.412 382.299, 156.750 381.114 C 159.088 379.929, 161 378.518, 161 377.980 C 161 377.441, 161.713 377, 162.583 377 C 163.454 377, 164.017 376.601, 163.833 376.114 C 163.196 374.420, 145.066 356, 144.036 356 C 142.307 356, 142.865 357.525, 145.500 360 C 148.084 362.427, 149.064 365.128, 146.627 363.105 C 145.871 362.478, 144.520 362.247, 143.623 362.591 C 142.389 363.065, 141.839 362.446, 141.359 360.043 L 140.724 356.870 134.433 357.544 C 129.611 358.060, 127.390 357.842, 124.918 356.609 C 121.267 354.788, 116.433 354.490, 115.482 356.028 M 374.500 356.592 C 372.376 357.604, 369.550 357.857, 364.822 357.457 L 358.143 356.893 357.822 359.697 C 357.580 361.803, 356.963 362.500, 355.340 362.500 C 354.153 362.500, 352.871 362.806, 352.493 363.181 C 352.114 363.556, 351.173 363.620, 350.402 363.324 C 349.631 363.028, 349 363.284, 349 363.893 C 349 364.502, 349.547 365, 350.216 365 C 350.885 365, 349.024 367.438, 346.082 370.417 C 343.006 373.531, 340.151 375.612, 339.366 375.310 C 336.806 374.328, 337.964 377.932, 340.750 379.620 C 342.262 380.537, 344.664 382.081, 346.087 383.053 C 347.510 384.024, 349.760 384.972, 351.087 385.160 C 353.416 385.488, 353.535 385.198, 354.500 376.818 C 355.933 364.378, 357.337 364.552, 356.496 377.065 L 355.786 387.630 358.358 389.315 C 359.772 390.242, 361.534 391, 362.274 391 C 364.121 391, 367.647 393.687, 366.848 394.485 C 366.491 394.842, 363.895 393.967, 361.079 392.540 C 357.322 390.636, 355.848 390.285, 355.542 391.223 C 354.483 394.475, 353.199 408.587, 353.898 409.292 C 354.960 410.362, 367.242 412.221, 370.614 411.821 C 372.898 411.550, 373.603 410.670, 375.120 406.192 L 376.918 400.884 373.295 398.747 C 369.074 396.256, 370.426 395.135, 374.875 397.436 C 376.532 398.292, 378.084 398.657, 378.326 398.246 C 379.142 396.859, 377.076 393, 375.516 393 C 374.480 393, 374.972 392.091, 377.005 390.250 C 379.434 388.051, 380.352 385.998, 381.587 380 C 383.259 371.881, 384.913 356.964, 384.276 355.750 C 383.639 354.537, 377.747 355.045, 374.500 356.592 M 149 365.411 C 149 366.338, 159.405 375.928, 159.888 375.446 C 160.468 374.866, 150.944 365.083, 149.750 365.032 C 149.338 365.014, 149 365.185, 149 365.411 M 346 367.500 C 346 367.775, 346.225 368, 346.500 368 C 346.775 368, 347 367.775, 347 367.500 C 347 367.225, 346.775 367, 346.500 367 C 346.225 367, 346 367.225, 346 367.500 M 113.500 374 C 113.840 374.550, 114.316 375, 114.559 375 C 114.802 375, 115 374.550, 115 374 C 115 373.450, 114.523 373, 113.941 373 C 113.359 373, 113.160 373.450, 113.500 374 M 384 374 C 384 374.550, 384.450 375, 385 375 C 385.550 375, 386 374.550, 386 374 C 386 373.450, 385.550 373, 385 373 C 384.450 373, 384 373.450, 384 374 M 104.333 377.667 C 104.700 378.033, 105.300 378.033, 105.667 377.667 C 106.033 377.300, 105.733 377, 105 377 C 104.267 377, 103.967 377.300, 104.333 377.667 M 393.333 377.667 C 393.700 378.033, 394.300 378.033, 394.667 377.667 C 395.033 377.300, 394.733 377, 394 377 C 393.267 377, 392.967 377.300, 393.333 377.667 M 166 379.639 C 166 380.925, 170.826 385.508, 171.486 384.848 C 171.757 384.576, 170.634 383.065, 168.990 381.490 C 167.345 379.915, 166 379.082, 166 379.639 M 153.500 384.862 L 146.500 388.692 146.813 393.758 C 147.422 403.616, 147.933 404.400, 154.323 405.297 C 159.671 406.048, 160.268 405.912, 164.538 402.974 C 167.032 401.258, 171.054 399.179, 173.475 398.354 C 177.695 396.916, 177.866 396.702, 177.616 393.177 C 177.403 390.164, 176.993 389.538, 175.345 389.709 C 174.108 389.837, 171.652 388.202, 168.959 385.459 C 166.553 383.006, 163.665 381.007, 162.542 381.016 C 161.419 381.024, 157.350 382.755, 153.500 384.862 M 331 385.500 C 328.571 387.975, 326.035 390, 325.365 390 C 324.425 390, 321 395.159, 321 396.574 C 321 396.721, 322.311 397.129, 323.913 397.481 C 325.516 397.833, 329.748 399.883, 333.319 402.036 C 339.540 405.789, 340.054 405.922, 345.655 405.225 L 351.500 404.498 352.364 397.768 C 352.840 394.067, 352.973 390.371, 352.659 389.555 C 352.065 388.005, 339.024 381, 336.733 381 C 336.009 381, 333.429 383.025, 331 385.500 M 100 386.500 C 100 386.775, 100.225 387, 100.500 387 C 100.775 387, 101 386.775, 101 386.500 C 101 386.225, 100.775 386, 100.500 386 C 100.225 386, 100 386.225, 100 386.500 M 398.333 386.667 C 398.700 387.033, 399.300 387.033, 399.667 386.667 C 400.033 386.300, 399.733 386, 399 386 C 398.267 386, 397.967 386.300, 398.333 386.667 M 110 392.500 C 110 392.775, 110.225 393, 110.500 393 C 110.775 393, 111 392.775, 111 392.500 C 111 392.225, 110.775 392, 110.500 392 C 110.225 392, 110 392.225, 110 392.500 M 388 392.500 C 388 392.775, 388.225 393, 388.500 393 C 388.775 393, 389 392.775, 389 392.500 C 389 392.225, 388.775 392, 388.500 392 C 388.225 392, 388 392.225, 388 392.500 M 399 393.085 C 399 394.894, 400.286 396.941, 401.105 396.435 C 402.583 395.521, 402.113 392.333, 400.500 392.333 C 399.675 392.333, 399 392.672, 399 393.085 M 99.079 394.583 C 99.127 395.748, 99.364 395.985, 99.683 395.188 C 99.972 394.466, 99.936 393.603, 99.604 393.271 C 99.272 392.939, 99.036 393.529, 99.079 394.583 M 112 396.500 C 112 396.775, 112.225 397, 112.500 397 C 112.775 397, 113 396.775, 113 396.500 C 113 396.225, 112.775 396, 112.500 396 C 112.225 396, 112 396.225, 112 396.500 M 386.333 396.667 C 386.700 397.033, 387.300 397.033, 387.667 396.667 C 388.033 396.300, 387.733 396, 387 396 C 386.267 396, 385.967 396.300, 386.333 396.667 M 179.074 399.862 C 177.842 402.164, 177.628 407, 178.759 407 C 179.177 407, 180.081 406.100, 180.768 405 C 181.455 403.900, 182.726 403, 183.592 403 C 185.646 403, 184.954 401.046, 182.269 399.263 C 180.371 398.002, 180.035 398.065, 179.074 399.862 M 316.516 399.982 C 314.864 401.808, 314.794 402.258, 316.040 403.046 C 316.843 403.554, 317.837 403.976, 318.250 403.985 C 318.663 403.993, 319 404.712, 319 405.583 C 319 407.834, 321.440 406.750, 321.797 404.341 C 321.961 403.240, 321.275 401.327, 320.274 400.090 L 318.453 397.842 316.516 399.982 M 120 402.559 C 120 403.416, 120.450 403.840, 121 403.500 C 121.550 403.160, 122 402.459, 122 401.941 C 122 401.423, 121.550 401, 121 401 C 120.450 401, 120 401.702, 120 402.559 M 377.597 401.844 C 377.251 402.404, 377.455 403.163, 378.050 403.531 C 379.588 404.481, 380.580 403.180, 379.296 401.896 C 378.578 401.178, 378.019 401.161, 377.597 401.844 M 148.480 407.033 C 147.536 408.560, 148.917 410.001, 151.309 409.985 C 153.600 409.969, 156.784 408.407, 155.971 407.698 C 154.801 406.678, 149.016 406.164, 148.480 407.033 M 347 406.663 C 346.175 406.935, 344.838 407.372, 344.028 407.633 C 341.795 408.353, 344.740 409.965, 348.323 409.985 C 350.426 409.996, 351.064 409.574, 350.823 408.333 C 350.461 406.465, 349.228 405.926, 347 406.663 M 120 408 C 120 408.733, 120.300 409.033, 120.667 408.667 C 121.033 408.300, 121.033 407.700, 120.667 407.333 C 120.300 406.967, 120 407.267, 120 408 M 379 408 C 379 408.733, 379.300 409.033, 379.667 408.667 C 380.033 408.300, 380.033 407.700, 379.667 407.333 C 379.300 406.967, 379 407.267, 379 408 M 110.533 408.947 C 109.653 410.370, 110.775 412, 112.632 412 C 113.508 412, 114.010 411.297, 113.823 410.333 C 113.434 408.324, 111.437 407.484, 110.533 408.947 M 385.676 409.402 C 385.048 411.038, 385.786 412, 387.667 412 C 388.400 412, 389 411.100, 389 410 C 389 407.726, 386.492 407.275, 385.676 409.402 M 160.694 411.639 C 159.761 412.573, 160.888 414, 162.559 414 C 163.352 414, 164 413.325, 164 412.500 C 164 410.994, 161.889 410.444, 160.694 411.639 M 335.250 412.250 C 335.880 414.142, 339 414.411, 339 412.573 C 339 411.646, 338.145 411, 336.917 411 C 335.695 411, 335.005 411.517, 335.250 412.250 M 101 418 C 101 418.550, 101.477 419, 102.059 419 C 102.641 419, 102.840 418.550, 102.500 418 C 102.160 417.450, 101.684 417, 101.441 417 C 101.198 417, 101 417.450, 101 418 M 144.553 421.915 C 144.231 422.436, 144.394 423.125, 144.915 423.447 C 145.436 423.769, 146.125 423.606, 146.447 423.085 C 146.769 422.564, 146.606 421.875, 146.085 421.553 C 145.564 421.231, 144.875 421.394, 144.553 421.915 M 353 421.941 C 353 422.459, 353.450 423.160, 354 423.500 C 354.550 423.840, 355 423.416, 355 422.559 C 355 421.702, 354.550 421, 354 421 C 353.450 421, 353 421.423, 353 421.941 M 174 423 C 174 423.733, 174.300 424.033, 174.667 423.667 C 175.033 423.300, 175.033 422.700, 174.667 422.333 C 174.300 421.967, 174 422.267, 174 423 M 324 423 C 324 423.550, 324.450 424, 325 424 C 325.550 424, 326 423.550, 326 423 C 326 422.450, 325.550 422, 325 422 C 324.450 422, 324 422.450, 324 423 M 190.510 424.016 C 190.856 424.575, 191.557 424.774, 192.069 424.457 C 193.456 423.600, 193.198 423, 191.441 423 C 190.584 423, 190.165 423.457, 190.510 424.016 M 307 424 C 307 424.550, 307.450 425, 308 425 C 308.550 425, 309 424.550, 309 424 C 309 423.450, 308.550 423, 308 423 C 307.450 423, 307 423.450, 307 424 M 144.333 428.667 C 144.700 429.033, 145.300 429.033, 145.667 428.667 C 146.033 428.300, 145.733 428, 145 428 C 144.267 428, 143.967 428.300, 144.333 428.667 M 354 428.500 C 354 428.775, 354.225 429, 354.500 429 C 354.775 429, 355 428.775, 355 428.500 C 355 428.225, 354.775 428, 354.500 428 C 354.225 428, 354 428.225, 354 428.500 M 110 431 C 110 431.733, 110.300 432.033, 110.667 431.667 C 111.033 431.300, 111.033 430.700, 110.667 430.333 C 110.300 429.967, 110 430.267, 110 431 M 151 431 C 151 431.550, 151.450 432, 152 432 C 152.550 432, 153 431.550, 153 431 C 153 430.450, 152.550 430, 152 430 C 151.450 430, 151 430.450, 151 431 M 346.500 431 C 346.840 431.550, 347.541 432, 348.059 432 C 348.577 432, 349 431.550, 349 431 C 349 430.450, 348.298 430, 347.441 430 C 346.584 430, 346.160 430.450, 346.500 431 M 146 432.500 C 146 432.775, 146.225 433, 146.500 433 C 146.775 433, 147 432.775, 147 432.500 C 147 432.225, 146.775 432, 146.500 432 C 146.225 432, 146 432.225, 146 432.500 M 221.946 435.367 C 223.842 437.365, 225.545 439, 225.731 439 C 226.864 439, 223.622 434.991, 221.291 433.508 C 218.732 431.882, 218.787 432.036, 221.946 435.367 M 353 432.500 C 353 432.775, 353.225 433, 353.500 433 C 353.775 433, 354 432.775, 354 432.500 C 354 432.225, 353.775 432, 353.500 432 C 353.225 432, 353 432.225, 353 432.500 M 128.553 452.915 C 128.231 453.436, 128.394 454.125, 128.915 454.447 C 129.436 454.769, 130.125 454.606, 130.447 454.085 C 130.769 453.564, 130.606 452.875, 130.085 452.553 C 129.564 452.231, 128.875 452.394, 128.553 452.915 M 369 453 C 369 453.550, 369.450 454, 370 454 C 370.550 454, 371 453.550, 371 453 C 371 452.450, 370.550 452, 370 452 C 369.450 452, 369 452.450, 369 453 M 142.345 455.543 C 141.535 457.653, 142.887 458.793, 144.039 456.971 C 145.263 455.035, 145.239 454, 143.969 454 C 143.401 454, 142.671 454.694, 142.345 455.543 M 355 455.227 C 355 457.050, 356.773 458.561, 357.757 457.576 C 358.100 457.233, 357.620 456.192, 356.690 455.262 C 355.132 453.703, 355 453.700, 355 455.227 M 254.543 466.931 C 253.860 468.036, 255.437 469.230, 256.361 468.306 C 257.311 467.355, 257.134 466, 256.059 466 C 255.541 466, 254.859 466.419, 254.543 466.931 M 142.500 468 C 142.160 468.550, 142.359 469, 142.941 469 C 143.523 469, 144 468.550, 144 468 C 144 467.450, 143.802 467, 143.559 467 C 143.316 467, 142.840 467.450, 142.500 468 M 243.333 467.667 C 243.700 468.033, 244.300 468.033, 244.667 467.667 C 245.033 467.300, 244.733 467, 244 467 C 243.267 467, 242.967 467.300, 243.333 467.667 M 355.553 467.915 C 355.231 468.436, 355.394 469.125, 355.915 469.447 C 356.436 469.769, 357.125 469.606, 357.447 469.085 C 357.769 468.564, 357.606 467.875, 357.085 467.553 C 356.564 467.231, 355.875 467.394, 355.553 467.915 M 249.011 469.938 C 247.025 470.258, 245.406 471.146, 245.251 472 C 244.922 473.812, 248.568 480, 249.965 480 C 250.512 480, 251.907 478.142, 253.066 475.872 C 255.641 470.824, 254.439 469.064, 249.011 469.938" stroke="none" fill="#ffffff" fill-rule="evenodd"/>
</svg>