<svg xmlns="http://www.w3.org/2000/svg" width="1080" height="1080" viewBox="0 0 1080 1080" version="1.1">
	<path d="M 379.500 2.015 C 373.968 3.115, 354.106 9.913, 350.718 11.866 C 349.153 12.768, 347.583 14.788, 347.130 16.485 C 346.319 19.522, 345.937 19.640, 340.823 18.429 C 338.016 17.764, 334.917 19.648, 317.097 32.856 C 309.214 38.698, 290.526 56.148, 288.902 59.183 C 288.252 60.397, 288.299 61.691, 289.044 63.082 C 289.965 64.803, 289.696 65.832, 287.495 69.007 C 284.246 73.696, 282.015 74.773, 281.291 72.004 C 281.003 70.902, 280.407 70, 279.968 70 C 278.579 70, 271.441 78.704, 265.400 87.761 C 258.786 97.681, 258.327 98.120, 255.360 97.376 C 253.486 96.905, 253.114 97.368, 252.514 100.914 C 252.135 103.158, 251.021 105.988, 250.037 107.202 L 248.249 109.410 241.875 100.543 C 238.369 95.665, 233.472 89.160, 230.993 86.087 C 228.514 83.014, 225.145 78.700, 223.506 76.500 C 221.868 74.300, 219.305 71.218, 217.811 69.652 C 216.317 68.085, 214.336 64.485, 213.407 61.652 C 210.662 53.277, 204.786 45.927, 195.500 39.253 C 192.750 37.277, 189.037 34.298, 187.250 32.634 C 183.391 29.041, 183.146 30.012, 186.526 35.500 C 189.110 39.696, 189.869 47.089, 188.013 50 C 186.362 52.590, 183.573 49.824, 182.905 44.931 C 182.408 41.299, 181.464 39.820, 177.226 36.037 C 174.430 33.542, 168.398 29.428, 163.821 26.896 C 159.244 24.364, 152.279 20.392, 148.342 18.070 C 141.009 13.744, 120.088 6.141, 109.671 4.015 C 103.305 2.716, 101.510 3.139, 105.164 5.077 C 115.457 10.536, 148.425 37.277, 151.293 42.492 C 152.438 44.576, 154.172 57.960, 158.484 98 C 159.876 110.925, 161.955 129.375, 163.104 139 C 165.252 157.003, 165.743 160.961, 168.372 181.500 C 169.759 192.338, 170.901 202.835, 174.029 233.500 C 174.590 239, 175.713 249.893, 176.524 257.707 C 178.648 278.148, 178.520 280.560, 174.990 286.715 C 173.345 289.583, 171.189 292.364, 170.197 292.894 C 168.239 293.942, 168.965 294.298, 145.181 280.645 C 131.860 272.999, 129 271.875, 129 274.285 C 129 275.395, 158.546 293.738, 163.230 295.535 C 166.791 296.901, 166.318 299.920, 161.224 308.323 C 142.635 338.990, 128.578 369.227, 119.765 397.500 C 118.908 400.250, 116.586 407.675, 114.604 414 C 111.063 425.303, 104.426 451.887, 103.307 459.250 C 102.435 464.982, 104.545 463.838, 106.995 457.250 C 110.894 446.765, 128.106 412.729, 137.309 397.304 C 149.604 376.698, 156.721 366.904, 161.003 364.698 C 168.099 361.041, 176.269 364.554, 184.679 374.879 C 188.336 379.368, 189.050 380.919, 188.801 383.827 C 188.384 388.703, 186.774 388.767, 183.640 384.032 C 179.470 377.732, 178 378.601, 178 387.365 C 178 393.216, 178.411 395.253, 180 397.273 C 182.497 400.447, 182.497 401.240, 180 403.500 C 178.524 404.836, 178 406.580, 178 410.155 C 178 414.333, 178.275 415, 180 415 C 181.333 415, 182 415.667, 182 417 C 182 419.154, 179.571 419.732, 178.410 417.855 C 177.997 417.185, 176.585 419.160, 175.014 422.605 C 173.536 425.847, 169.784 431.650, 166.676 435.500 C 163.568 439.350, 161.020 442.740, 161.013 443.034 C 161.006 443.328, 162.313 444.344, 163.917 445.292 C 165.521 446.240, 168.784 449.125, 171.167 451.703 C 173.550 454.281, 177.810 458.890, 180.634 461.945 C 187.376 469.241, 191 474.727, 191 477.640 C 191 480.833, 188.345 480.704, 184.834 477.341 C 182.409 475.017, 181.978 474.894, 181.414 476.364 C 181.059 477.289, 181.213 479.723, 181.757 481.773 C 182.300 483.823, 182.856 485.950, 182.991 486.500 C 183.126 487.050, 183.184 490.800, 183.118 494.833 C 182.976 503.658, 182.303 503.714, 176 495.427 C 172.199 490.430, 171.452 489.849, 171.189 491.692 C 171.018 492.891, 171.762 496.939, 172.842 500.687 C 173.923 504.434, 175.836 511.505, 177.095 516.401 C 178.353 521.296, 180.336 526.471, 181.502 527.901 C 183.292 530.097, 183.575 531.585, 183.328 537.500 C 182.864 548.561, 182.562 550.329, 180.648 553.191 C 177.618 557.719, 169.440 590, 171.322 590 C 171.642 590, 173.298 587.974, 175.001 585.499 C 178.207 580.839, 182.382 576, 183.195 576 C 183.773 576, 183.252 593.375, 182.431 601.500 L 181.825 607.500 185.822 603.635 C 192.183 597.486, 193.963 601.441, 188.687 610 C 185.748 614.768, 168.764 632.914, 165.025 635.281 C 163.361 636.335, 162 637.622, 162 638.142 C 162 638.662, 164.261 641.804, 167.024 645.125 C 172.154 651.289, 177 659.713, 177 662.467 C 177 664.271, 178.151 664.449, 179.713 662.887 C 181.080 661.520, 183 662.564, 183 664.676 C 183 665.715, 182.366 666.068, 181.096 665.735 C 179.502 665.319, 179.085 665.946, 178.540 669.581 C 177.893 673.897, 179.109 678, 181.035 678 C 182.643 678, 182.116 682.215, 180.250 684.276 C 178.908 685.758, 178.500 687.972, 178.500 693.770 C 178.500 703.020, 179.737 703.851, 184.162 697.573 C 185.934 695.058, 187.748 693, 188.193 693 C 188.637 693, 189 694.743, 189 696.873 C 189 703.804, 179.036 714.836, 170.764 717.063 C 163.154 719.113, 159.242 716.421, 150.326 703 C 135.808 681.149, 116.966 646.114, 109.012 626.183 C 107.205 621.654, 105.338 617.709, 104.863 617.415 C 103.515 616.582, 103.848 623.436, 105.463 629.765 C 106.268 632.919, 108.509 641.800, 110.443 649.500 C 113.914 663.321, 122.451 690.216, 129.429 709.312 C 133.020 719.137, 147.318 748.144, 155.268 761.732 C 157.596 765.710, 161.828 771.560, 164.672 774.732 C 174.806 786.032, 176.929 788.683, 177.908 791.258 C 178.631 793.159, 177.709 805.607, 174.506 837.183 C 169.931 882.279, 167.524 904.312, 166.059 914.500 C 163.950 929.162, 160.971 953.452, 159.988 964 C 158.760 977.170, 156.450 998.138, 154.961 1009.638 C 154.401 1013.962, 153.536 1021.708, 153.038 1026.851 C 151.948 1038.097, 149.985 1041.623, 140.864 1048.715 C 137.479 1051.347, 132.862 1055.123, 130.605 1057.107 C 128.347 1059.090, 121.584 1064.239, 115.576 1068.548 C 109.567 1072.858, 105.220 1076.573, 105.916 1076.805 C 107.857 1077.452, 119.331 1074.395, 131.267 1070.050 C 142.185 1066.076, 155.099 1059.157, 170.980 1048.774 C 179.828 1042.989, 180.663 1041.935, 182.683 1034 C 183.319 1031.505, 184.133 1030.500, 185.520 1030.500 C 187.014 1030.500, 187.619 1031.430, 188.126 1034.500 C 188.819 1038.704, 186.743 1046.865, 184.632 1048.235 C 184.010 1048.639, 183.864 1048.976, 184.309 1048.985 C 185.939 1049.016, 200.799 1037.017, 205.217 1032.104 C 208.162 1028.828, 210.567 1024.771, 212.044 1020.588 C 213.298 1017.036, 215.274 1013.088, 216.435 1011.815 C 220.273 1007.606, 233.534 990.643, 239.888 981.815 C 248.263 970.179, 248.450 970.049, 250.957 974.161 C 252.076 975.997, 253.001 978.625, 253.012 980 C 253.041 983.883, 254.501 985.659, 256.380 984.100 C 258.484 982.353, 259.290 983.052, 264.559 991.197 C 270.457 1000.315, 279.776 1012, 281.150 1012 C 281.735 1012, 281.982 1011.397, 281.700 1010.659 C 281.417 1009.922, 281.566 1008.702, 282.031 1007.949 C 282.721 1006.834, 283.281 1006.944, 285.047 1008.540 C 289.119 1012.220, 291.346 1016.054, 290.123 1017.277 C 287.961 1019.439, 289.055 1021.566, 296.027 1028.748 C 307.821 1040.898, 322.362 1052.516, 338.102 1062.367 C 340.938 1064.142, 341.179 1064.148, 343.005 1062.495 C 345.491 1060.245, 348 1061.244, 348 1064.483 C 348 1067.959, 351.809 1070.110, 366.500 1074.928 C 385.585 1081.188, 392.875 1081.464, 381.750 1075.506 C 370.994 1069.746, 357.073 1058.600, 352.633 1052.191 C 351.145 1050.044, 348.831 1047.789, 347.491 1047.178 C 346.152 1046.568, 344.413 1044.590, 343.628 1042.784 C 342.843 1040.978, 339.306 1036.254, 335.768 1032.286 C 332.231 1028.318, 328.635 1023.368, 327.778 1021.286 C 326.129 1017.279, 324 1003.187, 324 996.280 C 324 991.218, 323.211 989, 321.412 989 C 319.356 989, 318.787 992.824, 319.847 999.518 C 320.866 1005.950, 320.182 1009.160, 318.292 1006.813 C 317.710 1006.091, 316.526 1002.350, 315.661 998.500 C 313.546 989.086, 311.416 983.247, 308.461 978.771 C 307.107 976.721, 306 974.408, 306 973.632 C 306 972.856, 305.066 971.159, 303.924 969.861 L 301.848 967.500 302.448 970 C 304.326 977.824, 304.370 977.584, 300.659 979.774 C 297.740 981.496, 297.075 982.518, 296.815 985.678 C 296.558 988.793, 296.074 989.560, 294.195 989.827 C 289.050 990.556, 286.834 985.162, 290.778 981.505 C 293.203 979.256, 293.273 978.959, 291.771 977.293 C 290.361 975.730, 290.332 975.179, 291.542 973 C 293.447 969.566, 293.336 967.628, 290.931 962.348 C 289.793 959.849, 289.005 957.715, 289.181 957.605 C 291.658 956.052, 296.070 955, 300.104 955 C 302.860 955, 307.159 954.485, 309.659 953.856 C 313.120 952.984, 314.377 952.992, 314.932 953.889 C 315.332 954.537, 316.270 960.729, 317.016 967.648 C 317.944 976.257, 318.866 980.727, 319.936 981.804 C 321.358 983.236, 321.525 983.157, 321.780 980.939 C 321.935 979.598, 321.673 972.875, 321.199 966 C 320.722 959.089, 320.719 952.995, 321.191 952.371 C 321.661 951.749, 323.476 950.955, 325.224 950.605 C 326.973 950.255, 329.406 949.028, 330.630 947.877 C 331.855 946.727, 333.424 945.975, 334.116 946.205 C 334.808 946.436, 336.228 945.772, 337.271 944.729 C 339.341 942.659, 340 942.852, 340.437 945.658 C 340.782 947.877, 340.920 947.872, 357.500 945.078 C 375.881 941.980, 391.989 938.237, 394.762 936.420 C 396.660 935.177, 397.006 934.305, 396.506 932.030 C 395.664 928.193, 397.769 926.996, 400.162 929.952 C 404.162 934.892, 401.196 943.578, 390.586 957.991 C 388.069 961.410, 386.257 964.607, 386.559 965.096 C 387.332 966.347, 394.365 962.568, 398.916 958.457 C 401.021 956.556, 403.387 955, 404.176 955 C 406.574 955, 417.951 946.453, 428.175 936.972 C 437.028 928.763, 438.192 928, 441.877 928 C 445.358 928, 446.561 928.656, 450.731 932.827 C 453.386 935.481, 456.247 938.069, 457.090 938.577 C 457.933 939.084, 462.159 943.550, 466.481 948.500 C 470.804 953.450, 478.118 961.409, 482.734 966.186 L 491.127 974.872 490.477 989.186 C 489.975 1000.237, 490.174 1005.096, 491.350 1010.500 C 493.990 1022.633, 494.369 1023.085, 496.252 1016.349 C 498.417 1008.608, 500.224 1006.111, 502.371 1007.893 C 503.540 1008.863, 503.700 1009.692, 502.979 1011.039 C 500.568 1015.544, 502.369 1020.647, 509.493 1029.497 C 511.266 1031.699, 513.931 1035.610, 515.417 1038.190 C 516.903 1040.769, 519.435 1043.712, 521.043 1044.730 C 524.360 1046.830, 537 1058.870, 537 1059.929 C 537 1060.311, 536.082 1061.608, 534.961 1062.811 C 532.526 1065.425, 532.865 1065.509, 537.306 1063.391 C 540.405 1061.913, 540.931 1061.913, 543.790 1063.391 C 547.715 1065.421, 548.575 1065.433, 546.571 1063.429 C 545.707 1062.564, 545 1061.045, 545 1060.052 C 545 1058.310, 551.698 1051.549, 560.139 1044.770 C 562.379 1042.972, 565.124 1039.700, 566.240 1037.500 C 567.356 1035.300, 569.574 1032.005, 571.168 1030.177 C 572.763 1028.349, 575.219 1025.030, 576.626 1022.800 C 579.198 1018.725, 579.425 1015.193, 577.497 1009.250 C 576.897 1007.401, 577.140 1007, 578.860 1007 C 581.232 1007, 583.549 1010.068, 584.525 1014.500 C 586.416 1023.085, 587.187 1022.739, 589.532 1012.254 C 590.958 1005.882, 591.149 1001.859, 590.607 989.682 L 589.948 974.864 600.367 964.182 C 606.098 958.307, 612.042 951.925, 613.577 950 C 615.111 948.075, 620.597 942.337, 625.767 937.250 C 634.463 928.693, 635.467 928, 639.166 928 C 642.818 928, 644.020 928.792, 653.076 937.169 C 663.538 946.846, 674.425 954.914, 677.095 954.968 C 677.972 954.985, 679.513 955.909, 680.519 957.021 C 683.296 960.089, 691.104 965, 693.207 965 C 695.502 965, 694.710 963.283, 688.900 955.661 C 682.615 947.414, 678.652 938.531, 679.347 934.246 C 680.467 927.350, 685 925.969, 685 932.524 C 685 934.793, 685.607 936.254, 686.818 936.903 C 688.964 938.051, 713.263 943.329, 724 944.979 C 728.125 945.613, 733.127 946.552, 735.116 947.066 C 740.190 948.377, 741 948.253, 741 946.167 C 741 945.158, 741.269 944.064, 741.598 943.736 C 742.767 942.566, 745.001 944.248, 745.079 946.357 C 745.122 947.536, 745.385 947.938, 745.662 947.250 C 746.403 945.415, 748.441 945.724, 750.482 947.980 C 751.468 949.070, 753.772 950.242, 755.602 950.585 C 757.432 950.928, 759.372 951.743, 759.914 952.396 C 760.554 953.167, 760.575 957.771, 759.973 965.541 C 758.686 982.164, 758.688 982.207, 760.750 981.810 C 762.218 981.527, 762.760 979.253, 764.115 967.705 C 765.003 960.133, 765.998 953.669, 766.326 953.340 C 766.655 953.012, 768.940 953.251, 771.405 953.872 C 773.869 954.492, 778.140 955, 780.896 955 C 784.968 955, 789.593 956.118, 791.866 957.652 C 792.068 957.788, 791.182 960.435, 789.897 963.535 C 787.632 968.999, 787.614 969.263, 789.312 972.221 C 790.971 975.111, 790.972 975.373, 789.338 977.179 C 787.692 978.998, 787.736 979.200, 790.306 981.583 C 793.447 984.496, 793.508 984.829, 791.443 987.777 C 788.672 991.734, 784 990.022, 784 985.050 C 784 983.360, 782.804 981.489, 780.453 979.500 C 777.097 976.662, 776.967 976.325, 778.043 973.271 C 779.970 967.803, 778.359 967.202, 775.976 972.500 C 774.739 975.250, 772.925 978.643, 771.944 980.041 C 769.897 982.959, 766.631 992.903, 765.007 1001.163 C 764.328 1004.619, 763.279 1007.063, 762.317 1007.432 C 760.921 1007.968, 760.820 1006.998, 761.445 999.016 C 762.056 991.209, 761.933 989.911, 760.532 989.374 C 759.642 989.032, 758.754 988.921, 758.558 989.126 C 758.363 989.332, 757.502 995.962, 756.645 1003.861 C 754.854 1020.361, 753.743 1023.166, 745.331 1032.427 C 742.297 1035.767, 738.938 1040.205, 737.866 1042.290 C 736.795 1044.374, 734.916 1046.537, 733.691 1047.095 C 732.466 1047.653, 730.382 1049.687, 729.061 1051.615 C 724.437 1058.365, 708.198 1071.305, 698.404 1076.046 C 695.982 1077.219, 694 1078.639, 694 1079.203 C 694 1080.876, 702.234 1079.180, 714.351 1075.012 C 732.144 1068.893, 731.919 1069.016, 733.061 1064.772 C 734.177 1060.630, 734.971 1060.280, 738.299 1062.460 C 741.001 1064.231, 741.068 1064.198, 755.322 1054.221 C 765.818 1046.874, 779.714 1034.735, 788.244 1025.461 C 791.663 1021.744, 792.636 1020.039, 791.955 1018.961 C 790.257 1016.277, 790.971 1013.829, 794.475 1010.325 C 798.030 1006.770, 800.575 1006.694, 799.666 1010.170 C 798.280 1015.468, 806.831 1005.951, 816.666 991.250 C 820.047 986.196, 822.858 983, 823.923 983 C 824.880 983, 826.241 981.763, 826.948 980.250 C 829.516 974.759, 830.861 972.546, 831.825 972.225 C 832.365 972.045, 836.699 977.208, 841.455 983.699 C 851.626 997.580, 858.573 1006.611, 862.647 1011.251 C 864.263 1013.091, 866.597 1017.371, 867.833 1020.762 C 870.423 1027.864, 876.922 1035.542, 886.365 1042.651 C 889.739 1045.191, 893.073 1047.723, 893.773 1048.276 C 894.742 1049.043, 894.884 1048.832, 894.368 1047.391 C 893.995 1046.351, 893.329 1045.028, 892.889 1044.450 C 891.405 1042.506, 890.832 1035.522, 891.923 1032.677 C 893.683 1028.088, 896.249 1029.575, 897.670 1036.010 C 898.633 1040.366, 899.663 1042.157, 902.657 1044.681 C 906.006 1047.503, 919.439 1055.683, 934.749 1064.222 C 941.323 1067.888, 963.836 1075.599, 970.500 1076.466 C 976.398 1077.234, 976.811 1077.700, 962 1066.891 C 944.224 1053.919, 931.565 1042.993, 929.349 1038.709 C 927.653 1035.429, 925.097 1015.077, 918.460 952 C 917.563 943.475, 915.958 930.425, 914.894 923 C 913.830 915.575, 912.511 905.900, 911.963 901.500 C 910.892 892.891, 910.808 892.078, 905.543 839.500 C 903.615 820.250, 901.803 802.925, 901.516 801 C 900.724 795.695, 904.535 788.957, 916.734 774.095 C 924.626 764.479, 929.342 756.628, 939.612 736 C 946.689 721.788, 953.496 705.399, 958.511 690.500 C 962.656 678.187, 970.063 653.227, 972.013 645 C 973.252 639.775, 975.106 632.232, 976.133 628.239 C 979.701 614.362, 977.647 612.951, 972.489 625.736 C 969.576 632.957, 952.899 666.836, 948.083 675.318 C 939.559 690.326, 927.804 708.353, 923.684 712.731 C 916.801 720.047, 909.041 719.207, 900.018 710.168 C 892.275 702.412, 890.845 700.027, 891.617 696.164 C 891.965 694.424, 892.622 693, 893.077 693 C 893.532 693, 895.297 695.025, 897 697.500 C 901.578 704.155, 903 703.535, 903 694.886 C 903 689.429, 902.492 686.869, 900.820 683.893 L 898.639 680.013 900.820 677.692 C 902.544 675.857, 903 674.155, 903 669.558 C 903 662.258, 906.857 653.987, 914.690 644.491 C 917.707 640.834, 920.023 637.735, 919.837 637.606 C 919.652 637.476, 918.017 636.463, 916.204 635.355 C 913.104 633.459, 898.558 618.208, 893.367 611.411 C 889.868 606.829, 888.370 602.007, 890.112 600.931 C 891.070 600.339, 892.646 601.202, 895.247 603.741 L 899 607.406 899 602.637 C 899 600.014, 898.608 597.111, 898.128 596.184 C 897.648 595.258, 897.482 590.771, 897.759 586.213 C 898.246 578.173, 898.317 577.977, 900.145 579.631 C 901.181 580.569, 903.260 583.285, 904.765 585.666 C 910.391 594.572, 910.353 590.484, 904.615 569.703 C 902.180 560.881, 899.556 553.375, 898.672 552.703 C 897.528 551.833, 897.075 549.702, 897.033 545 C 896.935 534.001, 897.572 530.048, 899.772 527.998 C 900.899 526.947, 902.129 524.606, 902.503 522.794 C 902.878 520.982, 904.719 513.990, 906.593 507.255 C 908.467 500.520, 910 493.551, 910 491.768 L 910 488.527 906.364 494.013 C 901.964 500.651, 899.017 504, 897.576 504 C 896.213 504, 896.442 487.133, 897.880 481.501 C 899.231 476.213, 897.917 474.946, 894.047 477.807 C 892.416 479.013, 890.613 480, 890.040 480 C 888.070 480, 889.006 475.382, 891.876 470.946 C 895.901 464.723, 910.812 448.492, 915.311 445.435 L 919.059 442.888 913.575 436.282 C 910.560 432.649, 906.834 427.072, 905.296 423.888 C 902.952 419.036, 902.158 418.185, 900.386 418.625 C 897.149 419.427, 896.376 416.188, 899.519 414.993 C 901.618 414.195, 902 413.401, 902 409.839 C 902 406.922, 901.347 404.934, 899.873 403.365 C 898.704 402.120, 898.047 400.516, 898.413 399.801 C 898.779 399.085, 899.729 397.375, 900.524 396 C 902.132 393.221, 902.571 380.471, 901.091 379.556 C 900.225 379.021, 896.175 383.182, 894.038 386.803 C 893.160 388.291, 892.907 388.316, 891.982 387 C 889.044 382.821, 894.786 372.972, 903.932 366.500 C 909.281 362.715, 915.924 362.376, 920.517 365.652 C 923.570 367.830, 932.835 381.156, 943.135 398.184 C 949.728 409.083, 970.191 449.681, 972.024 455.500 C 973.605 460.516, 975.579 463.489, 976.423 462.124 C 977.799 459.897, 967.869 421.289, 964.493 415.738 C 959.965 408.295, 959.533 407.646, 957.750 405.616 C 956.788 404.520, 956 403.249, 956 402.792 C 956 402.334, 954.767 400.057, 953.261 397.730 C 951.754 395.404, 945.533 383.600, 939.436 371.500 C 932.064 356.870, 927.885 349.607, 926.963 349.821 C 924.001 350.506, 916.866 347.629, 914.473 344.786 C 910.451 340.006, 911.799 337.102, 916.527 340.358 C 917.612 341.105, 920.188 342.025, 922.250 342.403 C 925.889 343.070, 926.885 342.402, 925.160 340.450 C 924.698 339.928, 923.731 337.925, 923.010 336 C 921.839 332.871, 920.629 329.876, 917.959 323.500 C 917.498 322.400, 916.129 318.674, 914.915 315.219 C 913.702 311.765, 912.325 308.701, 911.855 308.410 C 911.385 308.120, 911 306.964, 911 305.842 C 911 304.720, 910.325 302.272, 909.500 300.401 C 907.638 296.180, 905.695 291.509, 904.007 287.199 C 903.099 284.879, 902.890 281.013, 903.305 274.199 C 904.120 260.795, 911.626 188.984, 914.077 171.140 C 915.995 157.179, 916.727 151.469, 919.003 132.750 C 919.554 128.213, 920.465 119.100, 921.025 112.500 C 921.987 101.189, 922.797 94.017, 924.981 77.500 C 925.490 73.650, 926.410 65.550, 927.026 59.500 C 928.648 43.573, 929.202 42.026, 935.303 36.399 C 945.433 27.058, 969.716 8.363, 976.293 4.843 C 979.780 2.977, 976.786 2.774, 969.773 4.400 C 956.260 7.534, 939.156 14.184, 928.330 20.512 C 901.170 36.388, 898 39.055, 898 46.034 C 898 50.433, 896.065 52.129, 893.487 49.989 C 891.204 48.095, 891.681 41.426, 894.500 35.813 C 895.875 33.076, 897 30.595, 897 30.301 C 897 30.008, 895.270 31.282, 893.156 33.134 C 891.042 34.985, 886.791 38.421, 883.709 40.768 C 875.992 46.645, 871.597 52.327, 868.077 60.975 C 866.431 65.020, 863.553 69.943, 861.681 71.915 C 859.809 73.887, 856.418 77.975, 854.145 81 C 830.143 112.939, 832.233 110.438, 830.647 109.122 C 829.965 108.556, 828.594 105.380, 827.601 102.066 C 826.010 96.753, 825.578 96.155, 823.964 97.020 C 822.956 97.559, 821.899 98, 821.614 98 C 821.330 98, 818.997 94.738, 816.431 90.750 C 810.784 81.976, 801.276 70, 799.957 70 C 799.431 70, 799 70.675, 799 71.500 C 799 74.206, 795.155 73.070, 792.491 69.577 C 790.310 66.718, 789.996 65.540, 790.580 62.424 C 791.277 58.712, 791.227 58.644, 780.157 48.020 C 774.039 42.149, 765.313 34.713, 760.767 31.495 C 756.220 28.277, 750.208 23.924, 747.408 21.822 C 742.060 17.808, 740.156 17.311, 736.870 19.069 C 734.346 20.420, 732 18.707, 732 15.514 C 732 12.884, 726.264 10.065, 711 5.195 C 698.422 1.183, 693.835 0.406, 694.607 2.419 C 694.925 3.247, 696.073 4.206, 697.159 4.551 C 702.131 6.129, 717.285 17.590, 724.751 25.420 C 729.251 30.139, 733.389 34, 733.946 34 C 734.503 34, 735.934 35.912, 737.125 38.250 C 738.315 40.587, 741.984 45.425, 745.277 49 C 748.571 52.575, 751.925 57.055, 752.732 58.955 C 754.257 62.547, 756.977 80.665, 756.992 87.323 C 756.998 90.432, 757.327 91.080, 758.750 90.790 C 760.263 90.481, 760.463 89.398, 760.223 82.792 C 759.953 75.330, 760.805 72.766, 762.728 75.261 C 763.253 75.942, 764.732 80.938, 766.013 86.363 C 767.294 91.788, 769.414 97.804, 770.723 99.733 C 772.032 101.662, 774.037 105.228, 775.179 107.658 C 777.512 112.620, 778.824 112.801, 777.125 107.928 C 776.091 104.963, 776.248 104.542, 779.509 101.556 C 781.753 99.500, 783 97.445, 783 95.801 C 783 92.469, 785.312 90.611, 788.472 91.404 C 792.075 92.308, 792.883 96.431, 790.048 99.449 C 788.131 101.489, 788.019 102.057, 789.166 103.894 C 790.220 105.582, 790.235 106.394, 789.241 107.986 C 787.557 110.682, 787.681 114.483, 789.572 118.140 C 790.437 119.812, 790.899 121.822, 790.598 122.605 C 789.761 124.786, 785.175 126.204, 778 126.501 C 774.425 126.649, 770.274 127.093, 768.775 127.487 C 765.170 128.436, 764.560 126.791, 762.845 111.500 C 761.791 102.098, 761.175 99.500, 760 99.500 C 758.763 99.500, 758.585 100.728, 758.987 106.500 C 759.254 110.350, 759.479 117.079, 759.487 121.453 L 759.500 129.405 755.239 130.642 C 752.895 131.323, 750.276 132.582, 749.417 133.440 C 748.559 134.298, 746.989 135, 745.929 135 C 744.868 135, 744 135.450, 744 136 C 744 137.950, 740.230 136.989, 739.684 134.899 C 739.382 133.744, 738.767 133.026, 738.317 133.303 C 737.868 133.581, 731.425 134.801, 724 136.016 C 705.326 139.070, 689.055 142.734, 686.377 144.489 C 684.994 145.395, 684.009 147.189, 683.815 149.154 C 683.642 150.909, 682.964 152.522, 682.309 152.737 C 680.895 153.201, 678 147.995, 678 144.988 C 678 141.758, 682.513 132.928, 688.032 125.357 C 692.480 119.256, 694.021 116, 692.460 116 C 690.970 116, 684.108 120.216, 681.188 122.926 C 679.367 124.617, 677.309 126, 676.616 126 C 674.142 126, 660.356 136.328, 652 144.441 C 642.707 153.464, 639.651 154.905, 634.953 152.476 C 631.530 150.706, 619.037 138.794, 613.479 132 C 611.453 129.525, 605.366 122.949, 599.952 117.388 C 594.537 111.826, 589.803 106.062, 589.430 104.578 C 589.058 103.095, 589.264 97.903, 589.887 93.041 C 591.022 84.189, 590.348 74.740, 587.942 65.792 C 586.521 60.503, 585.393 60.381, 584.135 65.377 C 582.741 70.913, 580.039 74.333, 578.060 73.068 C 576.923 72.341, 576.833 71.447, 577.635 68.823 C 579.086 64.079, 577.857 60.758, 571.648 52.645 C 568.640 48.715, 565.646 44.327, 564.994 42.893 C 564.342 41.459, 559.352 36.361, 553.905 31.564 C 547.084 25.559, 544 22.167, 544 20.672 C 544 18.791, 543.419 18.488, 539.669 18.408 C 535.765 18.325, 535.378 18.527, 535.746 20.451 C 536.061 22.101, 534.354 24.163, 528.214 29.543 C 523.848 33.369, 519.517 37.175, 518.591 38 C 517.666 38.825, 515.114 42.200, 512.922 45.500 C 510.730 48.800, 507.369 53.698, 505.453 56.385 C 500.958 62.690, 500.332 65.376, 502.364 69.637 C 503.880 72.816, 503.878 73.109, 502.341 73.699 C 499.982 74.605, 496.149 69.783, 495.373 64.934 C 494.185 57.500, 491.854 62.727, 489.547 78 C 489.256 79.925, 489.448 86.344, 489.972 92.264 C 490.496 98.185, 490.604 103.884, 490.213 104.929 C 489.821 105.974, 484.727 111.930, 478.893 118.164 C 473.058 124.399, 466.759 131.300, 464.895 133.500 C 459.187 140.235, 446.650 151.902, 443.894 153.044 C 440.005 154.655, 436.424 152.675, 426.923 143.657 C 418.447 135.611, 405.663 126, 403.438 126 C 402.751 126, 400.271 124.398, 397.927 122.439 C 392.500 117.905, 388.024 115.576, 386.898 116.702 C 386.402 117.198, 387.972 120.145, 390.539 123.537 C 393.022 126.817, 396.628 132.650, 398.553 136.500 C 402.403 144.200, 402.477 148.353, 398.824 151.659 C 397.149 153.175, 396.748 153.217, 395.949 151.960 C 395.439 151.157, 395.240 149.905, 395.507 149.178 C 396.326 146.948, 394.183 144.214, 390.758 143.116 C 386.121 141.630, 374.762 139.316, 358 136.443 C 350.025 135.076, 342.963 133.854, 342.306 133.729 C 341.649 133.603, 340.472 134.367, 339.689 135.427 C 338.305 137.304, 338.166 137.307, 334.384 135.546 C 332.248 134.551, 329.874 133.233, 329.109 132.618 C 328.344 132.003, 326.094 131.029, 324.109 130.454 L 320.500 129.408 320.742 114.123 C 320.929 102.310, 320.702 98.931, 319.742 99.247 C 318.505 99.654, 318.145 101.389, 315.738 118.500 C 314.516 127.186, 314.386 127.492, 311.986 127.268 C 310.619 127.141, 306.350 126.846, 302.500 126.612 C 290.131 125.862, 287.206 123.763, 290.500 118 C 292.279 114.889, 292.390 110.597, 290.759 107.986 C 289.765 106.394, 289.780 105.582, 290.834 103.894 C 291.976 102.065, 291.876 101.497, 290.075 99.580 C 286.330 95.593, 288.212 90.461, 293.158 91.173 C 294.847 91.417, 295.607 92.394, 296.136 95 C 296.570 97.142, 298.094 99.543, 300.063 101.190 C 302.888 103.551, 303.210 104.316, 302.703 107.440 C 302.386 109.398, 302.286 111, 302.482 111 C 302.678 111, 304.906 107.206, 307.434 102.569 C 310.421 97.088, 312.757 91.019, 314.108 85.227 C 316.408 75.364, 317.259 73.424, 318.854 74.410 C 319.564 74.849, 319.722 77.791, 319.318 83.038 C 318.782 89.980, 318.912 91, 320.333 91 C 322.274 91, 322.530 89.901, 324.056 75 C 324.704 68.675, 326.020 61.700, 326.981 59.500 C 327.942 57.300, 331.534 52.350, 334.964 48.500 C 338.394 44.650, 342.047 39.845, 343.083 37.823 C 344.119 35.800, 345.834 33.870, 346.894 33.534 C 347.955 33.197, 350.065 31.252, 351.584 29.211 C 356.853 22.130, 368.627 12.341, 378.675 6.686 C 381.789 4.934, 384.523 2.938, 384.752 2.250 C 385.208 0.876, 385.223 0.876, 379.500 2.015 M 537.283 28.250 C 534.367 31.426, 529 42.484, 529 45.316 C 529 48.487, 532.359 51.498, 534.713 50.437 C 535.696 49.994, 539.650 49.376, 543.500 49.065 C 550.174 48.526, 550.514 48.376, 550.808 45.832 C 551.266 41.879, 542.711 26, 540.123 26 C 539.697 26, 538.419 27.012, 537.283 28.250 M 167.500 40 C 167.160 40.550, 167.610 41, 168.500 41 C 169.390 41, 169.840 40.550, 169.500 40 C 169.160 39.450, 168.710 39, 168.500 39 C 168.290 39, 167.840 39.450, 167.500 40 M 911.500 40 C 911.160 40.550, 911.610 41, 912.500 41 C 913.390 41, 913.840 40.550, 913.500 40 C 913.160 39.450, 912.710 39, 912.500 39 C 912.290 39, 911.840 39.450, 911.500 40 M 299.649 51.471 C 299.083 52.948, 301.365 56, 303.036 56 C 304.712 56, 305.991 52.391, 304.753 51.153 C 303.140 49.540, 300.323 49.715, 299.649 51.471 M 774.994 51.507 C 773.891 52.836, 773.918 53.347, 775.158 54.587 C 777.179 56.608, 780.191 55.341, 779.803 52.633 C 779.426 50.007, 776.758 49.382, 774.994 51.507 M 158.444 57.250 C 158.829 60.138, 159.535 67, 160.012 72.500 C 160.488 78, 161.558 88.125, 162.389 95 C 163.220 101.875, 164.620 114.025, 165.500 122 C 166.379 129.975, 167.794 141.675, 168.644 148 C 169.494 154.325, 170.304 163.822, 170.445 169.104 C 170.586 174.386, 171.063 179.292, 171.504 180.007 C 171.946 180.722, 172.655 184.950, 173.080 189.404 C 173.505 193.857, 174.560 203.350, 175.425 210.500 C 176.290 217.650, 178.140 233.850, 179.534 246.500 C 180.929 259.150, 182.545 270.623, 183.126 271.996 L 184.181 274.491 186.510 271.783 C 187.792 270.293, 189.380 266.470, 190.041 263.287 C 190.701 260.104, 192.307 253.115, 193.609 247.755 C 196.505 235.838, 197.981 223.521, 197.992 211.184 C 198 201.306, 196.884 197.447, 194.304 198.437 C 192.507 199.127, 192.762 197.558, 195.821 189.138 C 197.538 184.409, 197.786 180.812, 197.918 158.638 C 198.039 138.264, 197.767 132.497, 196.483 128.208 L 194.898 122.917 197.949 119.065 C 199.627 116.946, 201 114.693, 201 114.059 C 201 110.134, 184.130 81.150, 174.841 69.115 C 173.828 67.803, 173 65.531, 173 64.065 C 173 60.994, 171.367 59, 168.851 59 C 167.889 59, 165.900 57.425, 164.432 55.500 C 162.942 53.546, 160.875 52, 159.752 52 C 157.905 52, 157.799 52.425, 158.444 57.250 M 916.646 55.523 C 915.076 57.435, 913.028 59, 912.096 59 C 909.499 59, 908 61.064, 908 64.641 C 908 66.424, 907.571 68.147, 907.047 68.471 C 903.002 70.971, 879.823 110.947, 879.697 115.641 C 879.680 116.268, 880.259 118.212, 880.984 119.961 C 882.084 122.618, 882.696 123.042, 884.703 122.538 C 886.932 121.979, 887.020 122.100, 885.924 124.218 C 885.274 125.473, 884.013 127.334, 883.122 128.354 C 881.685 129.996, 881.464 135.605, 881.188 177.514 C 880.862 227.010, 880.858 226.940, 885.757 246.500 C 887.410 253.100, 889.276 260.991, 889.905 264.036 C 890.613 267.466, 892.052 270.655, 893.689 272.420 C 898.290 277.382, 898.069 278.381, 904.038 225.500 C 905.156 215.600, 906.975 201.200, 908.081 193.500 C 909.187 185.800, 910.252 175.675, 910.448 171 C 910.644 166.325, 911.957 153.050, 913.367 141.500 C 917.672 106.222, 922.942 57.874, 922.988 53.250 C 923.012 50.819, 919.463 52.091, 916.646 55.523 M 524.607 54.582 C 523.610 57.180, 523.914 59, 525.345 59 C 527.230 59, 530.333 55.347, 529.539 54.063 C 528.542 52.451, 525.294 52.792, 524.607 54.582 M 551 55 C 551 56.506, 551.522 57.046, 552.750 56.810 C 553.712 56.624, 554.500 55.810, 554.500 55 C 554.500 54.190, 553.712 53.376, 552.750 53.190 C 551.522 52.954, 551 53.494, 551 55 M 198.561 62.582 C 196.364 64.778, 197.053 66.429, 200.327 66.816 C 202.416 67.064, 203 66.708, 203 65.189 C 203 62.058, 200.534 60.609, 198.561 62.582 M 878.363 63.497 C 878.017 64.398, 878.196 65.596, 878.761 66.161 C 880.391 67.791, 883.500 66.692, 883.500 64.486 C 883.500 61.943, 879.272 61.128, 878.363 63.497 M 179.250 66.662 C 177.175 67.500, 177.704 72, 179.878 72 C 182.737 72, 184.558 69.377, 183 67.500 C 181.696 65.928, 181.292 65.838, 179.250 66.662 M 899.152 66.885 C 897.127 68.168, 898.202 71.455, 900.765 71.820 C 903.452 72.203, 904.771 69.634, 902.989 67.487 C 901.575 65.783, 901.026 65.697, 899.152 66.885 M 299.339 77.560 C 298.673 79.296, 303.540 85, 305.687 85 C 307.487 85, 307.340 80.931, 305.443 78.223 C 303.645 75.655, 300.213 75.282, 299.339 77.560 M 774.557 78.223 C 772.660 80.931, 772.513 85, 774.313 85 C 776.460 85, 781.327 79.296, 780.661 77.560 C 779.787 75.282, 776.355 75.655, 774.557 78.223 M 210.553 78.915 C 210.231 79.436, 210.394 80.125, 210.915 80.447 C 211.436 80.769, 212.125 80.606, 212.447 80.085 C 212.769 79.564, 212.606 78.875, 212.085 78.553 C 211.564 78.231, 210.875 78.394, 210.553 78.915 M 868.694 78.639 C 867.895 79.438, 868.798 81, 870.059 81 C 870.577 81, 871 80.325, 871 79.500 C 871 77.954, 869.820 77.513, 868.694 78.639 M 271.576 84.321 C 269.270 86.007, 270.092 89, 272.862 89 C 275.291 89, 276.230 86.696, 274.670 84.563 C 273.636 83.150, 273.222 83.117, 271.576 84.321 M 804.949 85.095 C 803.606 87.605, 804.869 89.364, 807.632 88.832 C 810.223 88.333, 810.517 85.347, 808.102 84.055 C 806.436 83.163, 805.886 83.344, 804.949 85.095 M 211.036 110.456 C 209.427 112.396, 210.330 113.616, 213.904 114.331 C 215.933 114.737, 216.952 115.601, 217.175 117.108 C 217.603 119.991, 220.522 121.878, 222.105 120.295 C 222.791 119.609, 222.946 118.392, 222.484 117.317 C 222.054 116.318, 221.798 114.518, 221.914 113.319 C 222.288 109.459, 213.732 107.208, 211.036 110.456 M 235 109.918 C 235 112.154, 236.356 114, 238 114 C 240.198 114, 241.244 111.644, 239.722 110.122 C 238.373 108.773, 235 108.627, 235 109.918 M 841.667 109.667 C 840.500 110.833, 840.949 113.766, 842.378 114.315 C 844.117 114.982, 846 113.155, 846 110.800 C 846 109.035, 843.065 108.268, 841.667 109.667 M 861 109.980 C 860.175 110.502, 859.456 112.182, 859.402 113.714 C 859.348 115.247, 859.123 117.148, 858.902 117.941 C 858.080 120.885, 861.542 120.051, 862.683 117.029 C 863.609 114.576, 864.402 114, 866.854 114 C 870.384 114, 871.680 112.524, 869.964 110.456 C 868.604 108.818, 863.282 108.536, 861 109.980 M 593 119.443 C 593 119.686, 593.934 121.469, 595.075 123.403 C 597.160 126.937, 603.855 132.338, 610.131 135.549 L 613.500 137.274 611.500 134.897 C 610.400 133.589, 608.600 131.861, 607.500 131.056 C 606.400 130.251, 602.984 127.209, 599.910 124.296 C 594.834 119.488, 593 118.199, 593 119.443 M 308.192 133.075 C 308.389 133.666, 308.978 134.150, 309.500 134.150 C 310.022 134.150, 310.611 133.666, 310.808 133.075 C 311.005 132.484, 310.417 132, 309.500 132 C 308.583 132, 307.995 132.484, 308.192 133.075 M 769 132.941 C 769 133.459, 769.450 134.160, 770 134.500 C 770.550 134.840, 771 134.416, 771 133.559 C 771 132.702, 770.550 132, 770 132 C 769.450 132, 769 132.423, 769 132.941 M 319.349 135.534 C 318.536 137.652, 320.412 138.835, 323.614 138.223 C 326.991 137.577, 326.344 134.599, 322.736 134.183 C 320.886 133.970, 319.779 134.411, 319.349 135.534 M 754.667 134.667 C 753.321 136.012, 754.058 137.782, 756.198 138.342 C 758.821 139.028, 761.099 137.422, 760.334 135.427 C 759.777 133.975, 755.881 133.453, 754.667 134.667 M 306.250 139.708 C 304.520 140.343, 304.674 143, 306.441 143 C 308.260 143, 309.505 141.081, 308.363 140.038 C 307.888 139.605, 306.938 139.456, 306.250 139.708 M 771.598 139.736 C 770.281 141.052, 771.117 143, 773 143 C 774.100 143, 775 142.373, 775 141.607 C 775 140.099, 772.571 138.762, 771.598 139.736 M 408.685 150.458 C 406.716 152.427, 407.539 155, 410.138 155 C 412.682 155, 413.660 152.231, 411.780 150.351 C 410.454 149.026, 410.105 149.038, 408.685 150.458 M 667.170 152.170 C 667.390 153.723, 668.277 154.610, 669.830 154.830 C 671.769 155.105, 672.105 154.769, 671.830 152.830 C 671.610 151.277, 670.723 150.390, 669.170 150.170 C 667.231 149.895, 666.895 150.231, 667.170 152.170 M 306.061 152.962 C 304.265 154.072, 305.177 157.410, 307.392 157.837 C 309.470 158.237, 311.078 156.366, 310.330 154.418 C 309.678 152.717, 307.602 152.010, 306.061 152.962 M 370.480 153.032 C 370.092 153.660, 370.245 154.645, 370.820 155.220 C 372.164 156.564, 375.297 155.392, 374.750 153.749 C 374.194 152.078, 371.364 151.602, 370.480 153.032 M 705 154 C 705 155.273, 705.667 156, 706.833 156 C 709.193 156, 709.998 155.159, 709.324 153.402 C 708.475 151.190, 705 151.671, 705 154 M 770.038 153.454 C 767.509 156.501, 770.536 159.221, 774 157.013 C 775.139 156.287, 775.242 155.643, 774.429 154.338 C 772.942 151.953, 771.521 151.667, 770.038 153.454 M 426 159 C 426 159.733, 426.300 160.033, 426.667 159.667 C 427.033 159.300, 427.033 158.700, 426.667 158.333 C 426.300 157.967, 426 158.267, 426 159 M 342.011 174.487 C 340.348 176.490, 341.527 180.715, 343.965 181.489 C 346.558 182.312, 350 180.390, 350 178.120 C 350 175.970, 346.979 173, 344.794 173 C 343.942 173, 342.690 173.669, 342.011 174.487 M 731.648 174.268 C 727.906 177.004, 731.785 183.887, 735.683 181.428 C 738.563 179.612, 739.618 177.205, 738.393 175.250 C 736.980 172.996, 733.984 172.560, 731.648 174.268 M 797.848 178.477 C 797.656 178.664, 791.875 179.597, 785 180.551 C 778.125 181.505, 771.884 182.770, 771.132 183.363 C 770.082 184.190, 769.914 186.192, 770.408 191.970 C 771.336 202.827, 773.238 215, 774.006 215 C 774.718 215, 776.372 213.299, 786.158 202.503 C 789.646 198.655, 793.175 194.763, 794 193.854 C 794.825 192.946, 796.497 191.098, 797.715 189.747 C 800.575 186.575, 801.843 179.537, 799.702 178.716 C 798.873 178.398, 798.039 178.291, 797.848 178.477 M 280.558 185.127 C 280.935 188.632, 282.073 192.850, 283.086 194.500 C 285.246 198.016, 303.435 216, 304.832 216 C 306.313 216, 306.675 214.363, 308.553 199.136 C 309.817 188.893, 310.005 184.605, 309.222 183.822 C 308.049 182.649, 297.634 180.641, 286.686 179.477 L 279.873 178.753 280.558 185.127 M 315.517 183.626 C 314.618 184.525, 314.027 186.424, 314.196 187.876 C 314.437 189.958, 315.115 190.570, 317.477 190.838 C 321.040 191.243, 331.828 189.088, 332.615 187.813 C 333.703 186.053, 330.903 184.257, 325.324 183.136 C 317.999 181.665, 317.450 181.693, 315.517 183.626 M 754.054 183.091 C 749.225 184.038, 745.967 186.422, 747.543 187.857 C 748.815 189.014, 757.153 191, 760.743 191 C 765.792 191, 767.721 186.867, 764.171 183.655 C 762.179 181.852, 760.773 181.774, 754.054 183.091 M 380.964 190.036 C 379.114 191.886, 378.903 192.867, 379.500 196.849 C 380.496 203.489, 383.721 209, 386.613 209 C 388.484 209, 396.279 201.337, 395.817 199.952 C 395.604 199.313, 393.725 198.204, 391.641 197.487 C 386.964 195.879, 386.918 195.833, 386.108 191.876 C 385.280 187.824, 383.730 187.270, 380.964 190.036 M 694.667 188.667 C 694.300 189.033, 694 190.351, 694 191.594 C 694 194.155, 689.699 198, 686.834 198 C 683.069 198, 683.491 201.135, 687.796 205.151 C 690.066 207.268, 692.584 209, 693.393 209 C 698.130 209, 702.277 193.420, 698.536 189.679 C 696.732 187.875, 695.723 187.611, 694.667 188.667 M 323.788 193.839 C 312.639 195.632, 312.618 195.655, 311.539 207 C 309.690 226.431, 309.687 226.874, 311.391 229.473 C 313.450 232.617, 317 232.890, 317 229.904 C 317 228.751, 317.733 225.288, 318.628 222.208 C 320.007 217.464, 320.084 215.388, 319.129 208.636 C 318.509 204.252, 318.137 200.530, 318.302 200.364 C 318.468 200.199, 321.369 203.312, 324.751 207.282 C 328.132 211.252, 332.737 216.294, 334.984 218.487 C 338.905 222.313, 339.400 222.499, 347.285 223.102 C 352.991 223.539, 356.263 223.349, 358 222.481 C 359.375 221.794, 364.196 220.910, 368.713 220.515 C 375.338 219.937, 377.416 219.344, 379.463 217.447 C 383.163 214.018, 382.694 212.253, 377.750 210.998 C 368.581 208.669, 361.893 205.600, 351.477 198.940 C 339.300 191.153, 339.855 191.256, 323.788 193.839 M 731.378 197.164 C 723.191 202.531, 708.279 210, 705.752 210 C 702.359 210, 698 212.263, 698 214.025 C 698 217.636, 702.417 219.715, 711.733 220.488 C 716.555 220.888, 721.760 221.865, 723.300 222.659 C 724.897 223.483, 727.018 223.812, 728.236 223.425 C 729.411 223.052, 732.914 222.804, 736.021 222.875 L 741.670 223.002 748.085 216.228 C 751.613 212.502, 756.462 207.300, 758.859 204.669 C 763.475 199.602, 764.640 199.187, 763.135 203.144 C 761.221 208.179, 761.360 220.742, 763.360 223.478 C 764.679 225.281, 764.790 225.274, 766.960 223.252 C 769.082 221.275, 769.162 220.676, 768.491 211.833 C 768.101 206.700, 767.268 200.936, 766.641 199.024 L 765.500 195.548 755.500 193.836 C 740.590 191.284, 740.285 191.326, 731.378 197.164 M 323 211 C 323 211.733, 323.300 212.033, 323.667 211.667 C 324.033 211.300, 324.033 210.700, 323.667 210.333 C 323.300 209.967, 323 210.267, 323 211 M 757.333 211.667 C 757.700 212.033, 758.300 212.033, 758.667 211.667 C 759.033 211.300, 758.733 211, 758 211 C 757.267 211, 756.967 211.300, 757.333 211.667 M 691 216 C 691 216.550, 691.450 217, 692 217 C 692.550 217, 693 216.550, 693 216 C 693 215.450, 692.550 215, 692 215 C 691.450 215, 691 215.450, 691 216 M 703.167 227.686 C 703.598 229.219, 710.804 237.535, 718.828 245.758 C 723.667 250.717, 725.433 251.967, 726.328 251.070 C 727.224 250.174, 725.852 248.363, 720.500 243.380 C 716.650 239.796, 711.100 234.531, 708.167 231.681 C 705.235 228.832, 702.985 227.034, 703.167 227.686 M 352.198 228.739 C 348.899 228.969, 346.696 229.628, 346.368 230.484 C 345.603 232.477, 349.257 244.156, 350.836 244.764 C 352.337 245.344, 367 231.293, 367 229.275 C 367 227.986, 364.375 227.891, 352.198 228.739 M 712.623 228.801 C 711.827 230.089, 729.156 247.244, 730.200 246.200 C 731.276 245.124, 735 234.032, 735 231.902 C 735 230.921, 734.663 229.910, 734.250 229.656 C 732.476 228.563, 713.240 227.802, 712.623 228.801 M 166.667 305.667 C 165.516 306.817, 165.938 308, 167.500 308 C 168.325 308, 169 307.325, 169 306.500 C 169 304.938, 167.817 304.516, 166.667 305.667 M 175.461 316.063 C 174.661 317.358, 177.777 321, 179.686 321 C 181.650 321, 182.446 318.243, 180.989 316.487 C 179.557 314.761, 176.415 314.520, 175.461 316.063 M 899.390 316.426 C 899.058 317.292, 899.052 318.694, 899.378 319.543 C 900.195 321.672, 904.247 319.519, 903.799 317.194 C 903.373 314.985, 900.158 314.425, 899.390 316.426 M 244 408.383 L 244 495.767 246.250 496.370 C 247.488 496.701, 256.049 496.979, 265.275 496.986 C 285.386 497.003, 284.081 498.237, 283.344 479.893 C 283.071 473.077, 283.219 465.169, 283.673 462.321 L 284.500 457.141 294 475.731 C 299.225 485.956, 304.095 494.924, 304.821 495.661 C 306.444 497.305, 340.495 497.626, 341.496 496.006 C 341.834 495.459, 336.180 483.421, 328.932 469.256 C 321.683 455.090, 311.840 435.868, 307.059 426.539 L 298.367 409.578 309.803 387.039 C 316.093 374.643, 325.956 355.192, 331.719 343.816 C 337.483 332.440, 341.903 322.652, 341.541 322.066 C 340.554 320.469, 304 320.604, 304 322.204 C 304 322.867, 299.613 332.077, 294.250 342.671 C 283.140 364.619, 282.888 364.695, 283.200 346 C 283.296 340.225, 283.291 332.238, 283.188 328.250 L 283 321 263.500 321 L 244 321 244 408.383 M 351.278 323.227 C 351.564 324.477, 356.149 342.600, 361.467 363.500 C 366.785 384.400, 371.521 403.300, 371.992 405.500 C 372.463 407.700, 374.554 415.800, 376.640 423.500 L 380.432 437.500 380.966 467 L 381.500 496.500 397.500 496.786 C 406.300 496.943, 414.512 496.822, 415.750 496.517 L 418 495.962 418.044 468.231 C 418.068 452.979, 418.475 438.700, 418.950 436.500 C 419.425 434.300, 423.480 418.100, 427.963 400.500 C 432.446 382.900, 436.490 366.700, 436.949 364.500 C 437.409 362.300, 439.712 353.300, 442.068 344.500 C 444.423 335.700, 446.384 326.925, 446.425 325 L 446.500 321.500 428.023 321.500 L 409.546 321.500 408.742 326.500 C 407.048 337.035, 400.869 368.175, 400.055 370.286 C 399.414 371.945, 399.081 372.124, 398.726 371 C 397.918 368.445, 396.228 360.098, 393.462 345 C 392 337.025, 390.271 328.475, 389.620 326 L 388.435 321.500 369.596 321.227 L 350.758 320.955 351.278 323.227 M 462.250 327.944 L 456 334.646 456 409.620 L 456 484.594 459.750 488.118 C 461.813 490.056, 464.997 492.848, 466.827 494.321 L 470.153 497 502.512 497 C 520.309 497, 535.912 496.591, 537.185 496.091 C 538.458 495.590, 542.095 492.848, 545.267 489.996 L 551.034 484.810 550.767 459.655 L 550.500 434.500 532 434.500 L 513.500 434.500 513 448 L 512.500 461.500 503.500 461.500 L 494.500 461.500 494.241 409.250 L 493.982 357 503.463 357 L 512.944 357 513.222 370.750 L 513.500 384.500 531.426 384.774 C 545.099 384.983, 549.544 384.745, 550.161 383.774 C 550.606 383.073, 550.976 371.650, 550.985 358.389 L 551 334.278 543.853 327.639 L 536.706 321 502.603 321.121 L 468.500 321.242 462.250 327.944 M 559 407.800 C 559 473.978, 559.285 494.885, 560.200 495.800 C 562 497.600, 594.359 497.477, 595.864 495.664 C 596.616 494.758, 597.058 483.408, 597.237 460.414 L 597.500 426.500 606.750 426.212 L 616 425.925 616 460.262 C 616 485.636, 616.313 494.913, 617.200 495.800 C 618.578 497.178, 650.642 497.514, 652.756 496.172 C 653.750 495.541, 653.958 477.326, 653.756 408.438 L 653.500 321.500 634.750 321.228 L 616 320.956 616 356.515 L 616 392.075 606.750 391.788 L 597.500 391.500 596.967 356.500 C 596.675 337.250, 596.337 321.387, 596.217 321.250 C 596.098 321.113, 587.675 321, 577.500 321 L 559 321 559 407.800 M 662.809 321.750 C 662.639 322.163, 662.725 361.650, 663 409.500 L 663.500 496.500 694.880 496.764 C 717.514 496.955, 726.649 496.706, 727.654 495.872 C 728.763 494.952, 728.992 491.414, 728.774 478.608 L 728.500 462.500 714.500 462 L 700.500 461.500 700.227 443.250 L 699.955 425 711.896 425 C 718.463 425, 724.548 424.727, 725.418 424.393 C 726.769 423.875, 727 421.465, 727 407.922 L 727 392.058 713.750 391.779 L 700.500 391.500 700.226 374.250 L 699.953 357 713.276 357 C 722.306 357, 726.987 356.613, 727.800 355.800 C 729.065 354.535, 729.580 325.675, 728.393 322.582 C 727.857 321.185, 724.014 321, 695.452 321 C 677.668 321, 662.979 321.337, 662.809 321.750 M 737 407.800 C 737 473.978, 737.285 494.885, 738.200 495.800 C 739.466 497.066, 770.312 497.585, 773.418 496.393 C 774.818 495.856, 775 491.873, 775 461.857 L 775 427.928 784.750 428.214 L 794.500 428.500 795 462.500 L 795.500 496.500 813.599 496.500 C 827.470 496.500, 832.083 496.179, 833.349 495.128 C 834.829 493.897, 835 489.944, 835 456.945 C 835 422.425, 834.888 420.099, 833.206 419.565 C 832.220 419.252, 829.522 417.070, 827.212 414.716 L 823.011 410.435 829.005 405.159 L 835 399.882 834.955 367.691 L 834.909 335.500 826.489 328.250 L 818.069 321 777.534 321 L 737 321 737 407.800 M 192.333 325.667 C 192.700 326.033, 193.300 326.033, 193.667 325.667 C 194.033 325.300, 193.733 325, 193 325 C 192.267 325, 191.967 325.300, 192.333 325.667 M 886.333 325.667 C 886.700 326.033, 887.300 326.033, 887.667 325.667 C 888.033 325.300, 887.733 325, 887 325 C 886.267 325, 885.967 325.300, 886.333 325.667 M 195 335.500 C 195 336.875, 195.450 338, 196 338 C 196.550 338, 197 336.875, 197 335.500 C 197 334.125, 196.550 333, 196 333 C 195.450 333, 195 334.125, 195 335.500 M 884.195 335.500 C 884.215 337.150, 884.439 337.704, 884.693 336.731 C 884.947 335.758, 884.930 334.408, 884.656 333.731 C 884.382 333.054, 884.175 333.850, 884.195 335.500 M 178.688 337.646 C 178.309 338.024, 178 339.578, 178 341.099 C 178 343.031, 178.633 344.066, 180.101 344.532 C 183.350 345.563, 184.775 343.470, 182.985 340.295 C 181.408 337.497, 179.817 336.517, 178.688 337.646 M 897.557 339.223 C 895.598 342.019, 895.581 343.625, 897.500 344.362 C 901.032 345.717, 903.006 342.786, 901.393 338.582 C 900.558 336.406, 899.394 336.600, 897.557 339.223 M 163.183 340.221 C 162.481 340.924, 159.838 341.950, 157.308 342.500 C 151.754 343.708, 149.730 346.159, 152.226 348.655 C 153.745 350.174, 154.358 350.205, 158.209 348.956 C 162.919 347.428, 168.403 342.709, 167.749 340.745 C 167.164 338.989, 164.694 338.705, 163.183 340.221 M 886 352 C 886 352.550, 886.702 353, 887.559 353 C 888.416 353, 888.840 352.550, 888.500 352 C 888.160 351.450, 887.459 351, 886.941 351 C 886.423 351, 886 351.450, 886 352 M 193 352.500 C 193 352.775, 193.225 353, 193.500 353 C 193.775 353, 194 352.775, 194 352.500 C 194 352.225, 193.775 352, 193.500 352 C 193.225 352, 193 352.225, 193 352.500 M 775.228 374.714 L 775.500 393.500 785 393.500 L 794.500 393.500 794.500 375 L 794.500 356.500 784.728 356.214 L 774.956 355.927 775.228 374.714 M 148.667 362.667 C 147.224 364.110, 148.042 367, 149.893 367 C 151.860 367, 153.423 364.494, 152.444 362.910 C 151.787 361.846, 149.626 361.707, 148.667 362.667 M 927.408 363.378 C 926.599 365.487, 927.735 367, 930.129 367 C 931.639 367, 932.060 366.443, 931.820 364.760 C 931.447 362.146, 928.264 361.149, 927.408 363.378 M 172.333 437.667 C 172.700 438.033, 173.300 438.033, 173.667 437.667 C 174.033 437.300, 173.733 437, 173 437 C 172.267 437, 171.967 437.300, 172.333 437.667 M 906.333 437.667 C 906.700 438.033, 907.300 438.033, 907.667 437.667 C 908.033 437.300, 907.733 437, 907 437 C 906.267 437, 905.967 437.300, 906.333 437.667 M 192 453.500 C 192 453.775, 192.225 454, 192.500 454 C 192.775 454, 193 453.775, 193 453.500 C 193 453.225, 192.775 453, 192.500 453 C 192.225 453, 192 453.225, 192 453.500 M 887 453.500 C 887 453.775, 887.225 454, 887.500 454 C 887.775 454, 888 453.775, 888 453.500 C 888 453.225, 887.775 453, 887.500 453 C 887.225 453, 887 453.225, 887 453.500 M 262.285 506.213 C 260.203 507.981, 256.375 511.362, 253.778 513.728 C 251.180 516.093, 247.918 518.461, 246.528 518.990 L 244 519.950 244 578.295 L 244 636.640 254.653 645.806 L 265.307 654.972 296.903 655.236 L 328.500 655.500 328.500 681 L 328.500 706.500 314.250 706.777 L 300 707.055 300 691.063 C 300 676.275, 299.854 674.992, 298.066 674.035 C 295.993 672.926, 250.213 672.568, 246.250 673.630 L 244 674.233 244 706.471 L 244 738.709 251.187 745.104 C 255.140 748.622, 259.927 752.737, 261.825 754.250 L 265.275 757 314.888 756.964 L 364.500 756.928 373.750 748.747 L 383 740.565 383 680.928 L 383 621.291 375.750 614.960 C 371.762 611.478, 367.666 607.925, 366.647 607.065 C 365.078 605.740, 359.853 605.423, 332.647 605 L 300.500 604.500 300.500 579.500 L 300.500 554.500 314.500 554.500 L 328.500 554.500 329 570.500 L 329.500 586.500 356 586.500 L 382.500 586.500 382.764 553.664 L 383.028 520.828 379.764 517.762 C 377.969 516.075, 373.451 512.064, 369.724 508.848 L 362.949 503 314.509 503 L 266.070 503 262.285 506.213 M 397.246 503.827 C 396.250 504.459, 396.044 530.471, 396.246 630.561 L 396.500 756.500 423 756.500 L 449.500 756.500 450 706 L 450.500 655.500 464.500 655.500 L 478.500 655.500 479 706 L 479.500 756.500 506 756.500 L 532.500 756.500 532.754 630.561 C 532.956 530.471, 532.750 504.459, 531.754 503.827 C 531.064 503.389, 519.418 503.024, 505.872 503.015 C 486.485 503.003, 481.008 503.285, 480.132 504.341 C 479.356 505.276, 478.940 520.634, 478.760 555.091 L 478.500 604.500 464.500 604.500 L 450.500 604.500 450.240 555.091 C 450.060 520.634, 449.644 505.276, 448.868 504.341 C 447.992 503.285, 442.515 503.003, 423.128 503.015 C 409.582 503.024, 397.936 503.389, 397.246 503.827 M 556.793 511.154 C 551.682 515.639, 547.169 519.801, 546.765 520.404 C 546.361 521.007, 546.024 570.684, 546.015 630.798 L 546 740.095 548.750 742.681 C 550.263 744.103, 554.549 747.907, 558.276 751.134 L 565.051 757 614.776 756.982 L 664.500 756.963 673.750 748.823 L 683 740.682 683 630.518 L 683 520.355 676.305 514.428 C 672.624 511.167, 668.062 507.262, 666.168 505.750 L 662.725 503 614.405 503 L 566.085 503 556.793 511.154 M 697.119 504.357 C 696.294 505.351, 696.060 539.271, 696.246 631.107 L 696.500 756.500 723 756.500 L 749.500 756.500 750 708.500 L 750.500 660.500 782.597 660 L 814.694 659.500 822.118 653 C 826.202 649.425, 830.770 645.535, 832.271 644.356 L 835 642.212 834.943 581.856 L 834.886 521.500 829.693 517.142 C 826.837 514.745, 821.889 510.583, 818.698 507.892 L 812.896 503 755.571 503 C 708.516 503, 698.043 503.243, 697.119 504.357 M 600.460 554.250 C 600.198 554.938, 600.099 589.025, 600.241 630 L 600.500 704.500 614.500 704.500 L 628.500 704.500 628.756 628.750 L 629.013 553 614.975 553 C 604.666 553, 600.810 553.332, 600.460 554.250 M 750.451 554.266 C 750.184 554.963, 750.086 567.225, 750.233 581.516 L 750.500 607.500 764.750 607.777 L 779 608.055 779 580.527 L 779 553 764.969 553 C 754.569 553, 750.811 553.328, 750.451 554.266 M 192 627 C 192 627.550, 192.450 628, 193 628 C 193.550 628, 194 627.550, 194 627 C 194 626.450, 193.550 626, 193 626 C 192.450 626, 192 626.450, 192 627 M 887 627 C 887 627.550, 887.450 628, 888 628 C 888.550 628, 889 627.550, 889 627 C 889 626.450, 888.550 626, 888 626 C 887.450 626, 887 626.450, 887 627 M 172.229 643.188 C 172.847 645.042, 175 645.349, 175 643.583 C 175 642.712, 174.287 642, 173.417 642 C 172.546 642, 172.011 642.534, 172.229 643.188 M 906.192 643.075 C 906.389 643.666, 906.977 644.150, 907.500 644.150 C 908.023 644.150, 908.611 643.666, 908.808 643.075 C 909.005 642.484, 908.417 642, 907.500 642 C 906.583 642, 905.995 642.484, 906.192 643.075 M 116 653 C 116 653.733, 116.300 654.033, 116.667 653.667 C 117.033 653.300, 117.033 652.700, 116.667 652.333 C 116.300 651.967, 116 652.267, 116 653 M 964 653 C 964 653.733, 964.300 654.033, 964.667 653.667 C 965.033 653.300, 965.033 652.700, 964.667 652.333 C 964.300 651.967, 964 652.267, 964 653 M 898.688 662.646 C 897.272 664.061, 898.073 666, 900.073 666 C 901.471 666, 902.041 665.457, 901.823 664.333 C 901.466 662.492, 899.759 661.574, 898.688 662.646 M 148.909 714.610 C 147.912 715.810, 147.980 716.409, 149.258 717.687 C 151.341 719.769, 154.008 718.748, 153.324 716.130 C 152.636 713.501, 150.453 712.749, 148.909 714.610 M 929.207 714.193 C 927.320 716.080, 927.737 719, 929.893 719 C 932.313 719, 933.478 716.050, 931.744 714.315 C 930.705 713.277, 930.150 713.250, 929.207 714.193 M 192 728.441 C 192 729.234, 192.403 730.131, 192.895 730.435 C 193.925 731.071, 195.166 728.499, 194.264 727.598 C 193.191 726.525, 192 726.968, 192 728.441 M 887 729 C 887 729.733, 887.300 730.033, 887.667 729.667 C 888.033 729.300, 888.033 728.700, 887.667 728.333 C 887.300 727.967, 887 728.267, 887 729 M 153.250 731.662 C 151.662 732.303, 151.633 735.233, 153.200 736.800 C 153.860 737.460, 155.850 738, 157.623 738 C 159.600 738, 161.992 738.964, 163.808 740.492 C 166.161 742.472, 166.988 742.719, 167.838 741.695 C 169.539 739.645, 165.726 734.857, 160.800 732.857 C 156.251 731.011, 155.255 730.853, 153.250 731.662 M 921.007 732.593 C 916.499 734.548, 913 737.861, 913 740.174 C 913 742.545, 914.565 742.487, 917.727 740 C 919.269 738.787, 921.784 738, 924.116 738 C 927.427 738, 928.053 737.637, 928.616 735.393 C 929.693 731.103, 926.853 730.058, 921.007 732.593 M 895 733.500 C 895 733.775, 895.225 734, 895.500 734 C 895.775 734, 896 733.775, 896 733.500 C 896 733.225, 895.775 733, 895.500 733 C 895.225 733, 895 733.225, 895 733.500 M 179.101 737.378 C 178.299 738.345, 178.255 739.540, 178.954 741.378 C 180.228 744.731, 181.165 744.683, 183.246 741.161 C 184.519 739.006, 184.643 738.043, 183.761 737.161 C 182.215 735.615, 180.498 735.695, 179.101 737.378 M 897.239 737.161 C 896.357 738.043, 896.481 739.006, 897.754 741.161 C 899.812 744.644, 900.715 744.719, 902.168 741.530 C 903.969 737.578, 900.180 734.220, 897.239 737.161 M 883.460 743.250 C 883.089 744.212, 883.089 745.788, 883.460 746.750 C 884.102 748.417, 884.181 748.417, 885.117 746.750 C 885.760 745.604, 885.760 744.396, 885.117 743.250 C 884.181 741.583, 884.102 741.583, 883.460 743.250 M 196 745 C 196 745.733, 196.300 746.033, 196.667 745.667 C 197.033 745.300, 197.033 744.700, 196.667 744.333 C 196.300 743.967, 196 744.267, 196 745 M 192.192 755.075 C 192.389 755.666, 192.978 756.150, 193.500 756.150 C 194.022 756.150, 194.611 755.666, 194.808 755.075 C 195.005 754.484, 194.417 754, 193.500 754 C 192.583 754, 191.995 754.484, 192.192 755.075 M 886.500 755 C 886.840 755.550, 887.541 756, 888.059 756 C 888.577 756, 889 755.550, 889 755 C 889 754.450, 888.298 754, 887.441 754 C 886.584 754, 886.160 754.450, 886.500 755 M 178.176 761.100 C 176.716 761.659, 175.977 762.643, 176.189 763.745 C 176.623 765.997, 179.955 766.018, 181.369 763.778 C 182.870 761.398, 181.154 759.958, 178.176 761.100 M 898.601 760.837 C 898.316 761.297, 898.765 762.647, 899.598 763.837 C 901.534 766.600, 905 766.728, 905 764.035 C 905 761.250, 899.916 758.709, 898.601 760.837 M 167 774.583 C 167 775.454, 167.534 775.989, 168.188 775.771 C 170.042 775.153, 170.349 773, 168.583 773 C 167.713 773, 167 773.712, 167 774.583 M 911.229 774.188 C 911.847 776.042, 914 776.349, 914 774.583 C 914 773.712, 913.288 773, 912.417 773 C 911.546 773, 911.011 773.534, 911.229 774.188 M 182.130 807.250 C 181.539 810.688, 179.682 825.650, 178.005 840.500 C 176.327 855.350, 174.294 872.675, 173.486 879 C 172.679 885.325, 172.011 892.075, 172.003 894 C 171.995 895.925, 171.292 898.834, 170.442 900.464 C 169.464 902.340, 169.102 904.726, 169.456 906.964 C 170.201 911.670, 169.575 917.952, 161.028 991.500 C 157.728 1019.897, 157.038 1027.252, 157.590 1028.145 C 158.674 1029.900, 160.999 1028.895, 163.707 1025.500 C 165.243 1023.575, 167.197 1022, 168.050 1022 C 170.218 1022, 172 1019.980, 172 1017.523 C 172 1016.380, 172.723 1014.412, 173.608 1013.150 L 175.216 1010.854 177.156 1012.937 C 178.728 1014.625, 179.480 1014.813, 181.125 1013.933 C 182.346 1013.280, 182.925 1012.246, 182.578 1011.342 C 182.260 1010.514, 182 1009.648, 182 1009.418 C 182 1009.188, 181.100 1009, 180 1009 C 178.900 1009, 178 1008.563, 178 1008.028 C 178 1007.493, 180.759 1002.881, 184.131 997.778 C 190.166 988.644, 200.988 967.740, 200.996 965.200 C 201.003 962.828, 197.972 958, 196.474 958 C 194.439 958, 194.630 956.286, 197 953.273 C 198.948 950.796, 199 949.216, 199 892.380 L 199 834.030 196.083 825.265 C 192.618 814.852, 185.642 801, 183.862 801 C 183.501 801, 182.721 803.813, 182.130 807.250 M 894.076 808.631 C 892.938 810.077, 891.613 812.890, 891.131 814.881 C 890.054 819.336, 886.276 836.227, 884.394 845 C 882.579 853.462, 882.350 948.098, 884.130 954.040 C 885.183 957.556, 885.043 958.114, 882.049 962.283 L 878.837 966.754 883.866 977.127 C 886.632 982.832, 891.319 991.100, 894.280 995.500 C 902.508 1007.724, 902.553 1007.839, 899.540 1008.985 C 896.521 1010.133, 896.234 1012.519, 898.941 1013.968 C 900.509 1014.807, 901.191 1014.574, 902.493 1012.754 L 904.104 1010.500 906.052 1012.861 C 907.123 1014.159, 908 1016.491, 908 1018.043 C 908 1020.103, 908.608 1021.048, 910.250 1021.541 C 911.487 1021.913, 914.156 1023.804, 916.179 1025.743 C 920.572 1029.951, 923.647 1029.708, 922.523 1025.241 C 922.143 1023.733, 921.451 1017.550, 920.983 1011.500 C 920.516 1005.450, 919.677 997.350, 919.120 993.500 C 918.563 989.650, 917.615 982, 917.013 976.500 C 916.411 971, 915.010 958.625, 913.899 949 C 910.475 919.324, 909.836 911.659, 910.417 907.197 C 910.777 904.424, 910.495 902.112, 909.621 900.697 C 908.876 899.489, 907.769 893.775, 907.162 888 C 905.889 875.897, 900.638 830.128, 898.873 815.750 C 898.215 810.388, 897.332 806, 896.911 806 C 896.490 806, 895.214 807.184, 894.076 808.631 M 353 830.274 C 353 831.049, 356.038 834.480, 359.750 837.898 C 363.462 841.316, 368.794 846.406, 371.597 849.209 C 378.501 856.112, 379.247 853.890, 372.427 846.735 C 369.442 843.604, 367 840.583, 367 840.021 C 367 839.460, 366.543 839, 365.984 839 C 365.027 839, 361.501 835.521, 358.741 831.851 C 357.006 829.546, 353 828.445, 353 830.274 M 347.180 841.874 C 345.962 845.654, 345.227 849.428, 345.546 850.259 C 345.986 851.406, 348.655 851.942, 356.629 852.486 C 362.405 852.879, 367.376 852.957, 367.675 852.658 C 369.081 851.252, 353.524 835, 350.771 835 C 349.950 835, 348.500 837.774, 347.180 841.874 M 722.382 841.797 C 719.018 844.934, 715.439 848.798, 714.429 850.384 L 712.594 853.268 722.547 852.548 C 728.021 852.151, 733.045 851.303, 733.711 850.663 C 734.657 849.755, 734.470 848.020, 732.860 842.750 C 731.726 839.038, 730.281 836.021, 729.649 836.047 C 729.017 836.073, 725.747 838.661, 722.382 841.797 M 763.563 850.250 C 761.067 858.578, 760.194 869.218, 761.451 876 L 762.285 880.500 755.925 873.500 C 752.426 869.650, 747.535 864.587, 745.054 862.250 C 740.773 858.216, 740.212 857.990, 734.022 857.808 C 725.392 857.554, 724.201 857.644, 719.500 858.909 C 717.300 859.501, 712.879 860.251, 709.675 860.574 C 705.184 861.028, 703.122 861.816, 700.675 864.014 C 696.787 867.507, 697.477 868.452, 705.419 870.521 C 712.636 872.401, 723.602 877.839, 731.500 883.456 C 734.800 885.802, 738.585 888.063, 739.910 888.480 C 742.319 889.236, 763.121 886.502, 766 885.051 C 767.540 884.274, 768.205 879.887, 769.578 861.447 C 770.156 853.681, 770.011 852.154, 768.555 850.697 C 766.558 848.701, 764.093 848.480, 763.563 850.250 M 313.427 857.765 C 311.349 859.188, 310.907 862.501, 311.930 868.967 C 312.498 872.560, 313.228 877.664, 313.552 880.308 C 313.875 882.953, 314.671 885.267, 315.320 885.451 C 320.005 886.777, 339.368 889.022, 341.214 888.453 C 342.471 888.066, 346.361 885.761, 349.857 883.333 C 358.450 877.365, 368.112 872.667, 376.250 870.500 C 380.071 869.483, 383 868.155, 383 867.440 C 383 866.746, 381.662 865.052, 380.028 863.677 C 377.658 861.683, 375.478 861.033, 369.278 860.470 C 365 860.082, 360.078 859.182, 358.340 858.471 C 356.186 857.589, 352.521 857.351, 346.840 857.725 L 338.500 858.272 328.285 868.886 L 318.069 879.500 318.637 871 C 319.389 859.744, 317.510 854.970, 313.427 857.765 M 387 864.893 C 387 865.384, 387.675 866.045, 388.500 866.362 C 389.414 866.712, 390 866.363, 390 865.469 C 390 864.661, 389.325 864, 388.500 864 C 387.675 864, 387 864.402, 387 864.893 M 774.544 865.929 C 773.729 867.247, 771 888.540, 771 893.578 C 771 897.113, 771.359 897.869, 773.250 898.321 C 778.003 899.457, 798.155 902.115, 799.251 901.750 C 800.811 901.230, 800.232 891.349, 798.437 887.877 C 796.825 884.761, 777.514 865, 776.080 865 C 775.551 865, 774.860 865.418, 774.544 865.929 M 302.058 869.651 C 300.230 871.768, 295.307 877.240, 291.117 881.811 C 279.580 894.399, 276.035 902.028, 281.750 901.974 C 285.946 901.935, 308.913 898.421, 309.624 897.710 C 310.534 896.800, 310.406 893.498, 308.959 880.513 C 308.248 874.141, 307.153 868.224, 306.524 867.364 C 305.537 866.014, 304.930 866.324, 302.058 869.651 M 384.783 873.750 C 382.337 876.555, 381.244 879.191, 380.517 884.038 C 379.967 887.705, 380.206 889.033, 381.762 890.955 C 384.144 893.897, 387.535 893.153, 386.678 889.878 C 386.036 887.422, 389.895 883.009, 392.705 882.985 C 393.692 882.976, 395.173 882.544, 395.996 882.023 C 397.226 881.246, 396.699 880.269, 393.038 876.539 C 388.127 871.535, 387.037 871.167, 384.783 873.750 M 688.569 875.929 C 684.569 880.026, 684.259 883, 687.834 883 C 691.108 883, 695 886.841, 695 890.073 C 695 893.449, 696.859 893.919, 699.345 891.171 C 702.297 887.909, 700.930 878.683, 696.850 874.340 C 693.890 871.190, 693.037 871.354, 688.569 875.929 M 315.750 890.572 C 314.237 892.108, 314.991 896.925, 316.904 897.949 C 319.293 899.227, 329.440 897.529, 332.963 895.261 L 335.425 893.675 331.701 892.386 C 326.942 890.739, 316.730 889.577, 315.750 890.572 M 753.220 891.426 C 750.316 892.142, 747.616 893.050, 747.221 893.445 C 745.912 894.754, 750.034 896.792, 756.179 897.875 C 763.897 899.234, 766.247 898.211, 765.808 893.684 C 765.530 890.814, 765.155 890.481, 762 890.312 C 760.075 890.209, 756.124 890.710, 753.220 891.426 M 343.750 900.080 C 341.272 901.523, 341.420 906.681, 343.962 907.488 C 348.459 908.915, 353.016 902.947, 349.431 900.326 C 347.285 898.757, 346.109 898.706, 343.750 900.080 M 731.571 900.571 C 729.513 902.630, 729.589 903.589, 732 906 C 734.408 908.408, 736.322 908.535, 738.429 906.429 C 740.381 904.476, 740.382 903.991, 738.443 901.223 C 736.621 898.621, 733.790 898.353, 731.571 900.571 M 412.565 919.895 C 412.260 920.388, 412.684 921.048, 413.506 921.364 C 414.413 921.712, 415 921.361, 415 920.469 C 415 918.851, 413.437 918.483, 412.565 919.895 M 666.553 919.915 C 666.231 920.436, 666.394 921.125, 666.915 921.447 C 667.436 921.769, 668.125 921.606, 668.447 921.085 C 668.769 920.564, 668.606 919.875, 668.085 919.553 C 667.564 919.231, 666.875 919.394, 666.553 919.915 M 426 922 C 426 922.550, 426.675 923, 427.500 923 C 428.325 923, 429 922.550, 429 922 C 429 921.450, 428.325 921, 427.500 921 C 426.675 921, 426 921.450, 426 922 M 652 922 C 652 922.550, 652.675 923, 653.500 923 C 654.325 923, 655 922.550, 655 922 C 655 921.450, 654.325 921, 653.500 921 C 652.675 921, 652 921.450, 652 922 M 306.667 923.667 C 305.398 924.935, 306.007 928.065, 307.645 928.694 C 309.589 929.440, 312.123 926.484, 311.324 924.403 C 310.768 922.954, 307.842 922.491, 306.667 923.667 M 770.332 924.578 C 769.607 926.466, 772.348 929.521, 773.904 928.559 C 774.507 928.187, 775 926.784, 775 925.441 C 775 923.654, 774.456 923, 772.969 923 C 771.851 923, 770.665 923.710, 770.332 924.578 M 372.250 924.731 C 371.563 924.970, 371 926.060, 371 927.153 C 371 928.638, 371.565 929.059, 373.240 928.820 C 374.472 928.644, 375.619 927.769, 375.789 926.876 C 376.121 925.132, 374.287 924.020, 372.250 924.731 M 705.500 926 C 704.603 927.451, 705.839 929, 707.892 929 C 710.195 929, 710.994 928.147, 710.324 926.402 C 709.705 924.789, 706.418 924.515, 705.500 926 M 408.332 927.578 C 407.999 928.445, 408.371 929.800, 409.159 930.587 C 410.374 931.803, 410.874 931.813, 412.458 930.654 C 414.786 928.952, 413.862 926, 411 926 C 409.865 926, 408.665 926.710, 408.332 927.578 M 667.556 926.910 C 666.769 928.182, 667.890 930.744, 669.504 931.363 C 671.271 932.041, 673.385 929.447, 672.643 927.513 C 672.011 925.865, 668.462 925.444, 667.556 926.910 M 453 931 C 453 931.733, 453.300 932.033, 453.667 931.667 C 454.033 931.300, 454.033 930.700, 453.667 930.333 C 453.300 929.967, 453 930.267, 453 931 M 306.100 938.380 C 305.098 939.587, 305.241 940.058, 306.875 940.933 C 309.457 942.315, 310.854 940.426, 308.782 938.354 C 307.510 937.082, 307.174 937.085, 306.100 938.380 M 771.736 938.598 C 771.407 938.927, 771.377 939.818, 771.669 940.579 C 772.067 941.618, 772.681 941.706, 774.128 940.932 C 775.188 940.364, 775.792 939.472, 775.469 938.950 C 774.812 937.887, 772.651 937.683, 771.736 938.598 M 320.376 943.463 C 319.462 945.845, 321.418 947.363, 324.427 946.608 C 327.112 945.934, 328.051 943, 325.582 943 C 324.802 943, 323.456 942.728, 322.590 942.396 C 321.634 942.029, 320.765 942.448, 320.376 943.463 M 756.250 942.713 C 755.013 942.947, 754 943.468, 754 943.870 C 754 945.372, 756.480 947, 758.770 947 C 760.633 947, 761.071 946.536, 760.820 944.828 C 760.470 942.451, 759.647 942.070, 756.250 942.713 M 470.311 947.294 C 472.958 949.607, 477.897 954.118, 481.288 957.319 C 487.950 963.606, 489.801 963.564, 485.304 957.228 C 482.658 953.500, 468.660 942.939, 466.500 943.040 C 465.950 943.066, 467.665 944.980, 470.311 947.294 M 309.345 947.543 C 309.019 948.392, 309.004 949.337, 309.310 949.643 C 310.186 950.519, 312 949.034, 312 947.441 C 312 945.522, 310.092 945.596, 309.345 947.543 M 769.736 946.598 C 768.676 947.658, 770.121 949.891, 771.520 949.354 C 772.264 949.068, 772.629 948.197, 772.330 947.417 C 771.756 945.923, 770.733 945.600, 769.736 946.598 M 857.882 961.250 C 857.816 961.938, 857.884 962.950, 858.031 963.500 C 858.179 964.050, 858.417 965.798, 858.560 967.385 C 858.859 970.707, 860.391 971.963, 864.168 971.985 C 870.227 972.019, 872.236 968.676, 867.210 966.923 C 865.518 966.334, 863.978 964.780, 863.297 962.975 C 862.153 959.945, 858.127 958.663, 857.882 961.250 M 219.250 961.718 C 218.563 961.965, 218 962.788, 218 963.548 C 218 965.225, 214.912 967, 211.996 967 C 210.354 967, 209.935 967.519, 210.180 969.250 C 210.444 971.103, 211.220 971.553, 214.586 971.800 C 219.312 972.146, 220.477 971.098, 221.295 965.768 C 221.887 961.912, 221.400 960.947, 219.250 961.718 M 235.070 968.869 C 233.930 971, 234.565 972, 237.060 972 C 238.892 972, 240.387 969.435, 239.444 967.910 C 238.497 966.377, 236.126 966.897, 235.070 968.869 M 840.408 968.378 C 839.599 970.487, 840.735 972, 843.129 972 C 844.639 972, 845.060 971.443, 844.820 969.760 C 844.447 967.146, 841.264 966.149, 840.408 968.378 M 272.250 991.731 C 270.547 992.325, 270.672 995.483, 272.456 996.964 C 274.377 998.558, 276 997.452, 276 994.548 C 276 992.141, 274.438 990.967, 272.250 991.731 M 805 993.878 C 805 994.910, 805.698 996.334, 806.550 997.042 C 807.828 998.102, 808.379 998.049, 809.687 996.742 C 811.828 994.601, 810.645 992, 807.531 992 C 805.722 992, 805 992.535, 805 993.878 M 301.839 999.335 C 298.766 1003.187, 299.397 1005.619, 303.221 1004.659 C 305.582 1004.067, 308 1000.420, 308 997.453 C 308 994.865, 304.570 995.913, 301.839 999.335 M 773 997.596 C 773 1000.477, 777.057 1005.134, 779.279 1004.805 C 782.343 1004.352, 782.396 1002.624, 779.452 999.126 C 776.650 995.795, 773 994.930, 773 997.596 M 210.333 1000.667 C 210.700 1001.033, 211.300 1001.033, 211.667 1000.667 C 212.033 1000.300, 211.733 1000, 211 1000 C 210.267 1000, 209.967 1000.300, 210.333 1000.667 M 868 1001 C 868 1001.733, 868.300 1002.033, 868.667 1001.667 C 869.033 1001.300, 869.033 1000.700, 868.667 1000.333 C 868.300 999.967, 868 1000.267, 868 1001 M 197.180 1016.240 C 197.537 1018.739, 200.831 1019.892, 202.038 1017.939 C 203.293 1015.909, 201.978 1014, 199.323 1014 C 197.345 1014, 196.924 1014.440, 197.180 1016.240 M 877.336 1015.567 C 877.005 1016.429, 877.196 1017.596, 877.761 1018.161 C 879.422 1019.822, 882.474 1018.663, 882.820 1016.240 C 883.080 1014.412, 882.660 1014, 880.538 1014 C 879.099 1014, 877.669 1014.700, 877.336 1015.567 M 552.141 1023.350 C 550.192 1025.424, 550.112 1025.848, 551.454 1026.962 C 553.681 1028.810, 555.686 1027.593, 556.202 1024.079 C 556.750 1020.342, 555.225 1020.068, 552.141 1023.350 M 525.736 1024.598 C 524.797 1025.537, 526.074 1028, 527.500 1028 C 528.926 1028, 530.203 1025.537, 529.264 1024.598 C 528.936 1024.269, 528.142 1024, 527.500 1024 C 526.858 1024, 526.064 1024.269, 525.736 1024.598 M 776.250 1025.718 C 774.273 1026.427, 774.796 1029.800, 776.991 1030.497 C 779.358 1031.248, 781 1030.421, 781 1028.476 C 781 1026.809, 778.025 1025.082, 776.250 1025.718 M 300.323 1027.601 C 299.638 1029.385, 301.692 1031.137, 304 1030.739 C 304.825 1030.596, 305.644 1029.472, 305.820 1028.240 C 306.080 1026.412, 305.660 1026, 303.538 1026 C 302.076 1026, 300.668 1026.701, 300.323 1027.601 M 544.187 1031.212 C 543.418 1031.981, 540.443 1032.500, 536.810 1032.500 C 528.098 1032.500, 527.557 1033.826, 532.387 1043.343 C 536.230 1050.913, 539.271 1055, 541.061 1055 C 542.277 1055, 546.684 1048.121, 549.947 1041.131 C 552.265 1036.165, 552.309 1035.745, 550.769 1033.194 C 548.931 1030.149, 546.103 1029.297, 544.187 1031.212 M 168 1041.500 C 168 1041.775, 168.225 1042, 168.500 1042 C 168.775 1042, 169 1041.775, 169 1041.500 C 169 1041.225, 168.775 1041, 168.500 1041 C 168.225 1041, 168 1041.225, 168 1041.500 M 549 1066.500 C 549 1066.775, 549.225 1067, 549.500 1067 C 549.775 1067, 550 1066.775, 550 1066.500 C 550 1066.225, 549.775 1066, 549.500 1066 C 549.225 1066, 549 1066.225, 549 1066.500" stroke="none" fill="#000000" fill-rule="evenodd"/>
</svg>