<svg xmlns="http://www.w3.org/2000/svg" width="499" height="499" viewBox="0 0 499 499" version="1.1">
	<path d="M 51 6.730 C 51 7.220, 53.832 9.496, 57.294 11.788 C 60.756 14.081, 66.081 18.329, 69.128 21.228 L 74.667 26.500 76.405 43.500 C 77.361 52.850, 79.008 67.250, 80.065 75.500 C 81.122 83.750, 82.892 99.275, 83.998 110 C 85.104 120.725, 86.904 137.150, 87.999 146.500 C 89.094 155.850, 91.117 173.223, 92.495 185.107 C 93.990 198.004, 95 212.214, 95 220.357 C 95 233.084, 94.873 234, 93.104 234 C 92.061 234, 89.329 231.862, 87.033 229.250 L 82.857 224.500 83.382 229 C 83.671 231.475, 85.325 237.775, 87.058 243 C 89.774 251.188, 90.115 253.328, 89.525 258.500 C 89.149 261.800, 88.613 268.050, 88.336 272.389 C 87.894 279.302, 88.027 280.204, 89.416 279.671 C 92.222 278.594, 91.120 280.364, 84.995 286.770 C 81.698 290.218, 79 293.426, 79 293.898 C 79 294.369, 79.708 295.343, 80.573 296.061 C 84.290 299.145, 86.244 305.171, 86.208 313.435 C 86.189 317.855, 86.404 321.845, 86.686 322.301 C 86.968 322.757, 88.054 322.356, 89.099 321.410 C 90.145 320.464, 91 320.163, 91 320.741 C 91 322.424, 84.114 328, 82.037 328 C 79.556 328, 77.544 325.898, 72.369 317.901 C 68.793 312.375, 56.435 288.509, 54.752 283.880 C 54.402 282.917, 53.914 282.813, 53.140 283.535 C 52.331 284.289, 52.822 287.691, 54.942 296.035 C 61.560 322.078, 71.422 344.308, 81.903 356.811 C 88.910 365.168, 92.866 372.456, 96.003 382.785 C 97.431 387.484, 98.709 390, 99.669 390 C 100.964 390, 100.963 390.180, 99.660 391.482 C 98.798 392.345, 98.415 393.870, 98.744 395.130 C 99.286 397.200, 99.370 397.215, 100.655 395.457 C 101.949 393.688, 102 393.692, 102 395.586 C 102 396.669, 101.334 398.505, 100.521 399.667 C 99.426 401.230, 99.055 404.602, 99.095 412.640 C 99.148 423.389, 99.188 423.567, 102.979 430.015 C 105.948 435.064, 107.603 436.816, 110.336 437.805 C 114.432 439.285, 120 445.180, 120 448.035 C 120 449.219, 120.695 450.021, 121.750 450.054 C 122.713 450.084, 125.427 452.809, 127.782 456.111 C 131.200 460.903, 132.461 461.988, 134.032 461.490 C 135.688 460.964, 136 461.336, 136 463.840 C 136 466.162, 137.151 467.850, 141.250 471.535 C 148.211 477.794, 158.382 485, 160.255 485 C 161.080 485, 162.313 485.672, 162.995 486.493 C 164.223 487.974, 178.653 493, 181.674 493 C 184.015 493, 181.521 490.308, 177.067 488.026 C 173.593 486.247, 165.796 478.813, 158.452 470.280 C 155.380 466.709, 154.631 464.861, 153.592 458.280 C 152.533 451.577, 152.095 450.523, 150.431 450.664 C 149.041 450.782, 147.824 449.451, 146.085 445.914 C 143.426 440.505, 142 439.663, 142 443.500 C 142 444.875, 141.580 446, 141.067 446 C 140.554 446, 139.849 446.900, 139.500 448 C 139.151 449.100, 138.390 450, 137.810 450 C 137.156 450, 137.230 449.428, 138.004 448.495 C 138.797 447.540, 139.080 445.183, 138.778 442.044 C 138.252 436.563, 138.784 436, 144.494 436 C 147.824 436, 147.826 436.002, 148.663 442.250 C 149.232 446.500, 149.943 448.500, 150.883 448.500 C 151.917 448.500, 152.295 446.736, 152.383 441.500 L 152.500 434.500 156 433.791 C 157.925 433.401, 164.897 432.134, 171.493 430.976 C 178.778 429.697, 184.227 428.209, 185.376 427.185 C 187.185 425.572, 187.233 425.607, 186.496 428 C 186.072 429.375, 184.438 432.381, 182.863 434.680 C 178.297 441.347, 179.551 443.105, 185.589 438.500 C 187.392 437.125, 189.200 436, 189.607 436 C 190.015 436, 193.638 433.300, 197.658 430 C 201.679 426.700, 205.350 424, 205.816 424 C 206.706 424, 218.558 435.891, 223.938 442.182 C 226.831 445.564, 227.034 446.261, 226.437 450.761 C 225.767 455.812, 227.507 467, 228.962 467 C 229.414 467, 230.129 465.762, 230.552 464.250 C 231.192 461.957, 231.394 461.821, 231.768 463.432 C 232.466 466.437, 238.058 474.064, 243.009 478.762 L 247.500 483.024 244.750 485.095 C 240.850 488.033, 241.330 489.577, 245.368 487.082 C 249.559 484.491, 250.475 484.490, 254.096 487.068 C 256.138 488.522, 257 488.742, 257 487.809 C 257 487.078, 256.100 485.919, 255 485.232 C 252.089 483.414, 252.524 481.746, 256.750 478.528 C 260.495 475.675, 267.911 465.440, 268.100 462.863 C 268.155 462.113, 268.492 462.539, 268.850 463.809 C 269.207 465.079, 269.950 466.118, 270.500 466.118 C 272.070 466.118, 272.791 462.203, 272.916 453 L 273.032 444.500 282.920 434.250 C 288.358 428.612, 293.442 424, 294.217 424 C 294.992 424, 296.948 425.382, 298.563 427.071 C 301.943 430.606, 317.059 441, 318.819 441 C 320.506 441, 320.281 439.630, 318.141 436.885 C 315.698 433.750, 312.996 428.434, 313.015 426.800 C 313.028 425.737, 313.181 425.737, 313.858 426.804 C 314.942 428.514, 323.477 430.695, 335.918 432.441 C 341.433 433.215, 346.459 434.166, 347.087 434.554 C 347.861 435.032, 348.015 437.154, 347.563 441.143 C 346.817 447.741, 347.412 449.733, 349.589 447.926 C 350.365 447.282, 351 445.047, 351 442.959 C 351 437.210, 351.787 436, 355.525 436 C 360.423 436, 362.135 436.878, 361.084 438.850 C 360.065 440.760, 360.184 446.517, 361.264 447.598 C 362.319 448.653, 362.171 450, 361 450 C 360.450 450, 360 449.380, 360 448.622 C 360 447.865, 359.371 446.723, 358.603 446.086 C 357.813 445.430, 357.445 444.016, 357.755 442.829 C 358.781 438.904, 355.760 441.430, 353.018 446.790 C 350.998 450.739, 350.092 451.692, 349.201 450.801 C 347.415 449.015, 346.848 450.276, 346.011 457.900 C 345.304 464.340, 344.819 465.444, 340.077 471.403 C 333.850 479.229, 325.969 486.465, 320.802 489.101 C 315.855 491.625, 315.783 493.451, 320.668 492.535 C 325.852 491.562, 334.738 488.119, 336.429 486.428 C 337.215 485.643, 338.598 485, 339.503 485 C 341.546 485, 354.116 475.585, 359.500 470.022 C 361.700 467.749, 363.500 464.901, 363.500 463.694 C 363.500 462.358, 364.037 461.614, 364.875 461.792 C 368.343 462.527, 380.195 446.639, 388.408 430.242 C 389.856 427.350, 393.957 420.477, 397.521 414.968 C 401.084 409.459, 404 404.708, 404 404.411 C 404 404.114, 402.650 402.735, 401 401.347 C 398.995 399.659, 398.021 397.940, 398.063 396.161 C 398.125 393.573, 398.151 393.561, 399.031 395.750 C 399.529 396.987, 400.342 398, 400.839 398 C 401.337 398, 403.159 392.488, 404.890 385.750 C 408.702 370.912, 412.050 363.648, 419.191 354.724 C 428.808 342.707, 439.430 318.015, 445.027 294.669 C 448.986 278.159, 447.288 278.993, 437.734 298.250 C 428.813 316.229, 421.483 327.357, 418.257 327.818 C 415.621 328.193, 412.909 326.459, 409.837 322.432 C 407.874 319.859, 407.848 319.714, 409.629 321.250 C 410.745 322.213, 411.960 323, 412.329 323 C 412.698 323, 412.934 319.503, 412.852 315.228 C 412.695 306.956, 414.442 301.581, 419.196 295.705 L 421.458 292.909 418.399 290.515 C 416.717 289.199, 413.615 286.015, 411.505 283.441 C 408.258 279.478, 408.009 278.868, 409.884 279.463 C 412.074 280.158, 412.092 280.079, 411.497 272.333 C 411.167 268.025, 410.463 261.724, 409.933 258.331 C 408.990 252.292, 409.117 251.482, 412.105 244.500 C 412.576 243.400, 413.910 238.963, 415.071 234.641 C 417.512 225.551, 416.579 222.709, 413.037 228.439 C 410.741 232.156, 408.263 234, 405.566 234 C 403.297 234, 403.497 217.029, 406.020 195.500 C 407.115 186.150, 408.702 171.750, 409.547 163.500 C 410.391 155.250, 411.491 145.575, 411.991 142 C 412.491 138.425, 413.606 128.525, 414.469 120 C 415.332 111.475, 417.139 95.500, 418.485 84.500 C 419.831 73.500, 421.864 56.003, 423.002 45.617 C 424.141 35.231, 425.496 25.941, 426.014 24.973 C 426.532 24.005, 431.913 19.487, 437.971 14.932 C 444.028 10.378, 448.813 6.480, 448.603 6.270 C 447.531 5.198, 434.309 9.688, 425.500 14.116 C 414.295 19.748, 411.464 21.762, 409.980 25.159 L 408.957 27.500 409.398 25 C 409.640 23.625, 410.169 21.422, 410.574 20.104 C 411.228 17.974, 410.716 18.178, 405.936 21.956 C 400.464 26.282, 396 31.478, 396 33.522 C 396 34.146, 392.952 38.538, 389.226 43.283 C 379.216 56.031, 373.062 66.866, 369.030 78.835 C 367.054 84.701, 365.002 90.221, 364.469 91.103 C 362.674 94.070, 351.618 106, 350.662 106 C 350.098 106, 349.979 103.479, 350.368 99.757 L 351.020 93.515 345.260 99.595 C 339.867 105.288, 339.245 105.656, 335.500 105.369 C 330.258 104.968, 321.828 104.188, 303.500 102.409 C 295.250 101.609, 287.091 101.152, 285.368 101.395 C 283.645 101.637, 281.845 101.448, 281.368 100.974 C 280.250 99.864, 259.726 97.772, 250 97.777 C 242.238 97.781, 220.617 99.684, 218.030 100.591 C 217.221 100.874, 212.271 101.326, 207.030 101.595 C 201.788 101.863, 193.900 102.484, 189.500 102.974 C 180.165 104.014, 169.094 105.028, 163.708 105.337 C 160.280 105.534, 159.382 104.997, 154.331 99.739 C 151.258 96.540, 148.602 94.065, 148.427 94.239 C 148.253 94.414, 148.518 96.344, 149.016 98.528 C 149.609 101.126, 149.539 103.884, 148.815 106.500 L 147.708 110.500 146.861 107.500 C 146.395 105.850, 143.311 101.816, 140.007 98.536 C 136.703 95.256, 134 91.857, 134 90.983 C 134 87.608, 127.122 68.911, 123.495 62.425 C 121.400 58.679, 116.165 50.980, 111.861 45.316 C 107.556 39.653, 103.410 33.524, 102.647 31.697 C 101.248 28.350, 91.285 19, 89.117 19 C 88.317 19, 88.449 19.968, 89.535 22.068 C 90.408 23.755, 90.905 25.668, 90.640 26.318 C 90.357 27.012, 90.125 26.849, 90.079 25.924 C 89.967 23.696, 86.620 20.918, 78.178 16.050 C 68.310 10.360, 51 4.424, 51 6.730 M 79 32.644 C 79 36.907, 86.110 100.032, 89.566 126.460 C 90.355 132.488, 91 139.088, 91 141.128 C 91 145.812, 91.830 148, 93.607 148 C 94.776 148, 94.998 141.277, 94.985 106.250 C 94.976 82.131, 94.575 63.876, 94.035 63.023 C 93.398 62.015, 93.601 60.994, 94.673 59.808 C 96.104 58.228, 96.097 57.701, 94.601 53.960 C 92.952 49.840, 81.664 32.529, 79.925 31.454 C 79.416 31.139, 79 31.675, 79 32.644 M 418.250 32.944 C 417.012 33.976, 416 35.111, 416 35.465 C 416 35.820, 414.262 38.673, 412.138 41.805 C 407.978 47.941, 403 57.289, 403 58.967 C 403 59.535, 403.675 60, 404.500 60 C 406.181 60, 406.545 62.545, 405 63.500 C 404.359 63.896, 404 79.177, 404 106.059 C 404 146.085, 404.084 148, 405.836 148 C 407.416 148, 407.826 146.641, 408.780 138.250 C 416.782 67.799, 420.851 30.975, 420.627 31.033 C 420.557 31.052, 419.488 31.911, 418.250 32.944 M 103 56.500 C 103 56.775, 103.225 57, 103.500 57 C 103.775 57, 104 56.775, 104 56.500 C 104 56.225, 103.775 56, 103.500 56 C 103.225 56, 103 56.225, 103 56.500 M 230 103.950 C 225.875 104.409, 216.200 105.302, 208.500 105.934 C 200.800 106.566, 191.707 107.339, 188.293 107.653 L 182.087 108.224 180.463 115.862 C 179.570 120.063, 178.156 125.972, 177.321 128.993 L 175.803 134.486 181.928 140.243 C 186.044 144.111, 188.881 146, 190.575 146 C 191.962 146, 194.959 146.900, 197.236 148 C 199.513 149.100, 202.866 150, 204.688 150 C 208.502 150, 208.698 150.825, 206.818 158.969 C 205.675 163.919, 205.726 164.180, 208.318 166.772 L 211 169.455 211.155 162.977 L 211.310 156.500 212.056 165 C 212.466 169.675, 212.846 185.003, 212.901 199.062 L 213 224.624 215.960 226.812 C 218.686 228.828, 220.069 229, 233.536 229 L 248.154 229 251.112 226.041 C 254.053 223.100, 254.069 223.022, 253.785 212.791 L 253.500 202.500 245.799 202.209 L 238.098 201.918 237.799 208.209 L 237.500 214.500 233 214.500 L 228.500 214.500 228.232 190.250 L 227.964 166 232.935 166 L 237.905 166 238.202 172.250 L 238.500 178.500 246 178.500 L 253.500 178.500 253.784 167.725 L 254.068 156.950 250.811 153.975 L 247.554 151 232.900 151 C 220.864 151, 218.014 151.278, 216.955 152.555 C 216.245 153.410, 214.727 154.555, 213.582 155.100 C 212.437 155.645, 213.622 154.148, 216.216 151.772 C 220.018 148.289, 220.813 147.002, 220.323 145.125 C 219.826 143.228, 220.063 142.865, 221.607 143.157 C 222.914 143.405, 223.597 144.519, 223.813 146.758 L 224.127 150 236.367 150 L 248.608 150 251.838 153.333 L 255.069 156.666 254.784 168.083 L 254.500 179.500 246 179.500 L 237.500 179.500 237 173.500 L 236.500 167.500 233 167.500 L 229.500 167.500 229.500 176.992 L 229.500 186.484 233.250 188.250 C 235.313 189.221, 237 190.609, 237 191.335 C 237 192.218, 237.948 192.515, 239.868 192.233 C 241.445 192.001, 244.200 192.569, 245.990 193.495 C 249.031 195.068, 249.531 195.069, 253.602 193.514 L 257.960 191.850 258.230 171.175 L 258.500 150.500 267.250 150.211 L 276 149.922 276 146.461 C 276 143.777, 276.410 143, 277.825 143 C 279.415 143, 279.675 143.983, 279.847 150.631 C 279.955 154.828, 280.280 158.644, 280.568 159.110 C 280.857 159.577, 280.643 160.799, 280.093 161.826 C 279.400 163.121, 279.447 164.047, 280.247 164.847 C 282.487 167.087, 283.002 165.919, 283.151 158.250 C 283.299 150.644, 283.314 150.695, 283.970 161 C 284.337 166.775, 284.607 173.975, 284.569 177 L 284.500 182.500 279.595 182.500 L 274.691 182.500 274.909 168.496 C 275.028 160.794, 274.825 153.707, 274.456 152.746 C 273.902 151.302, 272.506 151, 266.393 151 L 259 151 259 190 L 259 229 266.475 229 L 273.949 229 274.225 213.250 L 274.500 197.500 279.500 197.500 L 284.500 197.500 284.775 213.250 L 285.051 229 292.525 229 L 300 229 300 190 L 300 151 292.250 150.807 L 284.500 150.615 291 150.274 C 294.575 150.087, 299.750 149.072, 302.500 148.019 C 305.250 146.965, 308.776 145.836, 310.336 145.511 C 314.125 144.720, 323.012 136.342, 322.958 133.613 C 322.934 132.451, 321.682 126.325, 320.174 120 L 317.433 108.500 311.467 107.817 C 308.185 107.442, 299.425 106.623, 292 105.997 C 284.575 105.371, 276.925 104.668, 275 104.436 C 267.214 103.494, 237.018 103.168, 230 103.950 M 166.703 109.731 C 163.279 110.087, 162.984 110.342, 163.703 112.313 C 164.141 113.516, 164.500 116.862, 164.500 119.750 C 164.500 122.830, 164.945 125, 165.576 125 C 166.167 125, 167.708 126.125, 169 127.500 C 170.292 128.875, 171.644 130, 172.004 130 C 172.364 130, 173.444 126.287, 174.403 121.750 C 175.362 117.213, 176.387 112.487, 176.682 111.250 C 177.257 108.829, 176.493 108.713, 166.703 109.731 M 324.615 119.084 C 325.954 124.748, 327.269 129.603, 327.539 129.873 C 327.809 130.143, 329.600 128.842, 331.519 126.982 C 333.984 124.593, 334.830 123.041, 334.403 121.695 C 334.071 120.648, 334.356 117.800, 335.037 115.367 C 335.719 112.933, 336.101 110.775, 335.888 110.570 C 335.675 110.365, 332.503 109.880, 328.841 109.492 L 322.181 108.786 324.615 119.084 M 117.472 152.211 C 117.199 152.924, 117.093 170.381, 117.238 191.004 L 117.500 228.500 125.500 228.500 L 133.500 228.500 134 219.006 L 134.500 209.511 139.360 219.256 L 144.220 229 151.610 229 C 155.675 229, 159 228.689, 159 228.309 C 159 227.929, 154.731 219.205, 149.513 208.922 L 140.025 190.226 149.513 171.760 C 154.731 161.604, 159 152.778, 159 152.147 C 159 151.389, 156.530 151, 151.726 151 L 144.451 151 139.476 160.750 L 134.500 170.500 134 161 L 133.500 151.500 125.735 151.208 C 120.080 150.995, 117.835 151.268, 117.472 152.211 M 166 152.501 C 166 153.326, 168.925 165.425, 172.500 179.387 C 178.745 203.777, 179 205.247, 179 216.886 L 179 229 186.500 229 L 194 229 194 216.366 C 194 209.417, 194.446 202.105, 194.992 200.116 C 196.442 194.828, 207 152.012, 207 151.420 C 207 151.143, 203.564 151.047, 199.364 151.208 L 191.727 151.500 189.444 162.836 C 187.124 174.356, 186.415 176.385, 185.581 173.893 C 185.153 172.615, 181 152.188, 181 151.361 C 181 151.162, 177.625 151, 173.500 151 C 167.498 151, 166 151.300, 166 152.501 M 305.238 189.750 L 305.500 228.500 319.500 228.500 L 333.500 228.500 333.500 222 L 333.500 215.500 327.500 215 L 321.500 214.500 321.207 206.086 C 320.871 196.437, 321.150 196.038, 328.250 196.015 L 333 196 333 189.500 L 333 183 327 183 L 321 183 321 174.548 L 321 166.095 327.250 165.798 L 333.500 165.500 333.812 160.566 C 334.438 150.674, 334.944 151, 318.969 151 L 304.977 151 305.238 189.750 M 339 190.042 L 339 229.084 346.750 228.792 L 354.500 228.500 354.776 213.196 L 355.053 197.893 359.776 198.196 L 364.500 198.500 364.776 213.750 L 365.052 229 372.526 229 L 380 229 380 211.622 C 380 194.715, 379.939 194.203, 377.750 192.731 L 375.500 191.218 377.750 188.794 C 379.876 186.505, 380 185.542, 380 171.373 L 380 156.374 377.195 153.687 L 374.391 151 356.695 151 L 339 151 339 190.042 M 92.911 152.750 C 92.629 155.133, 93.255 163.003, 93.966 166 C 94.623 168.773, 94.817 167.683, 94.898 160.750 C 94.959 155.515, 94.598 152, 94 152 C 93.450 152, 92.960 152.338, 92.911 152.750 M 404.667 152.667 C 404.300 153.033, 404.057 158.096, 404.126 163.917 L 404.252 174.500 405.563 167 C 407.630 155.176, 407.308 150.025, 404.667 152.667 M 355 174.500 L 355 184.110 359.750 183.805 L 364.500 183.500 364.500 174.500 L 364.500 165.500 359.750 165.195 L 355 164.890 355 174.500 M 280.683 172.650 C 279.618 173.715, 279.881 177, 281.031 177 C 282.510 177, 283.441 174.041, 282.316 172.916 C 281.794 172.394, 281.059 172.274, 280.683 172.650 M 232 191.500 C 232 191.775, 232.225 192, 232.500 192 C 232.775 192, 233 191.775, 233 191.500 C 233 191.225, 232.775 191, 232.500 191 C 232.225 191, 232 191.225, 232 191.500 M 254.211 201.395 C 255.541 202.834, 257 202.597, 257 200.941 C 257 200.423, 256.082 200, 254.961 200 C 253.266 200, 253.139 200.236, 254.211 201.395 M 122.250 236.820 L 118 240.555 118 266.710 L 118 292.866 122.353 296.433 L 126.706 300 140.853 300 L 155 300 155 312.500 L 155 325 148 325 L 141 325 141 317.500 L 141 310 129.500 310 L 118 310 118 324.433 L 118 338.866 122.353 342.433 L 126.706 346 148.350 346 L 169.994 346 173.997 342.384 L 178 338.767 177.982 312.134 L 177.964 285.500 174.049 282.250 L 170.135 279 155.536 279 L 140.938 279 141.219 266.750 L 141.500 254.500 148 254.500 L 154.500 254.500 154.794 261.750 L 155.088 269 166.544 269 L 178 269 178 254.620 L 178 240.241 173.582 236.620 L 169.163 233 147.832 233.043 L 126.500 233.085 122.250 236.820 M 186 289.500 L 186 346 196.981 346 L 207.962 346 208.231 323.250 L 208.500 300.500 215.750 300.206 L 223 299.912 223 322.989 L 223 346.066 234.250 345.783 L 245.500 345.500 245.500 289.500 L 245.500 233.500 234.269 233.217 L 223.038 232.935 222.769 255.717 L 222.500 278.500 215.500 278.500 L 208.500 278.500 208.231 255.750 L 207.962 233 196.981 233 L 186 233 186 289.500 M 257.250 236.820 L 253 240.555 253 289.699 L 253 338.844 257.180 342.422 L 261.360 346 283.177 346 L 304.994 346 308.997 342.384 L 313 338.767 313 289.504 L 313 240.241 308.582 236.620 L 304.163 233 282.832 233.043 L 261.500 233.085 257.250 236.820 M 321 289.500 L 321 346 331.980 346 L 342.961 346 343.230 324.250 L 343.500 302.500 358.112 302.224 L 372.723 301.948 376.862 298.128 L 381 294.307 381 267.781 L 381 241.255 376.522 237.127 L 372.045 233 346.522 233 L 321 233 321 289.500 M 276 289 L 276 324 283 324 L 290 324 290 289 L 290 254 283 254 L 276 254 276 289 M 343.667 254.667 C 343.300 255.033, 343 260.883, 343 267.667 L 343 280 350.500 280 L 358 280 358 267 L 358 254 351.167 254 C 347.408 254, 344.033 254.300, 343.667 254.667 M 115 327 C 115 327.733, 115.300 328.033, 115.667 327.667 C 116.033 327.300, 116.033 326.700, 115.667 326.333 C 115.300 325.967, 115 326.267, 115 327 M 381.405 331.155 C 380.962 331.870, 381.130 332.038, 381.845 331.595 C 382.480 331.203, 383 330.684, 383 330.441 C 383 329.607, 382.117 330.002, 381.405 331.155 M 76.333 336.667 C 76.700 337.033, 77.300 337.033, 77.667 336.667 C 78.033 336.300, 77.733 336, 77 336 C 76.267 336, 75.967 336.300, 76.333 336.667 M 421.333 336.667 C 421.700 337.033, 422.300 337.033, 422.667 336.667 C 423.033 336.300, 422.733 336, 422 336 C 421.267 336, 420.967 336.300, 421.333 336.667 M 95.510 342.016 C 95.856 342.575, 96.557 342.774, 97.069 342.457 C 98.456 341.600, 98.198 341, 96.441 341 C 95.584 341, 95.165 341.457, 95.510 342.016 M 402.333 341.667 C 402.700 342.033, 403.300 342.033, 403.667 341.667 C 404.033 341.300, 403.733 341, 403 341 C 402.267 341, 401.967 341.300, 402.333 341.667 M 386.500 352 C 386.840 352.550, 387.343 353, 387.618 353 C 387.893 353, 387.840 352.550, 387.500 352 C 387.160 351.450, 386.657 351, 386.382 351 C 386.107 351, 386.160 351.450, 386.500 352 M 112 352.500 C 112 352.775, 112.225 353, 112.500 353 C 112.775 353, 113 352.775, 113 352.500 C 113 352.225, 112.775 352, 112.500 352 C 112.225 352, 112 352.225, 112 352.500 M 118.694 355.791 L 115.888 356.144 116.438 363.322 C 116.947 369.965, 119.153 382.755, 120.547 387.148 C 120.874 388.179, 122.460 389.704, 124.071 390.537 C 127.542 392.332, 127.835 393.738, 124.828 394.180 C 123.634 394.356, 122.448 395.134, 122.192 395.909 C 121.848 396.951, 122.219 397.113, 123.614 396.531 C 124.651 396.097, 126.513 395.523, 127.750 395.255 C 131.179 394.511, 130.592 397.570, 127 399.160 C 123.521 400.700, 123.461 401.061, 125.621 407.400 C 126.994 411.431, 127.566 412.077, 129.371 411.639 C 130.542 411.355, 134.257 410.818, 137.628 410.446 C 140.998 410.074, 144.187 409.484, 144.715 409.135 C 145.328 408.730, 145.321 405.516, 144.695 400.250 C 143.600 391.030, 143.297 390.787, 136.926 394.038 C 133.085 395.997, 131 395.956, 131 393.920 C 131 393.390, 132.238 392.458, 133.750 391.848 C 135.262 391.238, 137.963 390.020, 139.750 389.142 C 143.393 387.352, 143.455 386.950, 142.080 374 C 141.642 369.875, 141.659 366.083, 142.118 365.574 C 142.577 365.064, 142.562 364.164, 142.084 363.574 C 141.606 362.983, 141.048 361.600, 140.843 360.500 C 140.509 358.707, 139.680 358.500, 132.840 358.500 C 127.464 358.500, 124.662 358.048, 123.355 356.969 C 122.335 356.127, 120.237 355.597, 118.694 355.791 M 375.730 356.920 C 374.114 358.065, 371.505 358.445, 366.250 358.301 C 359.887 358.126, 359 358.320, 359 359.884 C 359 360.865, 358.742 361.924, 358.427 362.239 C 358.112 362.554, 357.644 368.496, 357.386 375.443 L 356.917 388.073 362.367 390.483 C 365.364 391.809, 368.111 393.371, 368.471 393.954 C 369.815 396.127, 366.294 395.962, 361.477 393.624 C 358.740 392.296, 356.424 391.275, 356.332 391.356 C 355.766 391.851, 353.980 408.313, 354.442 408.775 C 355.448 409.781, 371.473 411.814, 372.304 411.041 C 372.746 410.629, 373.737 408.202, 374.506 405.647 L 375.904 401.002 372.952 399.475 C 371.328 398.636, 370 397.233, 370 396.358 C 370 394.767, 370.197 394.777, 376.265 396.686 C 377.585 397.101, 377.873 396.832, 377.408 395.621 C 377.066 394.729, 375.934 394, 374.893 394 C 372.237 394, 372.525 393.043, 376.077 390.073 C 378.761 387.829, 379.388 386.286, 380.979 378 C 381.983 372.775, 383.061 365.737, 383.375 362.360 L 383.946 356.219 380.953 355.780 C 379.186 355.520, 377.045 355.988, 375.730 356.920 M 146.652 360.283 C 148.218 362.088, 150.850 364.650, 152.500 365.976 L 155.500 368.387 153.348 365.944 C 148.099 359.984, 145.147 357, 144.500 357 C 144.117 357, 145.085 358.477, 146.652 360.283 M 144.057 364.432 C 143.393 365.231, 143.292 366.063, 143.820 366.389 C 144.324 366.701, 145.053 370.163, 145.439 374.082 C 146.575 385.609, 146.483 385.520, 153.517 381.853 C 156.808 380.138, 159.652 378.604, 159.839 378.445 C 160.025 378.286, 156.810 374.755, 152.694 370.599 C 146.578 364.423, 144.999 363.296, 144.057 364.432 M 346.234 370.832 C 339.302 378.015, 338.546 379.929, 342.615 379.985 C 343.228 379.993, 344.803 380.838, 346.115 381.862 C 347.427 382.887, 349.472 384.029, 350.661 384.402 C 352.715 385.045, 352.853 384.694, 353.457 377.289 C 353.806 373.005, 354.514 368.730, 355.030 367.790 C 355.968 366.078, 355.354 362.867, 354.143 363.151 C 353.789 363.234, 350.230 366.690, 346.234 370.832 M 156.500 370 C 156.840 370.550, 157.343 371, 157.618 371 C 157.893 371, 157.840 370.550, 157.500 370 C 157.160 369.450, 156.657 369, 156.382 369 C 156.107 369, 156.160 369.450, 156.500 370 M 161 375 C 161 375.550, 161.477 376, 162.059 376 C 162.641 376, 162.840 375.550, 162.500 375 C 162.160 374.450, 161.684 374, 161.441 374 C 161.198 374, 161 374.450, 161 375 M 154.704 385.085 L 146.909 389.070 147.533 395.285 C 147.876 398.703, 148.311 402.006, 148.499 402.625 C 148.687 403.244, 151.262 404.052, 154.221 404.422 C 159.208 405.045, 160.036 404.831, 165.551 401.489 C 168.823 399.506, 172.773 397.622, 174.330 397.301 C 176.618 396.830, 177.051 396.315, 176.593 394.609 C 176.282 393.449, 176.021 392.163, 176.014 391.750 C 176.006 391.337, 175.421 391, 174.712 391 C 174.004 391, 171.209 388.750, 168.500 386 C 165.791 383.250, 163.333 381.022, 163.038 381.050 C 162.742 381.077, 158.992 382.893, 154.704 385.085 M 331.884 385.668 C 329.473 388.152, 326.488 390.582, 325.250 391.067 C 324.012 391.553, 323 392.637, 323 393.475 C 323 394.314, 322.887 395.292, 322.750 395.649 C 322.613 396.007, 324.267 396.910, 326.426 397.658 C 328.585 398.405, 332.503 400.398, 335.134 402.086 C 339.493 404.883, 340.396 405.094, 345.352 404.475 L 350.789 403.796 351.845 396.682 C 352.425 392.769, 352.810 389.519, 352.700 389.459 C 352.590 389.400, 349.873 387.896, 346.662 386.117 C 336.631 380.561, 336.835 380.567, 331.884 385.668 M 399.510 391.016 C 399.856 391.575, 400.557 391.774, 401.069 391.457 C 402.456 390.600, 402.198 390, 400.441 390 C 399.584 390, 399.165 390.457, 399.510 391.016 M 179.406 400.384 C 179.096 401.193, 178.990 402.675, 179.171 403.677 C 179.477 405.370, 179.666 405.345, 181.826 403.326 L 184.151 401.151 182.061 400.033 C 180.404 399.146, 179.853 399.219, 179.406 400.384 M 317.207 400.251 C 316.425 401.193, 316.783 402.092, 318.574 403.688 L 321 405.849 321 403.547 C 321 400.512, 318.670 398.488, 317.207 400.251 M 378 402.500 C 378 402.775, 378.225 403, 378.500 403 C 378.775 403, 379 402.775, 379 402.500 C 379 402.225, 378.775 402, 378.500 402 C 378.225 402, 378 402.225, 378 402.500 M 149 408 C 149 408.550, 150.238 408.993, 151.750 408.985 C 153.893 408.973, 154.169 408.755, 153 408 C 151.043 406.736, 149 406.736, 149 408 M 346 408 C 344.831 408.755, 345.107 408.973, 347.250 408.985 C 348.762 408.993, 350 408.550, 350 408 C 350 406.736, 347.957 406.736, 346 408 M 111 409.941 C 111 410.459, 111.450 411.160, 112 411.500 C 112.550 411.840, 113 411.416, 113 410.559 C 113 409.702, 112.550 409, 112 409 C 111.450 409, 111 409.423, 111 409.941 M 386 409.941 C 386 410.459, 386.450 411.160, 387 411.500 C 387.550 411.840, 388 411.416, 388 410.559 C 388 409.702, 387.550 409, 387 409 C 386.450 409, 386 409.423, 386 409.941 M 161.543 411.931 C 161.226 412.443, 161.425 413.144, 161.984 413.490 C 162.543 413.835, 163 413.416, 163 412.559 C 163 410.802, 162.400 410.544, 161.543 411.931 M 336.543 411.931 C 336.226 412.443, 336.425 413.144, 336.984 413.490 C 337.543 413.835, 338 413.416, 338 412.559 C 338 410.802, 337.400 410.544, 336.543 411.931 M 109 440 C 109 440.733, 109.300 441.033, 109.667 440.667 C 110.033 440.300, 110.033 439.700, 109.667 439.333 C 109.300 438.967, 109 439.267, 109 440 M 356 456.500 C 356 456.775, 356.225 457, 356.500 457 C 356.775 457, 357 456.775, 357 456.500 C 357 456.225, 356.775 456, 356.500 456 C 356.225 456, 356 456.225, 356 456.500 M 249.250 470.794 C 245.585 471.169, 245.358 471.859, 247.526 476.050 C 249.506 479.878, 250.263 479.770, 252.368 475.354 C 254.365 471.166, 253.792 470.328, 249.250 470.794" stroke="none" fill="#000000" fill-rule="evenodd"/>
</svg>